M48
; DRILL file {KiCad (5.1.8)-1} date 05/07/21 13:21:54
; FORMAT={-:-/ absolute / metric / decimal}
; #@! TF.CreationDate,2021-05-07T13:21:54+02:00
; #@! TF.GenerationSoftware,Kicad,Pcbnew,(5.1.8)-1
; #@! TF.FileFunction,Plated,1,2,PTH
FMAT,2
METRIC
T1C0.400
T2C1.000
T3C1.200
%
G90
G05
T1
X73.406Y-90.043
X73.787Y-88.011
X76.708Y-85.344
X76.708Y-87.884
X76.708Y-90.424
X77.724Y-86.36
X77.724Y-89.408
X78.74Y-85.344
X78.74Y-90.424
X79.756Y-86.36
X79.756Y-89.408
X80.772Y-85.344
X80.772Y-87.884
X80.772Y-90.424
X96.584Y-71.691
X78.613Y-87.884
T2
X72.644Y-82.804
X72.644Y-98.044
X75.184Y-82.804
X75.184Y-98.044
X77.724Y-82.804
X77.724Y-98.044
X80.264Y-82.804
X80.264Y-98.044
X82.804Y-82.804
X82.804Y-98.044
X85.344Y-82.804
X85.344Y-98.044
X87.884Y-82.804
X87.884Y-98.044
X90.424Y-82.804
X90.424Y-98.044
X92.964Y-82.804
X92.964Y-98.044
X95.504Y-82.804
X95.504Y-98.044
X98.044Y-82.804
X98.044Y-98.044
X100.584Y-82.804
X100.584Y-98.044
X103.124Y-82.804
X103.124Y-98.044
X105.664Y-82.804
X105.664Y-98.044
X108.204Y-82.804
X108.204Y-98.044
T3
X66.04Y-83.352
X66.04Y-85.852
X104.14Y-73.914
X104.14Y-76.414
X74.422Y-76.2
X76.922Y-76.2
X79.422Y-76.2
X85.598Y-76.2
X88.098Y-76.2
X90.598Y-76.2
X66.04Y-90.925
X66.04Y-93.425
X66.04Y-95.925
X66.04Y-98.425
X66.04Y-71.367
X66.04Y-73.867
X66.04Y-76.367
X66.04Y-78.867
T0
M30
