%TF.GenerationSoftware,KiCad,Pcbnew,(5.1.8)-1*%
%TF.CreationDate,2021-05-07T13:22:02+02:00*%
%TF.ProjectId,Inputs_Volante,496e7075-7473-45f5-966f-6c616e74652e,rev?*%
%TF.SameCoordinates,Original*%
%TF.FileFunction,Paste,Top*%
%TF.FilePolarity,Positive*%
%FSLAX46Y46*%
G04 Gerber Fmt 4.6, Leading zero omitted, Abs format (unit mm)*
G04 Created by KiCad (PCBNEW (5.1.8)-1) date 2021-05-07 13:22:02*
%MOMM*%
%LPD*%
G01*
G04 APERTURE LIST*
G04 APERTURE END LIST*
%TO.C,C2*%
G36*
G01*
X78555000Y-80358000D02*
X78555000Y-79408000D01*
G75*
G02*
X78805000Y-79158000I250000J0D01*
G01*
X79480000Y-79158000D01*
G75*
G02*
X79730000Y-79408000I0J-250000D01*
G01*
X79730000Y-80358000D01*
G75*
G02*
X79480000Y-80608000I-250000J0D01*
G01*
X78805000Y-80608000D01*
G75*
G02*
X78555000Y-80358000I0J250000D01*
G01*
G37*
G36*
G01*
X76480000Y-80358000D02*
X76480000Y-79408000D01*
G75*
G02*
X76730000Y-79158000I250000J0D01*
G01*
X77405000Y-79158000D01*
G75*
G02*
X77655000Y-79408000I0J-250000D01*
G01*
X77655000Y-80358000D01*
G75*
G02*
X77405000Y-80608000I-250000J0D01*
G01*
X76730000Y-80608000D01*
G75*
G02*
X76480000Y-80358000I0J250000D01*
G01*
G37*
%TD*%
%TO.C,C1*%
G36*
G01*
X97494000Y-75626000D02*
X98594000Y-75626000D01*
G75*
G02*
X98844000Y-75876000I0J-250000D01*
G01*
X98844000Y-78876000D01*
G75*
G02*
X98594000Y-79126000I-250000J0D01*
G01*
X97494000Y-79126000D01*
G75*
G02*
X97244000Y-78876000I0J250000D01*
G01*
X97244000Y-75876000D01*
G75*
G02*
X97494000Y-75626000I250000J0D01*
G01*
G37*
G36*
G01*
X97494000Y-70226000D02*
X98594000Y-70226000D01*
G75*
G02*
X98844000Y-70476000I0J-250000D01*
G01*
X98844000Y-73476000D01*
G75*
G02*
X98594000Y-73726000I-250000J0D01*
G01*
X97494000Y-73726000D01*
G75*
G02*
X97244000Y-73476000I0J250000D01*
G01*
X97244000Y-70476000D01*
G75*
G02*
X97494000Y-70226000I250000J0D01*
G01*
G37*
%TD*%
%TO.C,R1*%
G36*
G01*
X99076500Y-67989000D02*
X99551500Y-67989000D01*
G75*
G02*
X99789000Y-68226500I0J-237500D01*
G01*
X99789000Y-68726500D01*
G75*
G02*
X99551500Y-68964000I-237500J0D01*
G01*
X99076500Y-68964000D01*
G75*
G02*
X98839000Y-68726500I0J237500D01*
G01*
X98839000Y-68226500D01*
G75*
G02*
X99076500Y-67989000I237500J0D01*
G01*
G37*
G36*
G01*
X99076500Y-66164000D02*
X99551500Y-66164000D01*
G75*
G02*
X99789000Y-66401500I0J-237500D01*
G01*
X99789000Y-66901500D01*
G75*
G02*
X99551500Y-67139000I-237500J0D01*
G01*
X99076500Y-67139000D01*
G75*
G02*
X98839000Y-66901500I0J237500D01*
G01*
X98839000Y-66401500D01*
G75*
G02*
X99076500Y-66164000I237500J0D01*
G01*
G37*
%TD*%
%TO.C,D1*%
G36*
G01*
X96282500Y-68041000D02*
X96757500Y-68041000D01*
G75*
G02*
X96995000Y-68278500I0J-237500D01*
G01*
X96995000Y-68853500D01*
G75*
G02*
X96757500Y-69091000I-237500J0D01*
G01*
X96282500Y-69091000D01*
G75*
G02*
X96045000Y-68853500I0J237500D01*
G01*
X96045000Y-68278500D01*
G75*
G02*
X96282500Y-68041000I237500J0D01*
G01*
G37*
G36*
G01*
X96282500Y-66291000D02*
X96757500Y-66291000D01*
G75*
G02*
X96995000Y-66528500I0J-237500D01*
G01*
X96995000Y-67103500D01*
G75*
G02*
X96757500Y-67341000I-237500J0D01*
G01*
X96282500Y-67341000D01*
G75*
G02*
X96045000Y-67103500I0J237500D01*
G01*
X96045000Y-66528500D01*
G75*
G02*
X96282500Y-66291000I237500J0D01*
G01*
G37*
%TD*%
M02*
