%TF.GenerationSoftware,KiCad,Pcbnew,(5.1.8)-1*%
%TF.CreationDate,2021-05-07T13:22:02+02:00*%
%TF.ProjectId,Inputs_Volante,496e7075-7473-45f5-966f-6c616e74652e,rev?*%
%TF.SameCoordinates,Original*%
%TF.FileFunction,Legend,Top*%
%TF.FilePolarity,Positive*%
%FSLAX46Y46*%
G04 Gerber Fmt 4.6, Leading zero omitted, Abs format (unit mm)*
G04 Created by KiCad (PCBNEW (5.1.8)-1) date 2021-05-07 13:22:02*
%MOMM*%
%LPD*%
G01*
G04 APERTURE LIST*
%ADD10C,0.150000*%
%ADD11C,0.120000*%
G04 APERTURE END LIST*
D10*
X110196380Y-92193904D02*
X111005904Y-92193904D01*
X111101142Y-92146285D01*
X111148761Y-92098666D01*
X111196380Y-92003428D01*
X111196380Y-91812952D01*
X111148761Y-91717714D01*
X111101142Y-91670095D01*
X111005904Y-91622476D01*
X110196380Y-91622476D01*
X111148761Y-91193904D02*
X111196380Y-91051047D01*
X111196380Y-90812952D01*
X111148761Y-90717714D01*
X111101142Y-90670095D01*
X111005904Y-90622476D01*
X110910666Y-90622476D01*
X110815428Y-90670095D01*
X110767809Y-90717714D01*
X110720190Y-90812952D01*
X110672571Y-91003428D01*
X110624952Y-91098666D01*
X110577333Y-91146285D01*
X110482095Y-91193904D01*
X110386857Y-91193904D01*
X110291619Y-91146285D01*
X110244000Y-91098666D01*
X110196380Y-91003428D01*
X110196380Y-90765333D01*
X110244000Y-90622476D01*
X110672571Y-89860571D02*
X110720190Y-89717714D01*
X110767809Y-89670095D01*
X110863047Y-89622476D01*
X111005904Y-89622476D01*
X111101142Y-89670095D01*
X111148761Y-89717714D01*
X111196380Y-89812952D01*
X111196380Y-90193904D01*
X110196380Y-90193904D01*
X110196380Y-89860571D01*
X110244000Y-89765333D01*
X110291619Y-89717714D01*
X110386857Y-89670095D01*
X110482095Y-89670095D01*
X110577333Y-89717714D01*
X110624952Y-89765333D01*
X110672571Y-89860571D01*
X110672571Y-90193904D01*
X83788714Y-90876380D02*
X83788714Y-89876380D01*
X84360142Y-90876380D01*
X84360142Y-89876380D01*
X84788714Y-90590666D02*
X85264904Y-90590666D01*
X84693476Y-90876380D02*
X85026809Y-89876380D01*
X85360142Y-90876380D01*
X85693476Y-90876380D02*
X85693476Y-89876380D01*
X86264904Y-90876380D01*
X86264904Y-89876380D01*
X86931571Y-89876380D02*
X87122047Y-89876380D01*
X87217285Y-89924000D01*
X87312523Y-90019238D01*
X87360142Y-90209714D01*
X87360142Y-90543047D01*
X87312523Y-90733523D01*
X87217285Y-90828761D01*
X87122047Y-90876380D01*
X86931571Y-90876380D01*
X86836333Y-90828761D01*
X86741095Y-90733523D01*
X86693476Y-90543047D01*
X86693476Y-90209714D01*
X86741095Y-90019238D01*
X86836333Y-89924000D01*
X86931571Y-89876380D01*
X88455380Y-90209714D02*
X88693476Y-90876380D01*
X88931571Y-90209714D01*
X89217285Y-89876380D02*
X89836333Y-89876380D01*
X89503000Y-90257333D01*
X89645857Y-90257333D01*
X89741095Y-90304952D01*
X89788714Y-90352571D01*
X89836333Y-90447809D01*
X89836333Y-90685904D01*
X89788714Y-90781142D01*
X89741095Y-90828761D01*
X89645857Y-90876380D01*
X89360142Y-90876380D01*
X89264904Y-90828761D01*
X89217285Y-90781142D01*
X90264904Y-90781142D02*
X90312523Y-90828761D01*
X90264904Y-90876380D01*
X90217285Y-90828761D01*
X90264904Y-90781142D01*
X90264904Y-90876380D01*
X90931571Y-89876380D02*
X91026809Y-89876380D01*
X91122047Y-89924000D01*
X91169666Y-89971619D01*
X91217285Y-90066857D01*
X91264904Y-90257333D01*
X91264904Y-90495428D01*
X91217285Y-90685904D01*
X91169666Y-90781142D01*
X91122047Y-90828761D01*
X91026809Y-90876380D01*
X90931571Y-90876380D01*
X90836333Y-90828761D01*
X90788714Y-90781142D01*
X90741095Y-90685904D01*
X90693476Y-90495428D01*
X90693476Y-90257333D01*
X90741095Y-90066857D01*
X90788714Y-89971619D01*
X90836333Y-89924000D01*
X90931571Y-89876380D01*
X74105476Y-102941380D02*
X74105476Y-101941380D01*
X74486428Y-101941380D01*
X74581666Y-101989000D01*
X74629285Y-102036619D01*
X74676904Y-102131857D01*
X74676904Y-102274714D01*
X74629285Y-102369952D01*
X74581666Y-102417571D01*
X74486428Y-102465190D01*
X74105476Y-102465190D01*
X75676904Y-102846142D02*
X75629285Y-102893761D01*
X75486428Y-102941380D01*
X75391190Y-102941380D01*
X75248333Y-102893761D01*
X75153095Y-102798523D01*
X75105476Y-102703285D01*
X75057857Y-102512809D01*
X75057857Y-102369952D01*
X75105476Y-102179476D01*
X75153095Y-102084238D01*
X75248333Y-101989000D01*
X75391190Y-101941380D01*
X75486428Y-101941380D01*
X75629285Y-101989000D01*
X75676904Y-102036619D01*
X76438809Y-102417571D02*
X76581666Y-102465190D01*
X76629285Y-102512809D01*
X76676904Y-102608047D01*
X76676904Y-102750904D01*
X76629285Y-102846142D01*
X76581666Y-102893761D01*
X76486428Y-102941380D01*
X76105476Y-102941380D01*
X76105476Y-101941380D01*
X76438809Y-101941380D01*
X76534047Y-101989000D01*
X76581666Y-102036619D01*
X76629285Y-102131857D01*
X76629285Y-102227095D01*
X76581666Y-102322333D01*
X76534047Y-102369952D01*
X76438809Y-102417571D01*
X76105476Y-102417571D01*
X76867380Y-103036619D02*
X77629285Y-103036619D01*
X77724523Y-101941380D02*
X78057857Y-102941380D01*
X78391190Y-101941380D01*
X78867380Y-102941380D02*
X78772142Y-102893761D01*
X78724523Y-102846142D01*
X78676904Y-102750904D01*
X78676904Y-102465190D01*
X78724523Y-102369952D01*
X78772142Y-102322333D01*
X78867380Y-102274714D01*
X79010238Y-102274714D01*
X79105476Y-102322333D01*
X79153095Y-102369952D01*
X79200714Y-102465190D01*
X79200714Y-102750904D01*
X79153095Y-102846142D01*
X79105476Y-102893761D01*
X79010238Y-102941380D01*
X78867380Y-102941380D01*
X79772142Y-102941380D02*
X79676904Y-102893761D01*
X79629285Y-102798523D01*
X79629285Y-101941380D01*
X80581666Y-102941380D02*
X80581666Y-102417571D01*
X80534047Y-102322333D01*
X80438809Y-102274714D01*
X80248333Y-102274714D01*
X80153095Y-102322333D01*
X80581666Y-102893761D02*
X80486428Y-102941380D01*
X80248333Y-102941380D01*
X80153095Y-102893761D01*
X80105476Y-102798523D01*
X80105476Y-102703285D01*
X80153095Y-102608047D01*
X80248333Y-102560428D01*
X80486428Y-102560428D01*
X80581666Y-102512809D01*
X81057857Y-102274714D02*
X81057857Y-102941380D01*
X81057857Y-102369952D02*
X81105476Y-102322333D01*
X81200714Y-102274714D01*
X81343571Y-102274714D01*
X81438809Y-102322333D01*
X81486428Y-102417571D01*
X81486428Y-102941380D01*
X81819761Y-102274714D02*
X82200714Y-102274714D01*
X81962619Y-101941380D02*
X81962619Y-102798523D01*
X82010238Y-102893761D01*
X82105476Y-102941380D01*
X82200714Y-102941380D01*
X82915000Y-102893761D02*
X82819761Y-102941380D01*
X82629285Y-102941380D01*
X82534047Y-102893761D01*
X82486428Y-102798523D01*
X82486428Y-102417571D01*
X82534047Y-102322333D01*
X82629285Y-102274714D01*
X82819761Y-102274714D01*
X82915000Y-102322333D01*
X82962619Y-102417571D01*
X82962619Y-102512809D01*
X82486428Y-102608047D01*
X84010238Y-101941380D02*
X84343571Y-102941380D01*
X84676904Y-101941380D01*
X85534047Y-102941380D02*
X84962619Y-102941380D01*
X85248333Y-102941380D02*
X85248333Y-101941380D01*
X85153095Y-102084238D01*
X85057857Y-102179476D01*
X84962619Y-102227095D01*
X85962619Y-102846142D02*
X86010238Y-102893761D01*
X85962619Y-102941380D01*
X85915000Y-102893761D01*
X85962619Y-102846142D01*
X85962619Y-102941380D01*
X86629285Y-101941380D02*
X86724523Y-101941380D01*
X86819761Y-101989000D01*
X86867380Y-102036619D01*
X86915000Y-102131857D01*
X86962619Y-102322333D01*
X86962619Y-102560428D01*
X86915000Y-102750904D01*
X86867380Y-102846142D01*
X86819761Y-102893761D01*
X86724523Y-102941380D01*
X86629285Y-102941380D01*
X86534047Y-102893761D01*
X86486428Y-102846142D01*
X86438809Y-102750904D01*
X86391190Y-102560428D01*
X86391190Y-102322333D01*
X86438809Y-102131857D01*
X86486428Y-102036619D01*
X86534047Y-101989000D01*
X86629285Y-101941380D01*
X87391190Y-102846142D02*
X87438809Y-102893761D01*
X87391190Y-102941380D01*
X87343571Y-102893761D01*
X87391190Y-102846142D01*
X87391190Y-102941380D01*
X88057857Y-101941380D02*
X88153095Y-101941380D01*
X88248333Y-101989000D01*
X88295952Y-102036619D01*
X88343571Y-102131857D01*
X88391190Y-102322333D01*
X88391190Y-102560428D01*
X88343571Y-102750904D01*
X88295952Y-102846142D01*
X88248333Y-102893761D01*
X88153095Y-102941380D01*
X88057857Y-102941380D01*
X87962619Y-102893761D01*
X87915000Y-102846142D01*
X87867380Y-102750904D01*
X87819761Y-102560428D01*
X87819761Y-102322333D01*
X87867380Y-102131857D01*
X87915000Y-102036619D01*
X87962619Y-101989000D01*
X88057857Y-101941380D01*
X88819761Y-102846142D02*
X88867380Y-102893761D01*
X88819761Y-102941380D01*
X88772142Y-102893761D01*
X88819761Y-102846142D01*
X88819761Y-102941380D01*
X89724523Y-102941380D02*
X89724523Y-102417571D01*
X89676904Y-102322333D01*
X89581666Y-102274714D01*
X89391190Y-102274714D01*
X89295952Y-102322333D01*
X89724523Y-102893761D02*
X89629285Y-102941380D01*
X89391190Y-102941380D01*
X89295952Y-102893761D01*
X89248333Y-102798523D01*
X89248333Y-102703285D01*
X89295952Y-102608047D01*
X89391190Y-102560428D01*
X89629285Y-102560428D01*
X89724523Y-102512809D01*
D11*
%TO.C, *%
X75113000Y-91384000D02*
X82113000Y-91384000D01*
X75113000Y-84384000D02*
X75113000Y-91384000D01*
X82113000Y-84384000D02*
X82113000Y-91384000D01*
X75113000Y-84384000D02*
X82113000Y-84384000D01*
%TO.C,C2*%
X77843748Y-80618000D02*
X78366252Y-80618000D01*
X77843748Y-79148000D02*
X78366252Y-79148000D01*
%TO.C,J6*%
X66340000Y-99959264D02*
X66040000Y-99535000D01*
X65740000Y-99959264D02*
X66340000Y-99959264D01*
X66040000Y-99535000D02*
X65740000Y-99959264D01*
X64680000Y-90775000D02*
X64230000Y-90775000D01*
X64680000Y-91075000D02*
X64680000Y-90775000D01*
X64230000Y-91075000D02*
X64680000Y-91075000D01*
X64230000Y-90775000D02*
X64230000Y-91075000D01*
X64680000Y-93275000D02*
X64230000Y-93275000D01*
X64680000Y-93575000D02*
X64680000Y-93275000D01*
X64230000Y-93575000D02*
X64680000Y-93575000D01*
X64230000Y-93275000D02*
X64230000Y-93575000D01*
X64680000Y-95775000D02*
X64230000Y-95775000D01*
X64680000Y-96075000D02*
X64680000Y-95775000D01*
X64230000Y-96075000D02*
X64680000Y-96075000D01*
X64230000Y-95775000D02*
X64230000Y-96075000D01*
X64680000Y-98275000D02*
X64230000Y-98275000D01*
X64680000Y-98575000D02*
X64680000Y-98275000D01*
X64230000Y-98575000D02*
X64680000Y-98575000D01*
X64230000Y-98275000D02*
X64230000Y-98575000D01*
X55550000Y-100255000D02*
X64230000Y-100255000D01*
X55550000Y-89095000D02*
X55550000Y-100255000D01*
X64230000Y-89095000D02*
X55550000Y-89095000D01*
X64230000Y-100255000D02*
X64230000Y-89095000D01*
%TO.C,J5*%
X66340000Y-87386264D02*
X66040000Y-86962000D01*
X65740000Y-87386264D02*
X66340000Y-87386264D01*
X66040000Y-86962000D02*
X65740000Y-87386264D01*
X64680000Y-83202000D02*
X64230000Y-83202000D01*
X64680000Y-83502000D02*
X64680000Y-83202000D01*
X64230000Y-83502000D02*
X64680000Y-83502000D01*
X64230000Y-83202000D02*
X64230000Y-83502000D01*
X64680000Y-85702000D02*
X64230000Y-85702000D01*
X64680000Y-86002000D02*
X64680000Y-85702000D01*
X64230000Y-86002000D02*
X64680000Y-86002000D01*
X64230000Y-85702000D02*
X64230000Y-86002000D01*
X55550000Y-87682000D02*
X64230000Y-87682000D01*
X55550000Y-81522000D02*
X55550000Y-87682000D01*
X64230000Y-81522000D02*
X55550000Y-81522000D01*
X64230000Y-87682000D02*
X64230000Y-81522000D01*
%TO.C,C1*%
X94634000Y-78086000D02*
X96984000Y-78086000D01*
X101454000Y-78086000D02*
X99104000Y-78086000D01*
X101454000Y-72330437D02*
X101454000Y-78086000D01*
X94634000Y-72330437D02*
X94634000Y-78086000D01*
X95698437Y-71266000D02*
X96984000Y-71266000D01*
X100389563Y-71266000D02*
X99104000Y-71266000D01*
X100389563Y-71266000D02*
X101454000Y-72330437D01*
X95698437Y-71266000D02*
X94634000Y-72330437D01*
X99891500Y-70238500D02*
X99891500Y-71026000D01*
X100285250Y-70632250D02*
X99497750Y-70632250D01*
%TO.C,A1*%
X73914000Y-96774000D02*
X71374000Y-96774000D01*
X71374000Y-96774000D02*
X71374000Y-99444000D01*
X73914000Y-99444000D02*
X112144000Y-99444000D01*
X68704000Y-99444000D02*
X71374000Y-99444000D01*
X71374000Y-84074000D02*
X71374000Y-81404000D01*
X71374000Y-84074000D02*
X109474000Y-84074000D01*
X109474000Y-84074000D02*
X109474000Y-81404000D01*
X73914000Y-96774000D02*
X73914000Y-99444000D01*
X73914000Y-96774000D02*
X109474000Y-96774000D01*
X109474000Y-96774000D02*
X109474000Y-99444000D01*
X112144000Y-99444000D02*
X112144000Y-81404000D01*
X112144000Y-81404000D02*
X68704000Y-81404000D01*
X68704000Y-81404000D02*
X68704000Y-99444000D01*
%TO.C,R1*%
X99836500Y-67309276D02*
X99836500Y-67818724D01*
X98791500Y-67309276D02*
X98791500Y-67818724D01*
%TO.C,D1*%
X97255000Y-68491000D02*
X97255000Y-66031000D01*
X97255000Y-66031000D02*
X95785000Y-66031000D01*
X95785000Y-66031000D02*
X95785000Y-68491000D01*
%TO.C,J4*%
X72592000Y-74390000D02*
X81252000Y-74390000D01*
X81252000Y-74390000D02*
X81252000Y-65710000D01*
X81252000Y-65710000D02*
X72592000Y-65710000D01*
X72592000Y-65710000D02*
X72592000Y-74390000D01*
X74572000Y-74390000D02*
X74272000Y-74390000D01*
X74272000Y-74390000D02*
X74272000Y-74840000D01*
X74272000Y-74840000D02*
X74572000Y-74840000D01*
X74572000Y-74840000D02*
X74572000Y-74390000D01*
X77072000Y-74390000D02*
X76772000Y-74390000D01*
X76772000Y-74390000D02*
X76772000Y-74840000D01*
X76772000Y-74840000D02*
X77072000Y-74840000D01*
X77072000Y-74840000D02*
X77072000Y-74390000D01*
X79572000Y-74390000D02*
X79272000Y-74390000D01*
X79272000Y-74390000D02*
X79272000Y-74840000D01*
X79272000Y-74840000D02*
X79572000Y-74840000D01*
X79572000Y-74840000D02*
X79572000Y-74390000D01*
X73312000Y-76200000D02*
X72887736Y-75900000D01*
X72887736Y-75900000D02*
X72887736Y-76500000D01*
X72887736Y-76500000D02*
X73312000Y-76200000D01*
%TO.C,J3*%
X83768000Y-74390000D02*
X92428000Y-74390000D01*
X92428000Y-74390000D02*
X92428000Y-65710000D01*
X92428000Y-65710000D02*
X83768000Y-65710000D01*
X83768000Y-65710000D02*
X83768000Y-74390000D01*
X85748000Y-74390000D02*
X85448000Y-74390000D01*
X85448000Y-74390000D02*
X85448000Y-74840000D01*
X85448000Y-74840000D02*
X85748000Y-74840000D01*
X85748000Y-74840000D02*
X85748000Y-74390000D01*
X88248000Y-74390000D02*
X87948000Y-74390000D01*
X87948000Y-74390000D02*
X87948000Y-74840000D01*
X87948000Y-74840000D02*
X88248000Y-74840000D01*
X88248000Y-74840000D02*
X88248000Y-74390000D01*
X90748000Y-74390000D02*
X90448000Y-74390000D01*
X90448000Y-74390000D02*
X90448000Y-74840000D01*
X90448000Y-74840000D02*
X90748000Y-74840000D01*
X90748000Y-74840000D02*
X90748000Y-74390000D01*
X84488000Y-76200000D02*
X84063736Y-75900000D01*
X84063736Y-75900000D02*
X84063736Y-76500000D01*
X84063736Y-76500000D02*
X84488000Y-76200000D01*
%TO.C,J2*%
X64230000Y-80697000D02*
X64230000Y-69537000D01*
X64230000Y-69537000D02*
X55550000Y-69537000D01*
X55550000Y-69537000D02*
X55550000Y-80697000D01*
X55550000Y-80697000D02*
X64230000Y-80697000D01*
X64230000Y-78717000D02*
X64230000Y-79017000D01*
X64230000Y-79017000D02*
X64680000Y-79017000D01*
X64680000Y-79017000D02*
X64680000Y-78717000D01*
X64680000Y-78717000D02*
X64230000Y-78717000D01*
X64230000Y-76217000D02*
X64230000Y-76517000D01*
X64230000Y-76517000D02*
X64680000Y-76517000D01*
X64680000Y-76517000D02*
X64680000Y-76217000D01*
X64680000Y-76217000D02*
X64230000Y-76217000D01*
X64230000Y-73717000D02*
X64230000Y-74017000D01*
X64230000Y-74017000D02*
X64680000Y-74017000D01*
X64680000Y-74017000D02*
X64680000Y-73717000D01*
X64680000Y-73717000D02*
X64230000Y-73717000D01*
X64230000Y-71217000D02*
X64230000Y-71517000D01*
X64230000Y-71517000D02*
X64680000Y-71517000D01*
X64680000Y-71517000D02*
X64680000Y-71217000D01*
X64680000Y-71217000D02*
X64230000Y-71217000D01*
X66040000Y-79977000D02*
X65740000Y-80401264D01*
X65740000Y-80401264D02*
X66340000Y-80401264D01*
X66340000Y-80401264D02*
X66040000Y-79977000D01*
%TO.C,J1*%
X105950000Y-72084000D02*
X105950000Y-78244000D01*
X105950000Y-78244000D02*
X114630000Y-78244000D01*
X114630000Y-78244000D02*
X114630000Y-72084000D01*
X114630000Y-72084000D02*
X105950000Y-72084000D01*
X105950000Y-74064000D02*
X105950000Y-73764000D01*
X105950000Y-73764000D02*
X105500000Y-73764000D01*
X105500000Y-73764000D02*
X105500000Y-74064000D01*
X105500000Y-74064000D02*
X105950000Y-74064000D01*
X105950000Y-76564000D02*
X105950000Y-76264000D01*
X105950000Y-76264000D02*
X105500000Y-76264000D01*
X105500000Y-76264000D02*
X105500000Y-76564000D01*
X105500000Y-76564000D02*
X105950000Y-76564000D01*
X104140000Y-72804000D02*
X104440000Y-72379736D01*
X104440000Y-72379736D02*
X103840000Y-72379736D01*
X103840000Y-72379736D02*
X104140000Y-72804000D01*
%TO.C, *%
D10*
%TO.C,C2*%
X75017333Y-80240142D02*
X74969714Y-80287761D01*
X74826857Y-80335380D01*
X74731619Y-80335380D01*
X74588761Y-80287761D01*
X74493523Y-80192523D01*
X74445904Y-80097285D01*
X74398285Y-79906809D01*
X74398285Y-79763952D01*
X74445904Y-79573476D01*
X74493523Y-79478238D01*
X74588761Y-79383000D01*
X74731619Y-79335380D01*
X74826857Y-79335380D01*
X74969714Y-79383000D01*
X75017333Y-79430619D01*
X75398285Y-79430619D02*
X75445904Y-79383000D01*
X75541142Y-79335380D01*
X75779238Y-79335380D01*
X75874476Y-79383000D01*
X75922095Y-79430619D01*
X75969714Y-79525857D01*
X75969714Y-79621095D01*
X75922095Y-79763952D01*
X75350666Y-80335380D01*
X75969714Y-80335380D01*
%TO.C,J6*%
X66341666Y-100925380D02*
X66341666Y-101639666D01*
X66294047Y-101782523D01*
X66198809Y-101877761D01*
X66055952Y-101925380D01*
X65960714Y-101925380D01*
X67246428Y-100925380D02*
X67055952Y-100925380D01*
X66960714Y-100973000D01*
X66913095Y-101020619D01*
X66817857Y-101163476D01*
X66770238Y-101353952D01*
X66770238Y-101734904D01*
X66817857Y-101830142D01*
X66865476Y-101877761D01*
X66960714Y-101925380D01*
X67151190Y-101925380D01*
X67246428Y-101877761D01*
X67294047Y-101830142D01*
X67341666Y-101734904D01*
X67341666Y-101496809D01*
X67294047Y-101401571D01*
X67246428Y-101353952D01*
X67151190Y-101306333D01*
X66960714Y-101306333D01*
X66865476Y-101353952D01*
X66817857Y-101401571D01*
X66770238Y-101496809D01*
%TO.C,J5*%
X62571380Y-86820333D02*
X63285666Y-86820333D01*
X63428523Y-86867952D01*
X63523761Y-86963190D01*
X63571380Y-87106047D01*
X63571380Y-87201285D01*
X62571380Y-85867952D02*
X62571380Y-86344142D01*
X63047571Y-86391761D01*
X62999952Y-86344142D01*
X62952333Y-86248904D01*
X62952333Y-86010809D01*
X62999952Y-85915571D01*
X63047571Y-85867952D01*
X63142809Y-85820333D01*
X63380904Y-85820333D01*
X63476142Y-85867952D01*
X63523761Y-85915571D01*
X63571380Y-86010809D01*
X63571380Y-86248904D01*
X63523761Y-86344142D01*
X63476142Y-86391761D01*
%TO.C,C1*%
X94575333Y-70715142D02*
X94527714Y-70762761D01*
X94384857Y-70810380D01*
X94289619Y-70810380D01*
X94146761Y-70762761D01*
X94051523Y-70667523D01*
X94003904Y-70572285D01*
X93956285Y-70381809D01*
X93956285Y-70238952D01*
X94003904Y-70048476D01*
X94051523Y-69953238D01*
X94146761Y-69858000D01*
X94289619Y-69810380D01*
X94384857Y-69810380D01*
X94527714Y-69858000D01*
X94575333Y-69905619D01*
X95527714Y-70810380D02*
X94956285Y-70810380D01*
X95242000Y-70810380D02*
X95242000Y-69810380D01*
X95146761Y-69953238D01*
X95051523Y-70048476D01*
X94956285Y-70096095D01*
%TO.C,A1*%
X71929714Y-100369666D02*
X72405904Y-100369666D01*
X71834476Y-100655380D02*
X72167809Y-99655380D01*
X72501142Y-100655380D01*
X73358285Y-100655380D02*
X72786857Y-100655380D01*
X73072571Y-100655380D02*
X73072571Y-99655380D01*
X72977333Y-99798238D01*
X72882095Y-99893476D01*
X72786857Y-99941095D01*
%TO.C,R1*%
X101433333Y-68016380D02*
X101100000Y-67540190D01*
X100861904Y-68016380D02*
X100861904Y-67016380D01*
X101242857Y-67016380D01*
X101338095Y-67064000D01*
X101385714Y-67111619D01*
X101433333Y-67206857D01*
X101433333Y-67349714D01*
X101385714Y-67444952D01*
X101338095Y-67492571D01*
X101242857Y-67540190D01*
X100861904Y-67540190D01*
X102385714Y-68016380D02*
X101814285Y-68016380D01*
X102100000Y-68016380D02*
X102100000Y-67016380D01*
X102004761Y-67159238D01*
X101909523Y-67254476D01*
X101814285Y-67302095D01*
%TO.C,D1*%
X94003904Y-68016380D02*
X94003904Y-67016380D01*
X94242000Y-67016380D01*
X94384857Y-67064000D01*
X94480095Y-67159238D01*
X94527714Y-67254476D01*
X94575333Y-67444952D01*
X94575333Y-67587809D01*
X94527714Y-67778285D01*
X94480095Y-67873523D01*
X94384857Y-67968761D01*
X94242000Y-68016380D01*
X94003904Y-68016380D01*
X95527714Y-68016380D02*
X94956285Y-68016380D01*
X95242000Y-68016380D02*
X95242000Y-67016380D01*
X95146761Y-67159238D01*
X95051523Y-67254476D01*
X94956285Y-67302095D01*
%TO.C,J4*%
X70954380Y-70383333D02*
X71668666Y-70383333D01*
X71811523Y-70430952D01*
X71906761Y-70526190D01*
X71954380Y-70669047D01*
X71954380Y-70764285D01*
X71287714Y-69478571D02*
X71954380Y-69478571D01*
X70906761Y-69716666D02*
X71621047Y-69954761D01*
X71621047Y-69335714D01*
%TO.C,J3*%
X82130380Y-70383333D02*
X82844666Y-70383333D01*
X82987523Y-70430952D01*
X83082761Y-70526190D01*
X83130380Y-70669047D01*
X83130380Y-70764285D01*
X82130380Y-70002380D02*
X82130380Y-69383333D01*
X82511333Y-69716666D01*
X82511333Y-69573809D01*
X82558952Y-69478571D01*
X82606571Y-69430952D01*
X82701809Y-69383333D01*
X82939904Y-69383333D01*
X83035142Y-69430952D01*
X83082761Y-69478571D01*
X83130380Y-69573809D01*
X83130380Y-69859523D01*
X83082761Y-69954761D01*
X83035142Y-70002380D01*
%TO.C,J2*%
X68198380Y-70333333D02*
X68912666Y-70333333D01*
X69055523Y-70380952D01*
X69150761Y-70476190D01*
X69198380Y-70619047D01*
X69198380Y-70714285D01*
X68293619Y-69904761D02*
X68246000Y-69857142D01*
X68198380Y-69761904D01*
X68198380Y-69523809D01*
X68246000Y-69428571D01*
X68293619Y-69380952D01*
X68388857Y-69333333D01*
X68484095Y-69333333D01*
X68626952Y-69380952D01*
X69198380Y-69952380D01*
X69198380Y-69333333D01*
%TO.C,J1*%
X103298666Y-70318380D02*
X103298666Y-71032666D01*
X103251047Y-71175523D01*
X103155809Y-71270761D01*
X103012952Y-71318380D01*
X102917714Y-71318380D01*
X104298666Y-71318380D02*
X103727238Y-71318380D01*
X104012952Y-71318380D02*
X104012952Y-70318380D01*
X103917714Y-70461238D01*
X103822476Y-70556476D01*
X103727238Y-70604095D01*
%TO.C,FID4*%
X107894571Y-68889571D02*
X107561238Y-68889571D01*
X107561238Y-69413380D02*
X107561238Y-68413380D01*
X108037428Y-68413380D01*
X108418380Y-69413380D02*
X108418380Y-68413380D01*
X108894571Y-69413380D02*
X108894571Y-68413380D01*
X109132666Y-68413380D01*
X109275523Y-68461000D01*
X109370761Y-68556238D01*
X109418380Y-68651476D01*
X109466000Y-68841952D01*
X109466000Y-68984809D01*
X109418380Y-69175285D01*
X109370761Y-69270523D01*
X109275523Y-69365761D01*
X109132666Y-69413380D01*
X108894571Y-69413380D01*
X110323142Y-68746714D02*
X110323142Y-69413380D01*
X110085047Y-68365761D02*
X109846952Y-69080047D01*
X110466000Y-69080047D01*
%TO.C,FID3*%
X104592571Y-103560571D02*
X104259238Y-103560571D01*
X104259238Y-104084380D02*
X104259238Y-103084380D01*
X104735428Y-103084380D01*
X105116380Y-104084380D02*
X105116380Y-103084380D01*
X105592571Y-104084380D02*
X105592571Y-103084380D01*
X105830666Y-103084380D01*
X105973523Y-103132000D01*
X106068761Y-103227238D01*
X106116380Y-103322476D01*
X106164000Y-103512952D01*
X106164000Y-103655809D01*
X106116380Y-103846285D01*
X106068761Y-103941523D01*
X105973523Y-104036761D01*
X105830666Y-104084380D01*
X105592571Y-104084380D01*
X106497333Y-103084380D02*
X107116380Y-103084380D01*
X106783047Y-103465333D01*
X106925904Y-103465333D01*
X107021142Y-103512952D01*
X107068761Y-103560571D01*
X107116380Y-103655809D01*
X107116380Y-103893904D01*
X107068761Y-103989142D01*
X107021142Y-104036761D01*
X106925904Y-104084380D01*
X106640190Y-104084380D01*
X106544952Y-104036761D01*
X106497333Y-103989142D01*
%TO.C,FID2*%
X64079571Y-67428571D02*
X63746238Y-67428571D01*
X63746238Y-67952380D02*
X63746238Y-66952380D01*
X64222428Y-66952380D01*
X64603380Y-67952380D02*
X64603380Y-66952380D01*
X65079571Y-67952380D02*
X65079571Y-66952380D01*
X65317666Y-66952380D01*
X65460523Y-67000000D01*
X65555761Y-67095238D01*
X65603380Y-67190476D01*
X65651000Y-67380952D01*
X65651000Y-67523809D01*
X65603380Y-67714285D01*
X65555761Y-67809523D01*
X65460523Y-67904761D01*
X65317666Y-67952380D01*
X65079571Y-67952380D01*
X66031952Y-67047619D02*
X66079571Y-67000000D01*
X66174809Y-66952380D01*
X66412904Y-66952380D01*
X66508142Y-67000000D01*
X66555761Y-67047619D01*
X66603380Y-67142857D01*
X66603380Y-67238095D01*
X66555761Y-67380952D01*
X65984333Y-67952380D01*
X66603380Y-67952380D01*
%TO.C,FID1*%
X97988571Y-103560571D02*
X97655238Y-103560571D01*
X97655238Y-104084380D02*
X97655238Y-103084380D01*
X98131428Y-103084380D01*
X98512380Y-104084380D02*
X98512380Y-103084380D01*
X98988571Y-104084380D02*
X98988571Y-103084380D01*
X99226666Y-103084380D01*
X99369523Y-103132000D01*
X99464761Y-103227238D01*
X99512380Y-103322476D01*
X99560000Y-103512952D01*
X99560000Y-103655809D01*
X99512380Y-103846285D01*
X99464761Y-103941523D01*
X99369523Y-104036761D01*
X99226666Y-104084380D01*
X98988571Y-104084380D01*
X100512380Y-104084380D02*
X99940952Y-104084380D01*
X100226666Y-104084380D02*
X100226666Y-103084380D01*
X100131428Y-103227238D01*
X100036190Y-103322476D01*
X99940952Y-103370095D01*
%TD*%
M02*
