%TF.GenerationSoftware,KiCad,Pcbnew,(5.1.8)-1*%
%TF.CreationDate,2021-05-07T13:22:02+02:00*%
%TF.ProjectId,Inputs_Volante,496e7075-7473-45f5-966f-6c616e74652e,rev?*%
%TF.SameCoordinates,Original*%
%TF.FileFunction,Soldermask,Bot*%
%TF.FilePolarity,Negative*%
%FSLAX46Y46*%
G04 Gerber Fmt 4.6, Leading zero omitted, Abs format (unit mm)*
G04 Created by KiCad (PCBNEW (5.1.8)-1) date 2021-05-07 13:22:02*
%MOMM*%
%LPD*%
G01*
G04 APERTURE LIST*
%ADD10C,1.700000*%
%ADD11O,2.200000X1.700000*%
%ADD12O,1.600000X1.600000*%
%ADD13R,1.600000X1.600000*%
%ADD14C,0.100000*%
%ADD15R,1.500000X1.000000*%
%ADD16O,1.700000X2.200000*%
G04 APERTURE END LIST*
%TO.C, *%
G36*
G01*
X75113000Y-89634000D02*
X75113000Y-86134000D01*
G75*
G02*
X76863000Y-84384000I1750000J0D01*
G01*
X80363000Y-84384000D01*
G75*
G02*
X82113000Y-86134000I0J-1750000D01*
G01*
X82113000Y-89634000D01*
G75*
G02*
X80363000Y-91384000I-1750000J0D01*
G01*
X76863000Y-91384000D01*
G75*
G02*
X75113000Y-89634000I0J1750000D01*
G01*
G37*
%TD*%
D10*
%TO.C,J6*%
X58860000Y-90925000D03*
X58860000Y-98425000D03*
D11*
X66040000Y-90925000D03*
X66040000Y-93425000D03*
X66040000Y-95925000D03*
G36*
G01*
X67140000Y-97825000D02*
X67140000Y-99025000D01*
G75*
G02*
X66890000Y-99275000I-250000J0D01*
G01*
X65190000Y-99275000D01*
G75*
G02*
X64940000Y-99025000I0J250000D01*
G01*
X64940000Y-97825000D01*
G75*
G02*
X65190000Y-97575000I250000J0D01*
G01*
X66890000Y-97575000D01*
G75*
G02*
X67140000Y-97825000I0J-250000D01*
G01*
G37*
%TD*%
D10*
%TO.C,J5*%
X58860000Y-83352000D03*
X58860000Y-85852000D03*
D11*
X66040000Y-83352000D03*
G36*
G01*
X67140000Y-85252000D02*
X67140000Y-86452000D01*
G75*
G02*
X66890000Y-86702000I-250000J0D01*
G01*
X65190000Y-86702000D01*
G75*
G02*
X64940000Y-86452000I0J250000D01*
G01*
X64940000Y-85252000D01*
G75*
G02*
X65190000Y-85002000I250000J0D01*
G01*
X66890000Y-85002000D01*
G75*
G02*
X67140000Y-85252000I0J-250000D01*
G01*
G37*
%TD*%
D12*
%TO.C,A1*%
X108204000Y-82804000D03*
X108204000Y-98044000D03*
X72644000Y-82804000D03*
X105664000Y-98044000D03*
X75184000Y-82804000D03*
X103124000Y-98044000D03*
X77724000Y-82804000D03*
X100584000Y-98044000D03*
X80264000Y-82804000D03*
X98044000Y-98044000D03*
X82804000Y-82804000D03*
X95504000Y-98044000D03*
X85344000Y-82804000D03*
X92964000Y-98044000D03*
X87884000Y-82804000D03*
X90424000Y-98044000D03*
X90424000Y-82804000D03*
X87884000Y-98044000D03*
X92964000Y-82804000D03*
X85344000Y-98044000D03*
X95504000Y-82804000D03*
X82804000Y-98044000D03*
X98044000Y-82804000D03*
X80264000Y-98044000D03*
X100584000Y-82804000D03*
X77724000Y-98044000D03*
X103124000Y-82804000D03*
X75184000Y-98044000D03*
X105664000Y-82804000D03*
D13*
X72644000Y-98044000D03*
%TD*%
D14*
%TO.C,JP3*%
G36*
X71359000Y-95618398D02*
G01*
X71334466Y-95618398D01*
X71285635Y-95613588D01*
X71237510Y-95604016D01*
X71190555Y-95589772D01*
X71145222Y-95570995D01*
X71101949Y-95547864D01*
X71061150Y-95520604D01*
X71023221Y-95489476D01*
X70988524Y-95454779D01*
X70957396Y-95416850D01*
X70930136Y-95376051D01*
X70907005Y-95332778D01*
X70888228Y-95287445D01*
X70873984Y-95240490D01*
X70864412Y-95192365D01*
X70859602Y-95143534D01*
X70859602Y-95119000D01*
X70859000Y-95119000D01*
X70859000Y-94619000D01*
X70859602Y-94619000D01*
X70859602Y-94594466D01*
X70864412Y-94545635D01*
X70873984Y-94497510D01*
X70888228Y-94450555D01*
X70907005Y-94405222D01*
X70930136Y-94361949D01*
X70957396Y-94321150D01*
X70988524Y-94283221D01*
X71023221Y-94248524D01*
X71061150Y-94217396D01*
X71101949Y-94190136D01*
X71145222Y-94167005D01*
X71190555Y-94148228D01*
X71237510Y-94133984D01*
X71285635Y-94124412D01*
X71334466Y-94119602D01*
X71359000Y-94119602D01*
X71359000Y-94119000D01*
X71859000Y-94119000D01*
X71859000Y-95619000D01*
X71359000Y-95619000D01*
X71359000Y-95618398D01*
G37*
G36*
X72159000Y-94119000D02*
G01*
X72659000Y-94119000D01*
X72659000Y-94119602D01*
X72683534Y-94119602D01*
X72732365Y-94124412D01*
X72780490Y-94133984D01*
X72827445Y-94148228D01*
X72872778Y-94167005D01*
X72916051Y-94190136D01*
X72956850Y-94217396D01*
X72994779Y-94248524D01*
X73029476Y-94283221D01*
X73060604Y-94321150D01*
X73087864Y-94361949D01*
X73110995Y-94405222D01*
X73129772Y-94450555D01*
X73144016Y-94497510D01*
X73153588Y-94545635D01*
X73158398Y-94594466D01*
X73158398Y-94619000D01*
X73159000Y-94619000D01*
X73159000Y-95119000D01*
X73158398Y-95119000D01*
X73158398Y-95143534D01*
X73153588Y-95192365D01*
X73144016Y-95240490D01*
X73129772Y-95287445D01*
X73110995Y-95332778D01*
X73087864Y-95376051D01*
X73060604Y-95416850D01*
X73029476Y-95454779D01*
X72994779Y-95489476D01*
X72956850Y-95520604D01*
X72916051Y-95547864D01*
X72872778Y-95570995D01*
X72827445Y-95589772D01*
X72780490Y-95604016D01*
X72732365Y-95613588D01*
X72683534Y-95618398D01*
X72659000Y-95618398D01*
X72659000Y-95619000D01*
X72159000Y-95619000D01*
X72159000Y-94119000D01*
G37*
%TD*%
D15*
%TO.C,JP2*%
X71755000Y-91313000D03*
D14*
G36*
X72504398Y-92613000D02*
G01*
X72504398Y-92637534D01*
X72499588Y-92686365D01*
X72490016Y-92734490D01*
X72475772Y-92781445D01*
X72456995Y-92826778D01*
X72433864Y-92870051D01*
X72406604Y-92910850D01*
X72375476Y-92948779D01*
X72340779Y-92983476D01*
X72302850Y-93014604D01*
X72262051Y-93041864D01*
X72218778Y-93064995D01*
X72173445Y-93083772D01*
X72126490Y-93098016D01*
X72078365Y-93107588D01*
X72029534Y-93112398D01*
X72005000Y-93112398D01*
X72005000Y-93113000D01*
X71505000Y-93113000D01*
X71505000Y-93112398D01*
X71480466Y-93112398D01*
X71431635Y-93107588D01*
X71383510Y-93098016D01*
X71336555Y-93083772D01*
X71291222Y-93064995D01*
X71247949Y-93041864D01*
X71207150Y-93014604D01*
X71169221Y-92983476D01*
X71134524Y-92948779D01*
X71103396Y-92910850D01*
X71076136Y-92870051D01*
X71053005Y-92826778D01*
X71034228Y-92781445D01*
X71019984Y-92734490D01*
X71010412Y-92686365D01*
X71005602Y-92637534D01*
X71005602Y-92613000D01*
X71005000Y-92613000D01*
X71005000Y-92063000D01*
X72505000Y-92063000D01*
X72505000Y-92613000D01*
X72504398Y-92613000D01*
G37*
G36*
X71005000Y-90563000D02*
G01*
X71005000Y-90013000D01*
X71005602Y-90013000D01*
X71005602Y-89988466D01*
X71010412Y-89939635D01*
X71019984Y-89891510D01*
X71034228Y-89844555D01*
X71053005Y-89799222D01*
X71076136Y-89755949D01*
X71103396Y-89715150D01*
X71134524Y-89677221D01*
X71169221Y-89642524D01*
X71207150Y-89611396D01*
X71247949Y-89584136D01*
X71291222Y-89561005D01*
X71336555Y-89542228D01*
X71383510Y-89527984D01*
X71431635Y-89518412D01*
X71480466Y-89513602D01*
X71505000Y-89513602D01*
X71505000Y-89513000D01*
X72005000Y-89513000D01*
X72005000Y-89513602D01*
X72029534Y-89513602D01*
X72078365Y-89518412D01*
X72126490Y-89527984D01*
X72173445Y-89542228D01*
X72218778Y-89561005D01*
X72262051Y-89584136D01*
X72302850Y-89611396D01*
X72340779Y-89642524D01*
X72375476Y-89677221D01*
X72406604Y-89715150D01*
X72433864Y-89755949D01*
X72456995Y-89799222D01*
X72475772Y-89844555D01*
X72490016Y-89891510D01*
X72499588Y-89939635D01*
X72504398Y-89988466D01*
X72504398Y-90013000D01*
X72505000Y-90013000D01*
X72505000Y-90563000D01*
X71005000Y-90563000D01*
G37*
%TD*%
D15*
%TO.C,JP1*%
X71755000Y-86487000D03*
D14*
G36*
X72504398Y-87787000D02*
G01*
X72504398Y-87811534D01*
X72499588Y-87860365D01*
X72490016Y-87908490D01*
X72475772Y-87955445D01*
X72456995Y-88000778D01*
X72433864Y-88044051D01*
X72406604Y-88084850D01*
X72375476Y-88122779D01*
X72340779Y-88157476D01*
X72302850Y-88188604D01*
X72262051Y-88215864D01*
X72218778Y-88238995D01*
X72173445Y-88257772D01*
X72126490Y-88272016D01*
X72078365Y-88281588D01*
X72029534Y-88286398D01*
X72005000Y-88286398D01*
X72005000Y-88287000D01*
X71505000Y-88287000D01*
X71505000Y-88286398D01*
X71480466Y-88286398D01*
X71431635Y-88281588D01*
X71383510Y-88272016D01*
X71336555Y-88257772D01*
X71291222Y-88238995D01*
X71247949Y-88215864D01*
X71207150Y-88188604D01*
X71169221Y-88157476D01*
X71134524Y-88122779D01*
X71103396Y-88084850D01*
X71076136Y-88044051D01*
X71053005Y-88000778D01*
X71034228Y-87955445D01*
X71019984Y-87908490D01*
X71010412Y-87860365D01*
X71005602Y-87811534D01*
X71005602Y-87787000D01*
X71005000Y-87787000D01*
X71005000Y-87237000D01*
X72505000Y-87237000D01*
X72505000Y-87787000D01*
X72504398Y-87787000D01*
G37*
G36*
X71005000Y-85737000D02*
G01*
X71005000Y-85187000D01*
X71005602Y-85187000D01*
X71005602Y-85162466D01*
X71010412Y-85113635D01*
X71019984Y-85065510D01*
X71034228Y-85018555D01*
X71053005Y-84973222D01*
X71076136Y-84929949D01*
X71103396Y-84889150D01*
X71134524Y-84851221D01*
X71169221Y-84816524D01*
X71207150Y-84785396D01*
X71247949Y-84758136D01*
X71291222Y-84735005D01*
X71336555Y-84716228D01*
X71383510Y-84701984D01*
X71431635Y-84692412D01*
X71480466Y-84687602D01*
X71505000Y-84687602D01*
X71505000Y-84687000D01*
X72005000Y-84687000D01*
X72005000Y-84687602D01*
X72029534Y-84687602D01*
X72078365Y-84692412D01*
X72126490Y-84701984D01*
X72173445Y-84716228D01*
X72218778Y-84735005D01*
X72262051Y-84758136D01*
X72302850Y-84785396D01*
X72340779Y-84816524D01*
X72375476Y-84851221D01*
X72406604Y-84889150D01*
X72433864Y-84929949D01*
X72456995Y-84973222D01*
X72475772Y-85018555D01*
X72490016Y-85065510D01*
X72499588Y-85113635D01*
X72504398Y-85162466D01*
X72504398Y-85187000D01*
X72505000Y-85187000D01*
X72505000Y-85737000D01*
X71005000Y-85737000D01*
G37*
%TD*%
D10*
%TO.C,J4*%
X79422000Y-69020000D03*
X74422000Y-69020000D03*
D16*
X79422000Y-76200000D03*
X76922000Y-76200000D03*
G36*
G01*
X75022000Y-77300000D02*
X73822000Y-77300000D01*
G75*
G02*
X73572000Y-77050000I0J250000D01*
G01*
X73572000Y-75350000D01*
G75*
G02*
X73822000Y-75100000I250000J0D01*
G01*
X75022000Y-75100000D01*
G75*
G02*
X75272000Y-75350000I0J-250000D01*
G01*
X75272000Y-77050000D01*
G75*
G02*
X75022000Y-77300000I-250000J0D01*
G01*
G37*
%TD*%
D10*
%TO.C,J3*%
X90598000Y-69020000D03*
X85598000Y-69020000D03*
D16*
X90598000Y-76200000D03*
X88098000Y-76200000D03*
G36*
G01*
X86198000Y-77300000D02*
X84998000Y-77300000D01*
G75*
G02*
X84748000Y-77050000I0J250000D01*
G01*
X84748000Y-75350000D01*
G75*
G02*
X84998000Y-75100000I250000J0D01*
G01*
X86198000Y-75100000D01*
G75*
G02*
X86448000Y-75350000I0J-250000D01*
G01*
X86448000Y-77050000D01*
G75*
G02*
X86198000Y-77300000I-250000J0D01*
G01*
G37*
%TD*%
D10*
%TO.C,J2*%
X58860000Y-71367000D03*
X58860000Y-78867000D03*
D11*
X66040000Y-71367000D03*
X66040000Y-73867000D03*
X66040000Y-76367000D03*
G36*
G01*
X67140000Y-78267000D02*
X67140000Y-79467000D01*
G75*
G02*
X66890000Y-79717000I-250000J0D01*
G01*
X65190000Y-79717000D01*
G75*
G02*
X64940000Y-79467000I0J250000D01*
G01*
X64940000Y-78267000D01*
G75*
G02*
X65190000Y-78017000I250000J0D01*
G01*
X66890000Y-78017000D01*
G75*
G02*
X67140000Y-78267000I0J-250000D01*
G01*
G37*
%TD*%
D10*
%TO.C,J1*%
X111320000Y-76414000D03*
X111320000Y-73914000D03*
D11*
X104140000Y-76414000D03*
G36*
G01*
X103040000Y-74514000D02*
X103040000Y-73314000D01*
G75*
G02*
X103290000Y-73064000I250000J0D01*
G01*
X104990000Y-73064000D01*
G75*
G02*
X105240000Y-73314000I0J-250000D01*
G01*
X105240000Y-74514000D01*
G75*
G02*
X104990000Y-74764000I-250000J0D01*
G01*
X103290000Y-74764000D01*
G75*
G02*
X103040000Y-74514000I0J250000D01*
G01*
G37*
%TD*%
M02*
