%TF.GenerationSoftware,KiCad,Pcbnew,(5.1.8)-1*%
%TF.CreationDate,2021-05-07T13:22:02+02:00*%
%TF.ProjectId,Inputs_Volante,496e7075-7473-45f5-966f-6c616e74652e,rev?*%
%TF.SameCoordinates,Original*%
%TF.FileFunction,Copper,L2,Bot*%
%TF.FilePolarity,Positive*%
%FSLAX46Y46*%
G04 Gerber Fmt 4.6, Leading zero omitted, Abs format (unit mm)*
G04 Created by KiCad (PCBNEW (5.1.8)-1) date 2021-05-07 13:22:02*
%MOMM*%
%LPD*%
G01*
G04 APERTURE LIST*
%TA.AperFunction,ComponentPad*%
%ADD10O,2.200000X1.700000*%
%TD*%
%TA.AperFunction,ComponentPad*%
%ADD11O,1.600000X1.600000*%
%TD*%
%TA.AperFunction,ComponentPad*%
%ADD12R,1.600000X1.600000*%
%TD*%
%TA.AperFunction,SMDPad,CuDef*%
%ADD13C,0.100000*%
%TD*%
%TA.AperFunction,SMDPad,CuDef*%
%ADD14R,1.500000X1.000000*%
%TD*%
%TA.AperFunction,ComponentPad*%
%ADD15O,1.700000X2.200000*%
%TD*%
%TA.AperFunction,ViaPad*%
%ADD16C,0.800000*%
%TD*%
%TA.AperFunction,Conductor*%
%ADD17C,0.500000*%
%TD*%
%TA.AperFunction,Conductor*%
%ADD18C,0.250000*%
%TD*%
%TA.AperFunction,Conductor*%
%ADD19C,0.254000*%
%TD*%
%TA.AperFunction,Conductor*%
%ADD20C,0.100000*%
%TD*%
G04 APERTURE END LIST*
%TO.P, ,1*%
%TO.N,N/C*%
%TA.AperFunction,ComponentPad*%
G36*
G01*
X75113000Y-89634000D02*
X75113000Y-86134000D01*
G75*
G02*
X76863000Y-84384000I1750000J0D01*
G01*
X80363000Y-84384000D01*
G75*
G02*
X82113000Y-86134000I0J-1750000D01*
G01*
X82113000Y-89634000D01*
G75*
G02*
X80363000Y-91384000I-1750000J0D01*
G01*
X76863000Y-91384000D01*
G75*
G02*
X75113000Y-89634000I0J1750000D01*
G01*
G37*
%TD.AperFunction*%
%TD*%
D10*
%TO.P,J6,4*%
%TO.N,Btn0*%
X66040000Y-90925000D03*
%TO.P,J6,3*%
%TO.N,Btn1*%
X66040000Y-93425000D03*
%TO.P,J6,2*%
%TO.N,Btn2*%
X66040000Y-95925000D03*
%TO.P,J6,1*%
%TO.N,Btn3*%
%TA.AperFunction,ComponentPad*%
G36*
G01*
X67140000Y-97825000D02*
X67140000Y-99025000D01*
G75*
G02*
X66890000Y-99275000I-250000J0D01*
G01*
X65190000Y-99275000D01*
G75*
G02*
X64940000Y-99025000I0J250000D01*
G01*
X64940000Y-97825000D01*
G75*
G02*
X65190000Y-97575000I250000J0D01*
G01*
X66890000Y-97575000D01*
G75*
G02*
X67140000Y-97825000I0J-250000D01*
G01*
G37*
%TD.AperFunction*%
%TD*%
%TO.P,J5,2*%
%TO.N,GND*%
X66040000Y-83352000D03*
%TO.P,J5,1*%
%TO.N,VCC*%
%TA.AperFunction,ComponentPad*%
G36*
G01*
X67140000Y-85252000D02*
X67140000Y-86452000D01*
G75*
G02*
X66890000Y-86702000I-250000J0D01*
G01*
X65190000Y-86702000D01*
G75*
G02*
X64940000Y-86452000I0J250000D01*
G01*
X64940000Y-85252000D01*
G75*
G02*
X65190000Y-85002000I250000J0D01*
G01*
X66890000Y-85002000D01*
G75*
G02*
X67140000Y-85252000I0J-250000D01*
G01*
G37*
%TD.AperFunction*%
%TD*%
D11*
%TO.P,A1,16*%
%TO.N,Net-(A1-Pad16)*%
X108204000Y-82804000D03*
%TO.P,A1,15*%
%TO.N,Net-(A1-Pad15)*%
X108204000Y-98044000D03*
%TO.P,A1,30*%
%TO.N,+12V*%
X72644000Y-82804000D03*
%TO.P,A1,14*%
%TO.N,Net-(A1-Pad14)*%
X105664000Y-98044000D03*
%TO.P,A1,29*%
%TO.N,GND*%
X75184000Y-82804000D03*
%TO.P,A1,13*%
%TO.N,Net-(A1-Pad13)*%
X103124000Y-98044000D03*
%TO.P,A1,28*%
%TO.N,Net-(A1-Pad28)*%
X77724000Y-82804000D03*
%TO.P,A1,12*%
%TO.N,Net-(A1-Pad12)*%
X100584000Y-98044000D03*
%TO.P,A1,27*%
%TO.N,VCC*%
X80264000Y-82804000D03*
%TO.P,A1,11*%
%TO.N,Net-(A1-Pad11)*%
X98044000Y-98044000D03*
%TO.P,A1,26*%
%TO.N,Net-(A1-Pad26)*%
X82804000Y-82804000D03*
%TO.P,A1,10*%
%TO.N,Net-(A1-Pad10)*%
X95504000Y-98044000D03*
%TO.P,A1,25*%
%TO.N,Net-(A1-Pad25)*%
X85344000Y-82804000D03*
%TO.P,A1,9*%
%TO.N,Net-(A1-Pad9)*%
X92964000Y-98044000D03*
%TO.P,A1,24*%
%TO.N,SCL*%
X87884000Y-82804000D03*
%TO.P,A1,8*%
%TO.N,Btn3*%
X90424000Y-98044000D03*
%TO.P,A1,23*%
%TO.N,SDA*%
X90424000Y-82804000D03*
%TO.P,A1,7*%
%TO.N,Btn2*%
X87884000Y-98044000D03*
%TO.P,A1,22*%
%TO.N,Net-(A1-Pad22)*%
X92964000Y-82804000D03*
%TO.P,A1,6*%
%TO.N,Btn1*%
X85344000Y-98044000D03*
%TO.P,A1,21*%
%TO.N,Net-(A1-Pad21)*%
X95504000Y-82804000D03*
%TO.P,A1,5*%
%TO.N,Btn0*%
X82804000Y-98044000D03*
%TO.P,A1,20*%
%TO.N,Enco1_D*%
X98044000Y-82804000D03*
%TO.P,A1,4*%
%TO.N,GND*%
X80264000Y-98044000D03*
%TO.P,A1,19*%
%TO.N,Enco0_D*%
X100584000Y-82804000D03*
%TO.P,A1,3*%
%TO.N,Net-(A1-Pad3)*%
X77724000Y-98044000D03*
%TO.P,A1,18*%
%TO.N,Net-(A1-Pad18)*%
X103124000Y-82804000D03*
%TO.P,A1,2*%
%TO.N,RX*%
X75184000Y-98044000D03*
%TO.P,A1,17*%
%TO.N,Net-(A1-Pad17)*%
X105664000Y-82804000D03*
D12*
%TO.P,A1,1*%
%TO.N,TX*%
X72644000Y-98044000D03*
%TD*%
%TA.AperFunction,SMDPad,CuDef*%
D13*
%TO.P,JP3,2*%
%TO.N,Net-(J2-Pad1)*%
G36*
X71359000Y-95618398D02*
G01*
X71334466Y-95618398D01*
X71285635Y-95613588D01*
X71237510Y-95604016D01*
X71190555Y-95589772D01*
X71145222Y-95570995D01*
X71101949Y-95547864D01*
X71061150Y-95520604D01*
X71023221Y-95489476D01*
X70988524Y-95454779D01*
X70957396Y-95416850D01*
X70930136Y-95376051D01*
X70907005Y-95332778D01*
X70888228Y-95287445D01*
X70873984Y-95240490D01*
X70864412Y-95192365D01*
X70859602Y-95143534D01*
X70859602Y-95119000D01*
X70859000Y-95119000D01*
X70859000Y-94619000D01*
X70859602Y-94619000D01*
X70859602Y-94594466D01*
X70864412Y-94545635D01*
X70873984Y-94497510D01*
X70888228Y-94450555D01*
X70907005Y-94405222D01*
X70930136Y-94361949D01*
X70957396Y-94321150D01*
X70988524Y-94283221D01*
X71023221Y-94248524D01*
X71061150Y-94217396D01*
X71101949Y-94190136D01*
X71145222Y-94167005D01*
X71190555Y-94148228D01*
X71237510Y-94133984D01*
X71285635Y-94124412D01*
X71334466Y-94119602D01*
X71359000Y-94119602D01*
X71359000Y-94119000D01*
X71859000Y-94119000D01*
X71859000Y-95619000D01*
X71359000Y-95619000D01*
X71359000Y-95618398D01*
G37*
%TD.AperFunction*%
%TA.AperFunction,SMDPad,CuDef*%
%TO.P,JP3,1*%
%TO.N,VCC*%
G36*
X72159000Y-94119000D02*
G01*
X72659000Y-94119000D01*
X72659000Y-94119602D01*
X72683534Y-94119602D01*
X72732365Y-94124412D01*
X72780490Y-94133984D01*
X72827445Y-94148228D01*
X72872778Y-94167005D01*
X72916051Y-94190136D01*
X72956850Y-94217396D01*
X72994779Y-94248524D01*
X73029476Y-94283221D01*
X73060604Y-94321150D01*
X73087864Y-94361949D01*
X73110995Y-94405222D01*
X73129772Y-94450555D01*
X73144016Y-94497510D01*
X73153588Y-94545635D01*
X73158398Y-94594466D01*
X73158398Y-94619000D01*
X73159000Y-94619000D01*
X73159000Y-95119000D01*
X73158398Y-95119000D01*
X73158398Y-95143534D01*
X73153588Y-95192365D01*
X73144016Y-95240490D01*
X73129772Y-95287445D01*
X73110995Y-95332778D01*
X73087864Y-95376051D01*
X73060604Y-95416850D01*
X73029476Y-95454779D01*
X72994779Y-95489476D01*
X72956850Y-95520604D01*
X72916051Y-95547864D01*
X72872778Y-95570995D01*
X72827445Y-95589772D01*
X72780490Y-95604016D01*
X72732365Y-95613588D01*
X72683534Y-95618398D01*
X72659000Y-95618398D01*
X72659000Y-95619000D01*
X72159000Y-95619000D01*
X72159000Y-94119000D01*
G37*
%TD.AperFunction*%
%TD*%
D14*
%TO.P,JP2,2*%
%TO.N,Net-(J2-Pad2)*%
X71755000Y-91313000D03*
%TA.AperFunction,SMDPad,CuDef*%
D13*
%TO.P,JP2,3*%
%TO.N,SDA*%
G36*
X72504398Y-92613000D02*
G01*
X72504398Y-92637534D01*
X72499588Y-92686365D01*
X72490016Y-92734490D01*
X72475772Y-92781445D01*
X72456995Y-92826778D01*
X72433864Y-92870051D01*
X72406604Y-92910850D01*
X72375476Y-92948779D01*
X72340779Y-92983476D01*
X72302850Y-93014604D01*
X72262051Y-93041864D01*
X72218778Y-93064995D01*
X72173445Y-93083772D01*
X72126490Y-93098016D01*
X72078365Y-93107588D01*
X72029534Y-93112398D01*
X72005000Y-93112398D01*
X72005000Y-93113000D01*
X71505000Y-93113000D01*
X71505000Y-93112398D01*
X71480466Y-93112398D01*
X71431635Y-93107588D01*
X71383510Y-93098016D01*
X71336555Y-93083772D01*
X71291222Y-93064995D01*
X71247949Y-93041864D01*
X71207150Y-93014604D01*
X71169221Y-92983476D01*
X71134524Y-92948779D01*
X71103396Y-92910850D01*
X71076136Y-92870051D01*
X71053005Y-92826778D01*
X71034228Y-92781445D01*
X71019984Y-92734490D01*
X71010412Y-92686365D01*
X71005602Y-92637534D01*
X71005602Y-92613000D01*
X71005000Y-92613000D01*
X71005000Y-92063000D01*
X72505000Y-92063000D01*
X72505000Y-92613000D01*
X72504398Y-92613000D01*
G37*
%TD.AperFunction*%
%TA.AperFunction,SMDPad,CuDef*%
%TO.P,JP2,1*%
%TO.N,TX*%
G36*
X71005000Y-90563000D02*
G01*
X71005000Y-90013000D01*
X71005602Y-90013000D01*
X71005602Y-89988466D01*
X71010412Y-89939635D01*
X71019984Y-89891510D01*
X71034228Y-89844555D01*
X71053005Y-89799222D01*
X71076136Y-89755949D01*
X71103396Y-89715150D01*
X71134524Y-89677221D01*
X71169221Y-89642524D01*
X71207150Y-89611396D01*
X71247949Y-89584136D01*
X71291222Y-89561005D01*
X71336555Y-89542228D01*
X71383510Y-89527984D01*
X71431635Y-89518412D01*
X71480466Y-89513602D01*
X71505000Y-89513602D01*
X71505000Y-89513000D01*
X72005000Y-89513000D01*
X72005000Y-89513602D01*
X72029534Y-89513602D01*
X72078365Y-89518412D01*
X72126490Y-89527984D01*
X72173445Y-89542228D01*
X72218778Y-89561005D01*
X72262051Y-89584136D01*
X72302850Y-89611396D01*
X72340779Y-89642524D01*
X72375476Y-89677221D01*
X72406604Y-89715150D01*
X72433864Y-89755949D01*
X72456995Y-89799222D01*
X72475772Y-89844555D01*
X72490016Y-89891510D01*
X72499588Y-89939635D01*
X72504398Y-89988466D01*
X72504398Y-90013000D01*
X72505000Y-90013000D01*
X72505000Y-90563000D01*
X71005000Y-90563000D01*
G37*
%TD.AperFunction*%
%TD*%
D14*
%TO.P,JP1,2*%
%TO.N,Net-(J2-Pad3)*%
X71755000Y-86487000D03*
%TA.AperFunction,SMDPad,CuDef*%
D13*
%TO.P,JP1,3*%
%TO.N,RX*%
G36*
X72504398Y-87787000D02*
G01*
X72504398Y-87811534D01*
X72499588Y-87860365D01*
X72490016Y-87908490D01*
X72475772Y-87955445D01*
X72456995Y-88000778D01*
X72433864Y-88044051D01*
X72406604Y-88084850D01*
X72375476Y-88122779D01*
X72340779Y-88157476D01*
X72302850Y-88188604D01*
X72262051Y-88215864D01*
X72218778Y-88238995D01*
X72173445Y-88257772D01*
X72126490Y-88272016D01*
X72078365Y-88281588D01*
X72029534Y-88286398D01*
X72005000Y-88286398D01*
X72005000Y-88287000D01*
X71505000Y-88287000D01*
X71505000Y-88286398D01*
X71480466Y-88286398D01*
X71431635Y-88281588D01*
X71383510Y-88272016D01*
X71336555Y-88257772D01*
X71291222Y-88238995D01*
X71247949Y-88215864D01*
X71207150Y-88188604D01*
X71169221Y-88157476D01*
X71134524Y-88122779D01*
X71103396Y-88084850D01*
X71076136Y-88044051D01*
X71053005Y-88000778D01*
X71034228Y-87955445D01*
X71019984Y-87908490D01*
X71010412Y-87860365D01*
X71005602Y-87811534D01*
X71005602Y-87787000D01*
X71005000Y-87787000D01*
X71005000Y-87237000D01*
X72505000Y-87237000D01*
X72505000Y-87787000D01*
X72504398Y-87787000D01*
G37*
%TD.AperFunction*%
%TA.AperFunction,SMDPad,CuDef*%
%TO.P,JP1,1*%
%TO.N,SCL*%
G36*
X71005000Y-85737000D02*
G01*
X71005000Y-85187000D01*
X71005602Y-85187000D01*
X71005602Y-85162466D01*
X71010412Y-85113635D01*
X71019984Y-85065510D01*
X71034228Y-85018555D01*
X71053005Y-84973222D01*
X71076136Y-84929949D01*
X71103396Y-84889150D01*
X71134524Y-84851221D01*
X71169221Y-84816524D01*
X71207150Y-84785396D01*
X71247949Y-84758136D01*
X71291222Y-84735005D01*
X71336555Y-84716228D01*
X71383510Y-84701984D01*
X71431635Y-84692412D01*
X71480466Y-84687602D01*
X71505000Y-84687602D01*
X71505000Y-84687000D01*
X72005000Y-84687000D01*
X72005000Y-84687602D01*
X72029534Y-84687602D01*
X72078365Y-84692412D01*
X72126490Y-84701984D01*
X72173445Y-84716228D01*
X72218778Y-84735005D01*
X72262051Y-84758136D01*
X72302850Y-84785396D01*
X72340779Y-84816524D01*
X72375476Y-84851221D01*
X72406604Y-84889150D01*
X72433864Y-84929949D01*
X72456995Y-84973222D01*
X72475772Y-85018555D01*
X72490016Y-85065510D01*
X72499588Y-85113635D01*
X72504398Y-85162466D01*
X72504398Y-85187000D01*
X72505000Y-85187000D01*
X72505000Y-85737000D01*
X71005000Y-85737000D01*
G37*
%TD.AperFunction*%
%TD*%
D15*
%TO.P,J4,3*%
%TO.N,VCC*%
X79422000Y-76200000D03*
%TO.P,J4,2*%
%TO.N,Enco1_D*%
X76922000Y-76200000D03*
%TO.P,J4,1*%
%TO.N,GND*%
%TA.AperFunction,ComponentPad*%
G36*
G01*
X75022000Y-77300000D02*
X73822000Y-77300000D01*
G75*
G02*
X73572000Y-77050000I0J250000D01*
G01*
X73572000Y-75350000D01*
G75*
G02*
X73822000Y-75100000I250000J0D01*
G01*
X75022000Y-75100000D01*
G75*
G02*
X75272000Y-75350000I0J-250000D01*
G01*
X75272000Y-77050000D01*
G75*
G02*
X75022000Y-77300000I-250000J0D01*
G01*
G37*
%TD.AperFunction*%
%TD*%
%TO.P,J3,3*%
%TO.N,VCC*%
X90598000Y-76200000D03*
%TO.P,J3,2*%
%TO.N,Enco0_D*%
X88098000Y-76200000D03*
%TO.P,J3,1*%
%TO.N,GND*%
%TA.AperFunction,ComponentPad*%
G36*
G01*
X86198000Y-77300000D02*
X84998000Y-77300000D01*
G75*
G02*
X84748000Y-77050000I0J250000D01*
G01*
X84748000Y-75350000D01*
G75*
G02*
X84998000Y-75100000I250000J0D01*
G01*
X86198000Y-75100000D01*
G75*
G02*
X86448000Y-75350000I0J-250000D01*
G01*
X86448000Y-77050000D01*
G75*
G02*
X86198000Y-77300000I-250000J0D01*
G01*
G37*
%TD.AperFunction*%
%TD*%
D10*
%TO.P,J2,4*%
%TO.N,GND*%
X66040000Y-71367000D03*
%TO.P,J2,3*%
%TO.N,Net-(J2-Pad3)*%
X66040000Y-73867000D03*
%TO.P,J2,2*%
%TO.N,Net-(J2-Pad2)*%
X66040000Y-76367000D03*
%TO.P,J2,1*%
%TO.N,Net-(J2-Pad1)*%
%TA.AperFunction,ComponentPad*%
G36*
G01*
X67140000Y-78267000D02*
X67140000Y-79467000D01*
G75*
G02*
X66890000Y-79717000I-250000J0D01*
G01*
X65190000Y-79717000D01*
G75*
G02*
X64940000Y-79467000I0J250000D01*
G01*
X64940000Y-78267000D01*
G75*
G02*
X65190000Y-78017000I250000J0D01*
G01*
X66890000Y-78017000D01*
G75*
G02*
X67140000Y-78267000I0J-250000D01*
G01*
G37*
%TD.AperFunction*%
%TD*%
%TO.P,J1,2*%
%TO.N,GND*%
X104140000Y-76414000D03*
%TO.P,J1,1*%
%TO.N,+12V*%
%TA.AperFunction,ComponentPad*%
G36*
G01*
X103040000Y-74514000D02*
X103040000Y-73314000D01*
G75*
G02*
X103290000Y-73064000I250000J0D01*
G01*
X104990000Y-73064000D01*
G75*
G02*
X105240000Y-73314000I0J-250000D01*
G01*
X105240000Y-74514000D01*
G75*
G02*
X104990000Y-74764000I-250000J0D01*
G01*
X103290000Y-74764000D01*
G75*
G02*
X103040000Y-74514000I0J250000D01*
G01*
G37*
%TD.AperFunction*%
%TD*%
D16*
%TO.N,*%
X80772000Y-85344000D03*
X78740000Y-85344000D03*
X76708000Y-85344000D03*
X76708000Y-87884000D03*
X76708000Y-90424000D03*
X78740000Y-90424000D03*
X80772000Y-90424000D03*
X80772000Y-87884000D03*
X79756000Y-86360000D03*
X77724000Y-86360000D03*
X77724000Y-89408000D03*
X79756000Y-89408000D03*
%TO.N,+12V*%
X96583500Y-71691500D03*
%TO.N,RX*%
X73787000Y-88011000D03*
%TO.N,TX*%
X73406000Y-90043000D03*
%TD*%
D17*
%TO.N,+12V*%
X96583500Y-71691500D02*
X73596500Y-71691500D01*
X73596500Y-71691500D02*
X72644000Y-72644000D01*
X72644000Y-72644000D02*
X72644000Y-82677000D01*
D18*
%TO.N,SCL*%
X87884000Y-82804000D02*
X87884000Y-94107000D01*
X86995000Y-94996000D02*
X78232000Y-94996000D01*
X87884000Y-94107000D02*
X86995000Y-94996000D01*
X78232000Y-94996000D02*
X74639002Y-91403002D01*
X74639002Y-91403002D02*
X74639002Y-86704002D01*
X74639002Y-86704002D02*
X74639002Y-86069002D01*
X74639002Y-86069002D02*
X73787000Y-85217000D01*
X73787000Y-85217000D02*
X71755000Y-85217000D01*
%TO.N,SDA*%
X90424000Y-94615000D02*
X89535000Y-95504000D01*
X89535000Y-95504000D02*
X76454000Y-95504000D01*
X76454000Y-95504000D02*
X73660000Y-92710000D01*
X73660000Y-92710000D02*
X72644000Y-92710000D01*
X72644000Y-92710000D02*
X71882000Y-92710000D01*
X90424000Y-82804000D02*
X90424000Y-94615000D01*
%TO.N,Enco1_D*%
X76922000Y-76200000D02*
X81494000Y-80772000D01*
X81494000Y-80772000D02*
X96266000Y-80772000D01*
X96266000Y-80772000D02*
X98171000Y-82677000D01*
X98171000Y-82677000D02*
X98171000Y-82550000D01*
X98171000Y-82550000D02*
X98044000Y-82550000D01*
%TO.N,Enco0_D*%
X100584000Y-82804000D02*
X97663000Y-79883000D01*
X97663000Y-79883000D02*
X92369285Y-79883000D01*
X92369285Y-79883000D02*
X91567000Y-79883000D01*
X91567000Y-79883000D02*
X88011000Y-76327000D01*
%TO.N,RX*%
X73563000Y-87787000D02*
X73787000Y-88011000D01*
X71755000Y-87787000D02*
X73563000Y-87787000D01*
%TO.N,TX*%
X73376000Y-90013000D02*
X73406000Y-90043000D01*
X71755000Y-90013000D02*
X73376000Y-90013000D01*
%TO.N,Net-(J2-Pad3)*%
X70485000Y-77597000D02*
X66548000Y-73660000D01*
X70485000Y-86360000D02*
X70485000Y-77597000D01*
X70612000Y-86487000D02*
X70485000Y-86360000D01*
X71755000Y-86487000D02*
X70612000Y-86487000D01*
%TO.N,Net-(J2-Pad2)*%
X69858000Y-89654000D02*
X69858000Y-77732000D01*
X69858000Y-77732000D02*
X68580000Y-76454000D01*
X68580000Y-76454000D02*
X66294000Y-76454000D01*
X69858000Y-89875636D02*
X69850000Y-89883636D01*
X69858000Y-89654000D02*
X69858000Y-89875636D01*
X69850000Y-89883636D02*
X69850000Y-90805000D01*
X69850000Y-90805000D02*
X70358000Y-91313000D01*
X70358000Y-91313000D02*
X71882000Y-91313000D01*
D17*
%TO.N,Net-(J2-Pad1)*%
X66294000Y-78867000D02*
X66484500Y-79057500D01*
X68893989Y-91641989D02*
X68893989Y-81466989D01*
X68893989Y-81466989D02*
X66294000Y-78867000D01*
X68893989Y-91641989D02*
X68893989Y-93531989D01*
X68893989Y-93531989D02*
X70231000Y-94869000D01*
X70231000Y-94869000D02*
X71374000Y-94869000D01*
%TD*%
D19*
%TO.N,VCC*%
X68566634Y-65753796D02*
X68243901Y-65969439D01*
X67969439Y-66243901D01*
X67753796Y-66566634D01*
X67605258Y-66925236D01*
X67529534Y-67305926D01*
X67529534Y-67694074D01*
X67605258Y-68074764D01*
X67753796Y-68433366D01*
X67969439Y-68756099D01*
X68243901Y-69030561D01*
X68566634Y-69246204D01*
X68925236Y-69394742D01*
X69305926Y-69470466D01*
X69694074Y-69470466D01*
X70074764Y-69394742D01*
X70433366Y-69246204D01*
X70756099Y-69030561D01*
X70912920Y-68873740D01*
X72937000Y-68873740D01*
X72937000Y-69166260D01*
X72994068Y-69453158D01*
X73106010Y-69723411D01*
X73268525Y-69966632D01*
X73475368Y-70173475D01*
X73718589Y-70335990D01*
X73988842Y-70447932D01*
X74275740Y-70505000D01*
X74568260Y-70505000D01*
X74855158Y-70447932D01*
X75125411Y-70335990D01*
X75368632Y-70173475D01*
X75575475Y-69966632D01*
X75737990Y-69723411D01*
X75849932Y-69453158D01*
X75907000Y-69166260D01*
X75907000Y-68873740D01*
X77937000Y-68873740D01*
X77937000Y-69166260D01*
X77994068Y-69453158D01*
X78106010Y-69723411D01*
X78268525Y-69966632D01*
X78475368Y-70173475D01*
X78718589Y-70335990D01*
X78988842Y-70447932D01*
X79275740Y-70505000D01*
X79568260Y-70505000D01*
X79855158Y-70447932D01*
X80125411Y-70335990D01*
X80368632Y-70173475D01*
X80575475Y-69966632D01*
X80737990Y-69723411D01*
X80849932Y-69453158D01*
X80907000Y-69166260D01*
X80907000Y-68873740D01*
X84113000Y-68873740D01*
X84113000Y-69166260D01*
X84170068Y-69453158D01*
X84282010Y-69723411D01*
X84444525Y-69966632D01*
X84651368Y-70173475D01*
X84894589Y-70335990D01*
X85164842Y-70447932D01*
X85451740Y-70505000D01*
X85744260Y-70505000D01*
X86031158Y-70447932D01*
X86301411Y-70335990D01*
X86544632Y-70173475D01*
X86751475Y-69966632D01*
X86913990Y-69723411D01*
X87025932Y-69453158D01*
X87083000Y-69166260D01*
X87083000Y-68873740D01*
X89113000Y-68873740D01*
X89113000Y-69166260D01*
X89170068Y-69453158D01*
X89282010Y-69723411D01*
X89444525Y-69966632D01*
X89651368Y-70173475D01*
X89894589Y-70335990D01*
X90164842Y-70447932D01*
X90451740Y-70505000D01*
X90744260Y-70505000D01*
X91031158Y-70447932D01*
X91301411Y-70335990D01*
X91544632Y-70173475D01*
X91751475Y-69966632D01*
X91913990Y-69723411D01*
X92025932Y-69453158D01*
X92083000Y-69166260D01*
X92083000Y-68873740D01*
X92025932Y-68586842D01*
X91913990Y-68316589D01*
X91751475Y-68073368D01*
X91544632Y-67866525D01*
X91301411Y-67704010D01*
X91031158Y-67592068D01*
X90744260Y-67535000D01*
X90451740Y-67535000D01*
X90164842Y-67592068D01*
X89894589Y-67704010D01*
X89651368Y-67866525D01*
X89444525Y-68073368D01*
X89282010Y-68316589D01*
X89170068Y-68586842D01*
X89113000Y-68873740D01*
X87083000Y-68873740D01*
X87025932Y-68586842D01*
X86913990Y-68316589D01*
X86751475Y-68073368D01*
X86544632Y-67866525D01*
X86301411Y-67704010D01*
X86031158Y-67592068D01*
X85744260Y-67535000D01*
X85451740Y-67535000D01*
X85164842Y-67592068D01*
X84894589Y-67704010D01*
X84651368Y-67866525D01*
X84444525Y-68073368D01*
X84282010Y-68316589D01*
X84170068Y-68586842D01*
X84113000Y-68873740D01*
X80907000Y-68873740D01*
X80849932Y-68586842D01*
X80737990Y-68316589D01*
X80575475Y-68073368D01*
X80368632Y-67866525D01*
X80125411Y-67704010D01*
X79855158Y-67592068D01*
X79568260Y-67535000D01*
X79275740Y-67535000D01*
X78988842Y-67592068D01*
X78718589Y-67704010D01*
X78475368Y-67866525D01*
X78268525Y-68073368D01*
X78106010Y-68316589D01*
X77994068Y-68586842D01*
X77937000Y-68873740D01*
X75907000Y-68873740D01*
X75849932Y-68586842D01*
X75737990Y-68316589D01*
X75575475Y-68073368D01*
X75368632Y-67866525D01*
X75125411Y-67704010D01*
X74855158Y-67592068D01*
X74568260Y-67535000D01*
X74275740Y-67535000D01*
X73988842Y-67592068D01*
X73718589Y-67704010D01*
X73475368Y-67866525D01*
X73268525Y-68073368D01*
X73106010Y-68316589D01*
X72994068Y-68586842D01*
X72937000Y-68873740D01*
X70912920Y-68873740D01*
X71030561Y-68756099D01*
X71246204Y-68433366D01*
X71394742Y-68074764D01*
X71470466Y-67694074D01*
X71470466Y-67305926D01*
X71394742Y-66925236D01*
X71246204Y-66566634D01*
X71030561Y-66243901D01*
X70756099Y-65969439D01*
X70433366Y-65753796D01*
X70206923Y-65660000D01*
X111793077Y-65660000D01*
X111566634Y-65753796D01*
X111243901Y-65969439D01*
X110969439Y-66243901D01*
X110753796Y-66566634D01*
X110605258Y-66925236D01*
X110529534Y-67305926D01*
X110529534Y-67694074D01*
X110605258Y-68074764D01*
X110753796Y-68433366D01*
X110969439Y-68756099D01*
X111243901Y-69030561D01*
X111566634Y-69246204D01*
X111925236Y-69394742D01*
X112305926Y-69470466D01*
X112694074Y-69470466D01*
X113074764Y-69394742D01*
X113433366Y-69246204D01*
X113756099Y-69030561D01*
X114030561Y-68756099D01*
X114246204Y-68433366D01*
X114340000Y-68206923D01*
X114340001Y-101793080D01*
X114246204Y-101566634D01*
X114030561Y-101243901D01*
X113756099Y-100969439D01*
X113433366Y-100753796D01*
X113074764Y-100605258D01*
X112694074Y-100529534D01*
X112305926Y-100529534D01*
X111925236Y-100605258D01*
X111566634Y-100753796D01*
X111243901Y-100969439D01*
X110969439Y-101243901D01*
X110753796Y-101566634D01*
X110605258Y-101925236D01*
X110529534Y-102305926D01*
X110529534Y-102694074D01*
X110605258Y-103074764D01*
X110753796Y-103433366D01*
X110969439Y-103756099D01*
X111243901Y-104030561D01*
X111566634Y-104246204D01*
X111793077Y-104340000D01*
X70206923Y-104340000D01*
X70433366Y-104246204D01*
X70756099Y-104030561D01*
X71030561Y-103756099D01*
X71246204Y-103433366D01*
X71394742Y-103074764D01*
X71470466Y-102694074D01*
X71470466Y-102305926D01*
X71394742Y-101925236D01*
X71246204Y-101566634D01*
X71030561Y-101243901D01*
X70756099Y-100969439D01*
X70433366Y-100753796D01*
X70074764Y-100605258D01*
X69694074Y-100529534D01*
X69305926Y-100529534D01*
X68925236Y-100605258D01*
X68566634Y-100753796D01*
X68243901Y-100969439D01*
X67969439Y-101243901D01*
X67753796Y-101566634D01*
X67605258Y-101925236D01*
X67529534Y-102305926D01*
X67529534Y-102694074D01*
X67605258Y-103074764D01*
X67753796Y-103433366D01*
X67969439Y-103756099D01*
X68243901Y-104030561D01*
X68566634Y-104246204D01*
X68793077Y-104340000D01*
X57532279Y-104340000D01*
X57143224Y-104301853D01*
X56800036Y-104198238D01*
X56483511Y-104029939D01*
X56205704Y-103803365D01*
X55977195Y-103527146D01*
X55806690Y-103211803D01*
X55700681Y-102869344D01*
X55660000Y-102482288D01*
X55660000Y-98278740D01*
X57375000Y-98278740D01*
X57375000Y-98571260D01*
X57432068Y-98858158D01*
X57544010Y-99128411D01*
X57706525Y-99371632D01*
X57913368Y-99578475D01*
X58156589Y-99740990D01*
X58426842Y-99852932D01*
X58713740Y-99910000D01*
X59006260Y-99910000D01*
X59293158Y-99852932D01*
X59563411Y-99740990D01*
X59806632Y-99578475D01*
X60013475Y-99371632D01*
X60175990Y-99128411D01*
X60287932Y-98858158D01*
X60345000Y-98571260D01*
X60345000Y-98278740D01*
X60287932Y-97991842D01*
X60175990Y-97721589D01*
X60013475Y-97478368D01*
X59806632Y-97271525D01*
X59563411Y-97109010D01*
X59293158Y-96997068D01*
X59006260Y-96940000D01*
X58713740Y-96940000D01*
X58426842Y-96997068D01*
X58156589Y-97109010D01*
X57913368Y-97271525D01*
X57706525Y-97478368D01*
X57544010Y-97721589D01*
X57432068Y-97991842D01*
X57375000Y-98278740D01*
X55660000Y-98278740D01*
X55660000Y-90778740D01*
X57375000Y-90778740D01*
X57375000Y-91071260D01*
X57432068Y-91358158D01*
X57544010Y-91628411D01*
X57706525Y-91871632D01*
X57913368Y-92078475D01*
X58156589Y-92240990D01*
X58426842Y-92352932D01*
X58713740Y-92410000D01*
X59006260Y-92410000D01*
X59293158Y-92352932D01*
X59563411Y-92240990D01*
X59806632Y-92078475D01*
X60013475Y-91871632D01*
X60175990Y-91628411D01*
X60287932Y-91358158D01*
X60345000Y-91071260D01*
X60345000Y-90925000D01*
X64297815Y-90925000D01*
X64326487Y-91216111D01*
X64411401Y-91496034D01*
X64549294Y-91754014D01*
X64734866Y-91980134D01*
X64960986Y-92165706D01*
X64978374Y-92175000D01*
X64960986Y-92184294D01*
X64734866Y-92369866D01*
X64549294Y-92595986D01*
X64411401Y-92853966D01*
X64326487Y-93133889D01*
X64297815Y-93425000D01*
X64326487Y-93716111D01*
X64411401Y-93996034D01*
X64549294Y-94254014D01*
X64734866Y-94480134D01*
X64960986Y-94665706D01*
X64978374Y-94675000D01*
X64960986Y-94684294D01*
X64734866Y-94869866D01*
X64549294Y-95095986D01*
X64411401Y-95353966D01*
X64326487Y-95633889D01*
X64297815Y-95925000D01*
X64326487Y-96216111D01*
X64411401Y-96496034D01*
X64549294Y-96754014D01*
X64734866Y-96980134D01*
X64798337Y-97032223D01*
X64696614Y-97086595D01*
X64562038Y-97197038D01*
X64451595Y-97331614D01*
X64369528Y-97485150D01*
X64318992Y-97651746D01*
X64301928Y-97825000D01*
X64301928Y-99025000D01*
X64318992Y-99198254D01*
X64369528Y-99364850D01*
X64451595Y-99518386D01*
X64562038Y-99652962D01*
X64696614Y-99763405D01*
X64850150Y-99845472D01*
X65016746Y-99896008D01*
X65190000Y-99913072D01*
X66890000Y-99913072D01*
X67063254Y-99896008D01*
X67229850Y-99845472D01*
X67383386Y-99763405D01*
X67517962Y-99652962D01*
X67628405Y-99518386D01*
X67710472Y-99364850D01*
X67761008Y-99198254D01*
X67778072Y-99025000D01*
X67778072Y-97825000D01*
X67761008Y-97651746D01*
X67710472Y-97485150D01*
X67628405Y-97331614D01*
X67556503Y-97244000D01*
X71205928Y-97244000D01*
X71205928Y-98844000D01*
X71218188Y-98968482D01*
X71254498Y-99088180D01*
X71313463Y-99198494D01*
X71392815Y-99295185D01*
X71489506Y-99374537D01*
X71599820Y-99433502D01*
X71719518Y-99469812D01*
X71844000Y-99482072D01*
X73444000Y-99482072D01*
X73568482Y-99469812D01*
X73688180Y-99433502D01*
X73798494Y-99374537D01*
X73895185Y-99295185D01*
X73974537Y-99198494D01*
X74033502Y-99088180D01*
X74069812Y-98968482D01*
X74070643Y-98960039D01*
X74269241Y-99158637D01*
X74504273Y-99315680D01*
X74765426Y-99423853D01*
X75042665Y-99479000D01*
X75325335Y-99479000D01*
X75602574Y-99423853D01*
X75863727Y-99315680D01*
X76098759Y-99158637D01*
X76298637Y-98958759D01*
X76454000Y-98726241D01*
X76609363Y-98958759D01*
X76809241Y-99158637D01*
X77044273Y-99315680D01*
X77305426Y-99423853D01*
X77582665Y-99479000D01*
X77865335Y-99479000D01*
X78142574Y-99423853D01*
X78403727Y-99315680D01*
X78638759Y-99158637D01*
X78838637Y-98958759D01*
X78994000Y-98726241D01*
X79149363Y-98958759D01*
X79349241Y-99158637D01*
X79584273Y-99315680D01*
X79845426Y-99423853D01*
X80122665Y-99479000D01*
X80405335Y-99479000D01*
X80682574Y-99423853D01*
X80943727Y-99315680D01*
X81178759Y-99158637D01*
X81378637Y-98958759D01*
X81534000Y-98726241D01*
X81689363Y-98958759D01*
X81889241Y-99158637D01*
X82124273Y-99315680D01*
X82385426Y-99423853D01*
X82662665Y-99479000D01*
X82945335Y-99479000D01*
X83222574Y-99423853D01*
X83483727Y-99315680D01*
X83718759Y-99158637D01*
X83918637Y-98958759D01*
X84074000Y-98726241D01*
X84229363Y-98958759D01*
X84429241Y-99158637D01*
X84664273Y-99315680D01*
X84925426Y-99423853D01*
X85202665Y-99479000D01*
X85485335Y-99479000D01*
X85762574Y-99423853D01*
X86023727Y-99315680D01*
X86258759Y-99158637D01*
X86458637Y-98958759D01*
X86614000Y-98726241D01*
X86769363Y-98958759D01*
X86969241Y-99158637D01*
X87204273Y-99315680D01*
X87465426Y-99423853D01*
X87742665Y-99479000D01*
X88025335Y-99479000D01*
X88302574Y-99423853D01*
X88563727Y-99315680D01*
X88798759Y-99158637D01*
X88998637Y-98958759D01*
X89154000Y-98726241D01*
X89309363Y-98958759D01*
X89509241Y-99158637D01*
X89744273Y-99315680D01*
X90005426Y-99423853D01*
X90282665Y-99479000D01*
X90565335Y-99479000D01*
X90842574Y-99423853D01*
X91103727Y-99315680D01*
X91338759Y-99158637D01*
X91538637Y-98958759D01*
X91694000Y-98726241D01*
X91849363Y-98958759D01*
X92049241Y-99158637D01*
X92284273Y-99315680D01*
X92545426Y-99423853D01*
X92822665Y-99479000D01*
X93105335Y-99479000D01*
X93382574Y-99423853D01*
X93643727Y-99315680D01*
X93878759Y-99158637D01*
X94078637Y-98958759D01*
X94234000Y-98726241D01*
X94389363Y-98958759D01*
X94589241Y-99158637D01*
X94824273Y-99315680D01*
X95085426Y-99423853D01*
X95362665Y-99479000D01*
X95645335Y-99479000D01*
X95922574Y-99423853D01*
X96183727Y-99315680D01*
X96418759Y-99158637D01*
X96618637Y-98958759D01*
X96774000Y-98726241D01*
X96929363Y-98958759D01*
X97129241Y-99158637D01*
X97364273Y-99315680D01*
X97625426Y-99423853D01*
X97902665Y-99479000D01*
X98185335Y-99479000D01*
X98462574Y-99423853D01*
X98723727Y-99315680D01*
X98958759Y-99158637D01*
X99158637Y-98958759D01*
X99314000Y-98726241D01*
X99469363Y-98958759D01*
X99669241Y-99158637D01*
X99904273Y-99315680D01*
X100165426Y-99423853D01*
X100442665Y-99479000D01*
X100725335Y-99479000D01*
X101002574Y-99423853D01*
X101263727Y-99315680D01*
X101498759Y-99158637D01*
X101698637Y-98958759D01*
X101854000Y-98726241D01*
X102009363Y-98958759D01*
X102209241Y-99158637D01*
X102444273Y-99315680D01*
X102705426Y-99423853D01*
X102982665Y-99479000D01*
X103265335Y-99479000D01*
X103542574Y-99423853D01*
X103803727Y-99315680D01*
X104038759Y-99158637D01*
X104238637Y-98958759D01*
X104394000Y-98726241D01*
X104549363Y-98958759D01*
X104749241Y-99158637D01*
X104984273Y-99315680D01*
X105245426Y-99423853D01*
X105522665Y-99479000D01*
X105805335Y-99479000D01*
X106082574Y-99423853D01*
X106343727Y-99315680D01*
X106578759Y-99158637D01*
X106778637Y-98958759D01*
X106934000Y-98726241D01*
X107089363Y-98958759D01*
X107289241Y-99158637D01*
X107524273Y-99315680D01*
X107785426Y-99423853D01*
X108062665Y-99479000D01*
X108345335Y-99479000D01*
X108622574Y-99423853D01*
X108883727Y-99315680D01*
X109118759Y-99158637D01*
X109318637Y-98958759D01*
X109475680Y-98723727D01*
X109583853Y-98462574D01*
X109639000Y-98185335D01*
X109639000Y-97902665D01*
X109583853Y-97625426D01*
X109475680Y-97364273D01*
X109318637Y-97129241D01*
X109118759Y-96929363D01*
X108883727Y-96772320D01*
X108622574Y-96664147D01*
X108345335Y-96609000D01*
X108062665Y-96609000D01*
X107785426Y-96664147D01*
X107524273Y-96772320D01*
X107289241Y-96929363D01*
X107089363Y-97129241D01*
X106934000Y-97361759D01*
X106778637Y-97129241D01*
X106578759Y-96929363D01*
X106343727Y-96772320D01*
X106082574Y-96664147D01*
X105805335Y-96609000D01*
X105522665Y-96609000D01*
X105245426Y-96664147D01*
X104984273Y-96772320D01*
X104749241Y-96929363D01*
X104549363Y-97129241D01*
X104394000Y-97361759D01*
X104238637Y-97129241D01*
X104038759Y-96929363D01*
X103803727Y-96772320D01*
X103542574Y-96664147D01*
X103265335Y-96609000D01*
X102982665Y-96609000D01*
X102705426Y-96664147D01*
X102444273Y-96772320D01*
X102209241Y-96929363D01*
X102009363Y-97129241D01*
X101854000Y-97361759D01*
X101698637Y-97129241D01*
X101498759Y-96929363D01*
X101263727Y-96772320D01*
X101002574Y-96664147D01*
X100725335Y-96609000D01*
X100442665Y-96609000D01*
X100165426Y-96664147D01*
X99904273Y-96772320D01*
X99669241Y-96929363D01*
X99469363Y-97129241D01*
X99314000Y-97361759D01*
X99158637Y-97129241D01*
X98958759Y-96929363D01*
X98723727Y-96772320D01*
X98462574Y-96664147D01*
X98185335Y-96609000D01*
X97902665Y-96609000D01*
X97625426Y-96664147D01*
X97364273Y-96772320D01*
X97129241Y-96929363D01*
X96929363Y-97129241D01*
X96774000Y-97361759D01*
X96618637Y-97129241D01*
X96418759Y-96929363D01*
X96183727Y-96772320D01*
X95922574Y-96664147D01*
X95645335Y-96609000D01*
X95362665Y-96609000D01*
X95085426Y-96664147D01*
X94824273Y-96772320D01*
X94589241Y-96929363D01*
X94389363Y-97129241D01*
X94234000Y-97361759D01*
X94078637Y-97129241D01*
X93878759Y-96929363D01*
X93643727Y-96772320D01*
X93382574Y-96664147D01*
X93105335Y-96609000D01*
X92822665Y-96609000D01*
X92545426Y-96664147D01*
X92284273Y-96772320D01*
X92049241Y-96929363D01*
X91849363Y-97129241D01*
X91694000Y-97361759D01*
X91538637Y-97129241D01*
X91338759Y-96929363D01*
X91103727Y-96772320D01*
X90842574Y-96664147D01*
X90565335Y-96609000D01*
X90282665Y-96609000D01*
X90005426Y-96664147D01*
X89744273Y-96772320D01*
X89509241Y-96929363D01*
X89309363Y-97129241D01*
X89154000Y-97361759D01*
X88998637Y-97129241D01*
X88798759Y-96929363D01*
X88563727Y-96772320D01*
X88302574Y-96664147D01*
X88025335Y-96609000D01*
X87742665Y-96609000D01*
X87465426Y-96664147D01*
X87204273Y-96772320D01*
X86969241Y-96929363D01*
X86769363Y-97129241D01*
X86614000Y-97361759D01*
X86458637Y-97129241D01*
X86258759Y-96929363D01*
X86023727Y-96772320D01*
X85762574Y-96664147D01*
X85485335Y-96609000D01*
X85202665Y-96609000D01*
X84925426Y-96664147D01*
X84664273Y-96772320D01*
X84429241Y-96929363D01*
X84229363Y-97129241D01*
X84074000Y-97361759D01*
X83918637Y-97129241D01*
X83718759Y-96929363D01*
X83483727Y-96772320D01*
X83222574Y-96664147D01*
X82945335Y-96609000D01*
X82662665Y-96609000D01*
X82385426Y-96664147D01*
X82124273Y-96772320D01*
X81889241Y-96929363D01*
X81689363Y-97129241D01*
X81534000Y-97361759D01*
X81378637Y-97129241D01*
X81178759Y-96929363D01*
X80943727Y-96772320D01*
X80682574Y-96664147D01*
X80405335Y-96609000D01*
X80122665Y-96609000D01*
X79845426Y-96664147D01*
X79584273Y-96772320D01*
X79349241Y-96929363D01*
X79149363Y-97129241D01*
X78994000Y-97361759D01*
X78838637Y-97129241D01*
X78638759Y-96929363D01*
X78403727Y-96772320D01*
X78142574Y-96664147D01*
X77865335Y-96609000D01*
X77582665Y-96609000D01*
X77305426Y-96664147D01*
X77044273Y-96772320D01*
X76809241Y-96929363D01*
X76609363Y-97129241D01*
X76454000Y-97361759D01*
X76298637Y-97129241D01*
X76098759Y-96929363D01*
X75863727Y-96772320D01*
X75602574Y-96664147D01*
X75325335Y-96609000D01*
X75042665Y-96609000D01*
X74765426Y-96664147D01*
X74504273Y-96772320D01*
X74269241Y-96929363D01*
X74070643Y-97127961D01*
X74069812Y-97119518D01*
X74033502Y-96999820D01*
X73974537Y-96889506D01*
X73895185Y-96792815D01*
X73798494Y-96713463D01*
X73688180Y-96654498D01*
X73568482Y-96618188D01*
X73444000Y-96605928D01*
X71844000Y-96605928D01*
X71719518Y-96618188D01*
X71599820Y-96654498D01*
X71489506Y-96713463D01*
X71392815Y-96792815D01*
X71313463Y-96889506D01*
X71254498Y-96999820D01*
X71218188Y-97119518D01*
X71205928Y-97244000D01*
X67556503Y-97244000D01*
X67517962Y-97197038D01*
X67383386Y-97086595D01*
X67281663Y-97032223D01*
X67345134Y-96980134D01*
X67530706Y-96754014D01*
X67668599Y-96496034D01*
X67753513Y-96216111D01*
X67782185Y-95925000D01*
X67753513Y-95633889D01*
X67668599Y-95353966D01*
X67530706Y-95095986D01*
X67345134Y-94869866D01*
X67119014Y-94684294D01*
X67101626Y-94675000D01*
X67119014Y-94665706D01*
X67345134Y-94480134D01*
X67530706Y-94254014D01*
X67668599Y-93996034D01*
X67753513Y-93716111D01*
X67782185Y-93425000D01*
X67753513Y-93133889D01*
X67668599Y-92853966D01*
X67530706Y-92595986D01*
X67345134Y-92369866D01*
X67119014Y-92184294D01*
X67101626Y-92175000D01*
X67119014Y-92165706D01*
X67345134Y-91980134D01*
X67530706Y-91754014D01*
X67668599Y-91496034D01*
X67753513Y-91216111D01*
X67782185Y-90925000D01*
X67753513Y-90633889D01*
X67668599Y-90353966D01*
X67530706Y-90095986D01*
X67345134Y-89869866D01*
X67119014Y-89684294D01*
X66861034Y-89546401D01*
X66581111Y-89461487D01*
X66362950Y-89440000D01*
X65717050Y-89440000D01*
X65498889Y-89461487D01*
X65218966Y-89546401D01*
X64960986Y-89684294D01*
X64734866Y-89869866D01*
X64549294Y-90095986D01*
X64411401Y-90353966D01*
X64326487Y-90633889D01*
X64297815Y-90925000D01*
X60345000Y-90925000D01*
X60345000Y-90778740D01*
X60287932Y-90491842D01*
X60175990Y-90221589D01*
X60013475Y-89978368D01*
X59806632Y-89771525D01*
X59563411Y-89609010D01*
X59293158Y-89497068D01*
X59006260Y-89440000D01*
X58713740Y-89440000D01*
X58426842Y-89497068D01*
X58156589Y-89609010D01*
X57913368Y-89771525D01*
X57706525Y-89978368D01*
X57544010Y-90221589D01*
X57432068Y-90491842D01*
X57375000Y-90778740D01*
X55660000Y-90778740D01*
X55660000Y-83205740D01*
X57375000Y-83205740D01*
X57375000Y-83498260D01*
X57432068Y-83785158D01*
X57544010Y-84055411D01*
X57706525Y-84298632D01*
X57913368Y-84505475D01*
X58057828Y-84602000D01*
X57913368Y-84698525D01*
X57706525Y-84905368D01*
X57544010Y-85148589D01*
X57432068Y-85418842D01*
X57375000Y-85705740D01*
X57375000Y-85998260D01*
X57432068Y-86285158D01*
X57544010Y-86555411D01*
X57706525Y-86798632D01*
X57913368Y-87005475D01*
X58156589Y-87167990D01*
X58426842Y-87279932D01*
X58713740Y-87337000D01*
X59006260Y-87337000D01*
X59293158Y-87279932D01*
X59563411Y-87167990D01*
X59806632Y-87005475D01*
X60013475Y-86798632D01*
X60078042Y-86702000D01*
X64301928Y-86702000D01*
X64314188Y-86826482D01*
X64350498Y-86946180D01*
X64409463Y-87056494D01*
X64488815Y-87153185D01*
X64585506Y-87232537D01*
X64695820Y-87291502D01*
X64815518Y-87327812D01*
X64940000Y-87340072D01*
X65754250Y-87337000D01*
X65913000Y-87178250D01*
X65913000Y-85979000D01*
X66167000Y-85979000D01*
X66167000Y-87178250D01*
X66325750Y-87337000D01*
X67140000Y-87340072D01*
X67264482Y-87327812D01*
X67384180Y-87291502D01*
X67494494Y-87232537D01*
X67591185Y-87153185D01*
X67670537Y-87056494D01*
X67729502Y-86946180D01*
X67765812Y-86826482D01*
X67778072Y-86702000D01*
X67775000Y-86137750D01*
X67616250Y-85979000D01*
X66167000Y-85979000D01*
X65913000Y-85979000D01*
X64463750Y-85979000D01*
X64305000Y-86137750D01*
X64301928Y-86702000D01*
X60078042Y-86702000D01*
X60175990Y-86555411D01*
X60287932Y-86285158D01*
X60345000Y-85998260D01*
X60345000Y-85705740D01*
X60287932Y-85418842D01*
X60175990Y-85148589D01*
X60013475Y-84905368D01*
X59806632Y-84698525D01*
X59662172Y-84602000D01*
X59806632Y-84505475D01*
X60013475Y-84298632D01*
X60175990Y-84055411D01*
X60287932Y-83785158D01*
X60345000Y-83498260D01*
X60345000Y-83352000D01*
X64297815Y-83352000D01*
X64326487Y-83643111D01*
X64411401Y-83923034D01*
X64549294Y-84181014D01*
X64730608Y-84401945D01*
X64695820Y-84412498D01*
X64585506Y-84471463D01*
X64488815Y-84550815D01*
X64409463Y-84647506D01*
X64350498Y-84757820D01*
X64314188Y-84877518D01*
X64301928Y-85002000D01*
X64305000Y-85566250D01*
X64463750Y-85725000D01*
X65913000Y-85725000D01*
X65913000Y-85705000D01*
X66167000Y-85705000D01*
X66167000Y-85725000D01*
X67616250Y-85725000D01*
X67775000Y-85566250D01*
X67778072Y-85002000D01*
X67765812Y-84877518D01*
X67729502Y-84757820D01*
X67670537Y-84647506D01*
X67591185Y-84550815D01*
X67494494Y-84471463D01*
X67384180Y-84412498D01*
X67349392Y-84401945D01*
X67530706Y-84181014D01*
X67668599Y-83923034D01*
X67753513Y-83643111D01*
X67782185Y-83352000D01*
X67753513Y-83060889D01*
X67668599Y-82780966D01*
X67530706Y-82522986D01*
X67345134Y-82296866D01*
X67119014Y-82111294D01*
X66861034Y-81973401D01*
X66581111Y-81888487D01*
X66362950Y-81867000D01*
X65717050Y-81867000D01*
X65498889Y-81888487D01*
X65218966Y-81973401D01*
X64960986Y-82111294D01*
X64734866Y-82296866D01*
X64549294Y-82522986D01*
X64411401Y-82780966D01*
X64326487Y-83060889D01*
X64297815Y-83352000D01*
X60345000Y-83352000D01*
X60345000Y-83205740D01*
X60287932Y-82918842D01*
X60175990Y-82648589D01*
X60013475Y-82405368D01*
X59806632Y-82198525D01*
X59563411Y-82036010D01*
X59293158Y-81924068D01*
X59006260Y-81867000D01*
X58713740Y-81867000D01*
X58426842Y-81924068D01*
X58156589Y-82036010D01*
X57913368Y-82198525D01*
X57706525Y-82405368D01*
X57544010Y-82648589D01*
X57432068Y-82918842D01*
X57375000Y-83205740D01*
X55660000Y-83205740D01*
X55660000Y-78720740D01*
X57375000Y-78720740D01*
X57375000Y-79013260D01*
X57432068Y-79300158D01*
X57544010Y-79570411D01*
X57706525Y-79813632D01*
X57913368Y-80020475D01*
X58156589Y-80182990D01*
X58426842Y-80294932D01*
X58713740Y-80352000D01*
X59006260Y-80352000D01*
X59293158Y-80294932D01*
X59563411Y-80182990D01*
X59806632Y-80020475D01*
X60013475Y-79813632D01*
X60175990Y-79570411D01*
X60287932Y-79300158D01*
X60345000Y-79013260D01*
X60345000Y-78720740D01*
X60287932Y-78433842D01*
X60175990Y-78163589D01*
X60013475Y-77920368D01*
X59806632Y-77713525D01*
X59563411Y-77551010D01*
X59293158Y-77439068D01*
X59006260Y-77382000D01*
X58713740Y-77382000D01*
X58426842Y-77439068D01*
X58156589Y-77551010D01*
X57913368Y-77713525D01*
X57706525Y-77920368D01*
X57544010Y-78163589D01*
X57432068Y-78433842D01*
X57375000Y-78720740D01*
X55660000Y-78720740D01*
X55660000Y-71220740D01*
X57375000Y-71220740D01*
X57375000Y-71513260D01*
X57432068Y-71800158D01*
X57544010Y-72070411D01*
X57706525Y-72313632D01*
X57913368Y-72520475D01*
X58156589Y-72682990D01*
X58426842Y-72794932D01*
X58713740Y-72852000D01*
X59006260Y-72852000D01*
X59293158Y-72794932D01*
X59563411Y-72682990D01*
X59806632Y-72520475D01*
X60013475Y-72313632D01*
X60175990Y-72070411D01*
X60287932Y-71800158D01*
X60345000Y-71513260D01*
X60345000Y-71367000D01*
X64297815Y-71367000D01*
X64326487Y-71658111D01*
X64411401Y-71938034D01*
X64549294Y-72196014D01*
X64734866Y-72422134D01*
X64960986Y-72607706D01*
X64978374Y-72617000D01*
X64960986Y-72626294D01*
X64734866Y-72811866D01*
X64549294Y-73037986D01*
X64411401Y-73295966D01*
X64326487Y-73575889D01*
X64297815Y-73867000D01*
X64326487Y-74158111D01*
X64411401Y-74438034D01*
X64549294Y-74696014D01*
X64734866Y-74922134D01*
X64960986Y-75107706D01*
X64978374Y-75117000D01*
X64960986Y-75126294D01*
X64734866Y-75311866D01*
X64549294Y-75537986D01*
X64411401Y-75795966D01*
X64326487Y-76075889D01*
X64297815Y-76367000D01*
X64326487Y-76658111D01*
X64411401Y-76938034D01*
X64549294Y-77196014D01*
X64734866Y-77422134D01*
X64798337Y-77474223D01*
X64696614Y-77528595D01*
X64562038Y-77639038D01*
X64451595Y-77773614D01*
X64369528Y-77927150D01*
X64318992Y-78093746D01*
X64301928Y-78267000D01*
X64301928Y-79467000D01*
X64318992Y-79640254D01*
X64369528Y-79806850D01*
X64451595Y-79960386D01*
X64562038Y-80094962D01*
X64696614Y-80205405D01*
X64850150Y-80287472D01*
X65016746Y-80338008D01*
X65190000Y-80355072D01*
X66530494Y-80355072D01*
X68008990Y-81833569D01*
X68008989Y-91598512D01*
X68008989Y-91598513D01*
X68008990Y-93488510D01*
X68004708Y-93531989D01*
X68021794Y-93705479D01*
X68072401Y-93872302D01*
X68154579Y-94026048D01*
X68237457Y-94127035D01*
X68237460Y-94127038D01*
X68265173Y-94160806D01*
X68298940Y-94188518D01*
X69574470Y-95464049D01*
X69602183Y-95497817D01*
X69635951Y-95525530D01*
X69635953Y-95525532D01*
X69707452Y-95584210D01*
X69736941Y-95608411D01*
X69890687Y-95690589D01*
X70057510Y-95741195D01*
X70187523Y-95754000D01*
X70187533Y-95754000D01*
X70230999Y-95758281D01*
X70274465Y-95754000D01*
X70417442Y-95754000D01*
X70441958Y-95790691D01*
X70521310Y-95887382D01*
X70590618Y-95956690D01*
X70687309Y-96036042D01*
X70768808Y-96090498D01*
X70879125Y-96149464D01*
X70969681Y-96186973D01*
X71089377Y-96223282D01*
X71185510Y-96242404D01*
X71309991Y-96254664D01*
X71334550Y-96254664D01*
X71359000Y-96257072D01*
X71859000Y-96257072D01*
X71983482Y-96244812D01*
X72103180Y-96208502D01*
X72213494Y-96149537D01*
X72310185Y-96070185D01*
X72389537Y-95973494D01*
X72448502Y-95863180D01*
X72484812Y-95743482D01*
X72497072Y-95619000D01*
X72497072Y-94119000D01*
X72484812Y-93994518D01*
X72448502Y-93874820D01*
X72389537Y-93764506D01*
X72335601Y-93698785D01*
X72394319Y-93680973D01*
X72484875Y-93643464D01*
X72595192Y-93584498D01*
X72676691Y-93530042D01*
X72749853Y-93470000D01*
X73345199Y-93470000D01*
X75890201Y-96015003D01*
X75913999Y-96044001D01*
X76029724Y-96138974D01*
X76161753Y-96209546D01*
X76305014Y-96253003D01*
X76416667Y-96264000D01*
X76416675Y-96264000D01*
X76454000Y-96267676D01*
X76491325Y-96264000D01*
X89497678Y-96264000D01*
X89535000Y-96267676D01*
X89572322Y-96264000D01*
X89572333Y-96264000D01*
X89683986Y-96253003D01*
X89827247Y-96209546D01*
X89959276Y-96138974D01*
X90075001Y-96044001D01*
X90098803Y-96014998D01*
X90935003Y-95178799D01*
X90964001Y-95155001D01*
X91058974Y-95039276D01*
X91129546Y-94907247D01*
X91173003Y-94763986D01*
X91184000Y-94652333D01*
X91184000Y-94652323D01*
X91187676Y-94615000D01*
X91184000Y-94577677D01*
X91184000Y-84022043D01*
X91338759Y-83918637D01*
X91538637Y-83718759D01*
X91694000Y-83486241D01*
X91849363Y-83718759D01*
X92049241Y-83918637D01*
X92284273Y-84075680D01*
X92545426Y-84183853D01*
X92822665Y-84239000D01*
X93105335Y-84239000D01*
X93382574Y-84183853D01*
X93643727Y-84075680D01*
X93878759Y-83918637D01*
X94078637Y-83718759D01*
X94234000Y-83486241D01*
X94389363Y-83718759D01*
X94589241Y-83918637D01*
X94824273Y-84075680D01*
X95085426Y-84183853D01*
X95362665Y-84239000D01*
X95645335Y-84239000D01*
X95922574Y-84183853D01*
X96183727Y-84075680D01*
X96418759Y-83918637D01*
X96618637Y-83718759D01*
X96774000Y-83486241D01*
X96929363Y-83718759D01*
X97129241Y-83918637D01*
X97364273Y-84075680D01*
X97625426Y-84183853D01*
X97902665Y-84239000D01*
X98185335Y-84239000D01*
X98462574Y-84183853D01*
X98723727Y-84075680D01*
X98958759Y-83918637D01*
X99158637Y-83718759D01*
X99314000Y-83486241D01*
X99469363Y-83718759D01*
X99669241Y-83918637D01*
X99904273Y-84075680D01*
X100165426Y-84183853D01*
X100442665Y-84239000D01*
X100725335Y-84239000D01*
X101002574Y-84183853D01*
X101263727Y-84075680D01*
X101498759Y-83918637D01*
X101698637Y-83718759D01*
X101854000Y-83486241D01*
X102009363Y-83718759D01*
X102209241Y-83918637D01*
X102444273Y-84075680D01*
X102705426Y-84183853D01*
X102982665Y-84239000D01*
X103265335Y-84239000D01*
X103542574Y-84183853D01*
X103803727Y-84075680D01*
X104038759Y-83918637D01*
X104238637Y-83718759D01*
X104394000Y-83486241D01*
X104549363Y-83718759D01*
X104749241Y-83918637D01*
X104984273Y-84075680D01*
X105245426Y-84183853D01*
X105522665Y-84239000D01*
X105805335Y-84239000D01*
X106082574Y-84183853D01*
X106343727Y-84075680D01*
X106578759Y-83918637D01*
X106778637Y-83718759D01*
X106934000Y-83486241D01*
X107089363Y-83718759D01*
X107289241Y-83918637D01*
X107524273Y-84075680D01*
X107785426Y-84183853D01*
X108062665Y-84239000D01*
X108345335Y-84239000D01*
X108622574Y-84183853D01*
X108883727Y-84075680D01*
X109118759Y-83918637D01*
X109318637Y-83718759D01*
X109475680Y-83483727D01*
X109583853Y-83222574D01*
X109639000Y-82945335D01*
X109639000Y-82662665D01*
X109583853Y-82385426D01*
X109475680Y-82124273D01*
X109318637Y-81889241D01*
X109118759Y-81689363D01*
X108883727Y-81532320D01*
X108622574Y-81424147D01*
X108345335Y-81369000D01*
X108062665Y-81369000D01*
X107785426Y-81424147D01*
X107524273Y-81532320D01*
X107289241Y-81689363D01*
X107089363Y-81889241D01*
X106934000Y-82121759D01*
X106778637Y-81889241D01*
X106578759Y-81689363D01*
X106343727Y-81532320D01*
X106082574Y-81424147D01*
X105805335Y-81369000D01*
X105522665Y-81369000D01*
X105245426Y-81424147D01*
X104984273Y-81532320D01*
X104749241Y-81689363D01*
X104549363Y-81889241D01*
X104394000Y-82121759D01*
X104238637Y-81889241D01*
X104038759Y-81689363D01*
X103803727Y-81532320D01*
X103542574Y-81424147D01*
X103265335Y-81369000D01*
X102982665Y-81369000D01*
X102705426Y-81424147D01*
X102444273Y-81532320D01*
X102209241Y-81689363D01*
X102009363Y-81889241D01*
X101854000Y-82121759D01*
X101698637Y-81889241D01*
X101498759Y-81689363D01*
X101263727Y-81532320D01*
X101002574Y-81424147D01*
X100725335Y-81369000D01*
X100442665Y-81369000D01*
X100260114Y-81405312D01*
X98226804Y-79372003D01*
X98203001Y-79342999D01*
X98087276Y-79248026D01*
X97955247Y-79177454D01*
X97811986Y-79133997D01*
X97700333Y-79123000D01*
X97700322Y-79123000D01*
X97663000Y-79119324D01*
X97625678Y-79123000D01*
X91881803Y-79123000D01*
X90693802Y-77935000D01*
X90725002Y-77935000D01*
X90725002Y-77770156D01*
X90954890Y-77891476D01*
X91065493Y-77870357D01*
X91333608Y-77751862D01*
X91573454Y-77583337D01*
X91775814Y-77371259D01*
X91932911Y-77123777D01*
X92038708Y-76850402D01*
X92089140Y-76561640D01*
X91988689Y-76414000D01*
X102397815Y-76414000D01*
X102426487Y-76705111D01*
X102511401Y-76985034D01*
X102649294Y-77243014D01*
X102834866Y-77469134D01*
X103060986Y-77654706D01*
X103318966Y-77792599D01*
X103598889Y-77877513D01*
X103817050Y-77899000D01*
X104462950Y-77899000D01*
X104681111Y-77877513D01*
X104961034Y-77792599D01*
X105219014Y-77654706D01*
X105445134Y-77469134D01*
X105630706Y-77243014D01*
X105768599Y-76985034D01*
X105853513Y-76705111D01*
X105882185Y-76414000D01*
X105853513Y-76122889D01*
X105768599Y-75842966D01*
X105630706Y-75584986D01*
X105445134Y-75358866D01*
X105381663Y-75306777D01*
X105483386Y-75252405D01*
X105617962Y-75141962D01*
X105728405Y-75007386D01*
X105810472Y-74853850D01*
X105861008Y-74687254D01*
X105878072Y-74514000D01*
X105878072Y-73767740D01*
X109835000Y-73767740D01*
X109835000Y-74060260D01*
X109892068Y-74347158D01*
X110004010Y-74617411D01*
X110166525Y-74860632D01*
X110373368Y-75067475D01*
X110517828Y-75164000D01*
X110373368Y-75260525D01*
X110166525Y-75467368D01*
X110004010Y-75710589D01*
X109892068Y-75980842D01*
X109835000Y-76267740D01*
X109835000Y-76560260D01*
X109892068Y-76847158D01*
X110004010Y-77117411D01*
X110166525Y-77360632D01*
X110373368Y-77567475D01*
X110616589Y-77729990D01*
X110886842Y-77841932D01*
X111173740Y-77899000D01*
X111466260Y-77899000D01*
X111753158Y-77841932D01*
X112023411Y-77729990D01*
X112266632Y-77567475D01*
X112473475Y-77360632D01*
X112635990Y-77117411D01*
X112747932Y-76847158D01*
X112805000Y-76560260D01*
X112805000Y-76267740D01*
X112747932Y-75980842D01*
X112635990Y-75710589D01*
X112473475Y-75467368D01*
X112266632Y-75260525D01*
X112122172Y-75164000D01*
X112266632Y-75067475D01*
X112473475Y-74860632D01*
X112635990Y-74617411D01*
X112747932Y-74347158D01*
X112805000Y-74060260D01*
X112805000Y-73767740D01*
X112747932Y-73480842D01*
X112635990Y-73210589D01*
X112473475Y-72967368D01*
X112266632Y-72760525D01*
X112023411Y-72598010D01*
X111753158Y-72486068D01*
X111466260Y-72429000D01*
X111173740Y-72429000D01*
X110886842Y-72486068D01*
X110616589Y-72598010D01*
X110373368Y-72760525D01*
X110166525Y-72967368D01*
X110004010Y-73210589D01*
X109892068Y-73480842D01*
X109835000Y-73767740D01*
X105878072Y-73767740D01*
X105878072Y-73314000D01*
X105861008Y-73140746D01*
X105810472Y-72974150D01*
X105728405Y-72820614D01*
X105617962Y-72686038D01*
X105483386Y-72575595D01*
X105329850Y-72493528D01*
X105163254Y-72442992D01*
X104990000Y-72425928D01*
X103290000Y-72425928D01*
X103116746Y-72442992D01*
X102950150Y-72493528D01*
X102796614Y-72575595D01*
X102662038Y-72686038D01*
X102551595Y-72820614D01*
X102469528Y-72974150D01*
X102418992Y-73140746D01*
X102401928Y-73314000D01*
X102401928Y-74514000D01*
X102418992Y-74687254D01*
X102469528Y-74853850D01*
X102551595Y-75007386D01*
X102662038Y-75141962D01*
X102796614Y-75252405D01*
X102898337Y-75306777D01*
X102834866Y-75358866D01*
X102649294Y-75584986D01*
X102511401Y-75842966D01*
X102426487Y-76122889D01*
X102397815Y-76414000D01*
X91988689Y-76414000D01*
X91929496Y-76327000D01*
X90725000Y-76327000D01*
X90725000Y-76347000D01*
X90471000Y-76347000D01*
X90471000Y-76327000D01*
X90451000Y-76327000D01*
X90451000Y-76073000D01*
X90471000Y-76073000D01*
X90471000Y-74629845D01*
X90725000Y-74629845D01*
X90725000Y-76073000D01*
X91929496Y-76073000D01*
X92089140Y-75838360D01*
X92038708Y-75549598D01*
X91932911Y-75276223D01*
X91775814Y-75028741D01*
X91573454Y-74816663D01*
X91333608Y-74648138D01*
X91065493Y-74529643D01*
X90954890Y-74508524D01*
X90725000Y-74629845D01*
X90471000Y-74629845D01*
X90241110Y-74508524D01*
X90130507Y-74529643D01*
X89862392Y-74648138D01*
X89622546Y-74816663D01*
X89420186Y-75028741D01*
X89349185Y-75140592D01*
X89338706Y-75120986D01*
X89153134Y-74894866D01*
X88927013Y-74709294D01*
X88669033Y-74571401D01*
X88389110Y-74486487D01*
X88098000Y-74457815D01*
X87806889Y-74486487D01*
X87526966Y-74571401D01*
X87268986Y-74709294D01*
X87042866Y-74894866D01*
X86990777Y-74958337D01*
X86936405Y-74856614D01*
X86825962Y-74722038D01*
X86691386Y-74611595D01*
X86537850Y-74529528D01*
X86371254Y-74478992D01*
X86198000Y-74461928D01*
X84998000Y-74461928D01*
X84824746Y-74478992D01*
X84658150Y-74529528D01*
X84504614Y-74611595D01*
X84370038Y-74722038D01*
X84259595Y-74856614D01*
X84177528Y-75010150D01*
X84126992Y-75176746D01*
X84109928Y-75350000D01*
X84109928Y-77050000D01*
X84126992Y-77223254D01*
X84177528Y-77389850D01*
X84259595Y-77543386D01*
X84370038Y-77677962D01*
X84504614Y-77788405D01*
X84658150Y-77870472D01*
X84824746Y-77921008D01*
X84998000Y-77938072D01*
X86198000Y-77938072D01*
X86371254Y-77921008D01*
X86537850Y-77870472D01*
X86691386Y-77788405D01*
X86825962Y-77677962D01*
X86936405Y-77543386D01*
X86990777Y-77441663D01*
X87042866Y-77505134D01*
X87268987Y-77690706D01*
X87526967Y-77828599D01*
X87806890Y-77913513D01*
X88098000Y-77942185D01*
X88389111Y-77913513D01*
X88491617Y-77882418D01*
X90621197Y-80012000D01*
X81808803Y-80012000D01*
X79587023Y-77790221D01*
X79778890Y-77891476D01*
X79889493Y-77870357D01*
X80157608Y-77751862D01*
X80397454Y-77583337D01*
X80599814Y-77371259D01*
X80756911Y-77123777D01*
X80862708Y-76850402D01*
X80913140Y-76561640D01*
X80753496Y-76327000D01*
X79549000Y-76327000D01*
X79549000Y-76347000D01*
X79295000Y-76347000D01*
X79295000Y-76327000D01*
X79275000Y-76327000D01*
X79275000Y-76073000D01*
X79295000Y-76073000D01*
X79295000Y-74629845D01*
X79549000Y-74629845D01*
X79549000Y-76073000D01*
X80753496Y-76073000D01*
X80913140Y-75838360D01*
X80862708Y-75549598D01*
X80756911Y-75276223D01*
X80599814Y-75028741D01*
X80397454Y-74816663D01*
X80157608Y-74648138D01*
X79889493Y-74529643D01*
X79778890Y-74508524D01*
X79549000Y-74629845D01*
X79295000Y-74629845D01*
X79065110Y-74508524D01*
X78954507Y-74529643D01*
X78686392Y-74648138D01*
X78446546Y-74816663D01*
X78244186Y-75028741D01*
X78173185Y-75140592D01*
X78162706Y-75120986D01*
X77977134Y-74894866D01*
X77751013Y-74709294D01*
X77493033Y-74571401D01*
X77213110Y-74486487D01*
X76922000Y-74457815D01*
X76630889Y-74486487D01*
X76350966Y-74571401D01*
X76092986Y-74709294D01*
X75866866Y-74894866D01*
X75814777Y-74958337D01*
X75760405Y-74856614D01*
X75649962Y-74722038D01*
X75515386Y-74611595D01*
X75361850Y-74529528D01*
X75195254Y-74478992D01*
X75022000Y-74461928D01*
X73822000Y-74461928D01*
X73648746Y-74478992D01*
X73529000Y-74515316D01*
X73529000Y-73010578D01*
X73963079Y-72576500D01*
X96045046Y-72576500D01*
X96093244Y-72608705D01*
X96281602Y-72686726D01*
X96481561Y-72726500D01*
X96685439Y-72726500D01*
X96885398Y-72686726D01*
X97073756Y-72608705D01*
X97243274Y-72495437D01*
X97387437Y-72351274D01*
X97500705Y-72181756D01*
X97578726Y-71993398D01*
X97618500Y-71793439D01*
X97618500Y-71589561D01*
X97578726Y-71389602D01*
X97500705Y-71201244D01*
X97387437Y-71031726D01*
X97243274Y-70887563D01*
X97073756Y-70774295D01*
X96885398Y-70696274D01*
X96685439Y-70656500D01*
X96481561Y-70656500D01*
X96281602Y-70696274D01*
X96093244Y-70774295D01*
X96045046Y-70806500D01*
X73639965Y-70806500D01*
X73596499Y-70802219D01*
X73553033Y-70806500D01*
X73553023Y-70806500D01*
X73423010Y-70819305D01*
X73256187Y-70869911D01*
X73102441Y-70952089D01*
X73102439Y-70952090D01*
X73102440Y-70952090D01*
X73001453Y-71034968D01*
X73001451Y-71034970D01*
X72967683Y-71062683D01*
X72939970Y-71096451D01*
X72048956Y-71987466D01*
X72015183Y-72015183D01*
X71904589Y-72149942D01*
X71822411Y-72303688D01*
X71771805Y-72470511D01*
X71759000Y-72600524D01*
X71759000Y-72600531D01*
X71754719Y-72644000D01*
X71759000Y-72687469D01*
X71759001Y-81669478D01*
X71729241Y-81689363D01*
X71529363Y-81889241D01*
X71372320Y-82124273D01*
X71264147Y-82385426D01*
X71245000Y-82481683D01*
X71245000Y-77634325D01*
X71248676Y-77597000D01*
X71245000Y-77559675D01*
X71245000Y-77559667D01*
X71234003Y-77448014D01*
X71190546Y-77304753D01*
X71119974Y-77172724D01*
X71025001Y-77056999D01*
X70996003Y-77033201D01*
X67776983Y-73814182D01*
X67753513Y-73575889D01*
X67668599Y-73295966D01*
X67530706Y-73037986D01*
X67345134Y-72811866D01*
X67119014Y-72626294D01*
X67101626Y-72617000D01*
X67119014Y-72607706D01*
X67345134Y-72422134D01*
X67530706Y-72196014D01*
X67668599Y-71938034D01*
X67753513Y-71658111D01*
X67782185Y-71367000D01*
X67753513Y-71075889D01*
X67668599Y-70795966D01*
X67530706Y-70537986D01*
X67345134Y-70311866D01*
X67119014Y-70126294D01*
X66861034Y-69988401D01*
X66581111Y-69903487D01*
X66362950Y-69882000D01*
X65717050Y-69882000D01*
X65498889Y-69903487D01*
X65218966Y-69988401D01*
X64960986Y-70126294D01*
X64734866Y-70311866D01*
X64549294Y-70537986D01*
X64411401Y-70795966D01*
X64326487Y-71075889D01*
X64297815Y-71367000D01*
X60345000Y-71367000D01*
X60345000Y-71220740D01*
X60287932Y-70933842D01*
X60175990Y-70663589D01*
X60013475Y-70420368D01*
X59806632Y-70213525D01*
X59563411Y-70051010D01*
X59293158Y-69939068D01*
X59006260Y-69882000D01*
X58713740Y-69882000D01*
X58426842Y-69939068D01*
X58156589Y-70051010D01*
X57913368Y-70213525D01*
X57706525Y-70420368D01*
X57544010Y-70663589D01*
X57432068Y-70933842D01*
X57375000Y-71220740D01*
X55660000Y-71220740D01*
X55660000Y-67532279D01*
X55698147Y-67143225D01*
X55801763Y-66800033D01*
X55970062Y-66483511D01*
X56196637Y-66205701D01*
X56472856Y-65977194D01*
X56788197Y-65806690D01*
X57130656Y-65700681D01*
X57517712Y-65660000D01*
X68793077Y-65660000D01*
X68566634Y-65753796D01*
%TA.AperFunction,Conductor*%
D20*
G36*
X68566634Y-65753796D02*
G01*
X68243901Y-65969439D01*
X67969439Y-66243901D01*
X67753796Y-66566634D01*
X67605258Y-66925236D01*
X67529534Y-67305926D01*
X67529534Y-67694074D01*
X67605258Y-68074764D01*
X67753796Y-68433366D01*
X67969439Y-68756099D01*
X68243901Y-69030561D01*
X68566634Y-69246204D01*
X68925236Y-69394742D01*
X69305926Y-69470466D01*
X69694074Y-69470466D01*
X70074764Y-69394742D01*
X70433366Y-69246204D01*
X70756099Y-69030561D01*
X70912920Y-68873740D01*
X72937000Y-68873740D01*
X72937000Y-69166260D01*
X72994068Y-69453158D01*
X73106010Y-69723411D01*
X73268525Y-69966632D01*
X73475368Y-70173475D01*
X73718589Y-70335990D01*
X73988842Y-70447932D01*
X74275740Y-70505000D01*
X74568260Y-70505000D01*
X74855158Y-70447932D01*
X75125411Y-70335990D01*
X75368632Y-70173475D01*
X75575475Y-69966632D01*
X75737990Y-69723411D01*
X75849932Y-69453158D01*
X75907000Y-69166260D01*
X75907000Y-68873740D01*
X77937000Y-68873740D01*
X77937000Y-69166260D01*
X77994068Y-69453158D01*
X78106010Y-69723411D01*
X78268525Y-69966632D01*
X78475368Y-70173475D01*
X78718589Y-70335990D01*
X78988842Y-70447932D01*
X79275740Y-70505000D01*
X79568260Y-70505000D01*
X79855158Y-70447932D01*
X80125411Y-70335990D01*
X80368632Y-70173475D01*
X80575475Y-69966632D01*
X80737990Y-69723411D01*
X80849932Y-69453158D01*
X80907000Y-69166260D01*
X80907000Y-68873740D01*
X84113000Y-68873740D01*
X84113000Y-69166260D01*
X84170068Y-69453158D01*
X84282010Y-69723411D01*
X84444525Y-69966632D01*
X84651368Y-70173475D01*
X84894589Y-70335990D01*
X85164842Y-70447932D01*
X85451740Y-70505000D01*
X85744260Y-70505000D01*
X86031158Y-70447932D01*
X86301411Y-70335990D01*
X86544632Y-70173475D01*
X86751475Y-69966632D01*
X86913990Y-69723411D01*
X87025932Y-69453158D01*
X87083000Y-69166260D01*
X87083000Y-68873740D01*
X89113000Y-68873740D01*
X89113000Y-69166260D01*
X89170068Y-69453158D01*
X89282010Y-69723411D01*
X89444525Y-69966632D01*
X89651368Y-70173475D01*
X89894589Y-70335990D01*
X90164842Y-70447932D01*
X90451740Y-70505000D01*
X90744260Y-70505000D01*
X91031158Y-70447932D01*
X91301411Y-70335990D01*
X91544632Y-70173475D01*
X91751475Y-69966632D01*
X91913990Y-69723411D01*
X92025932Y-69453158D01*
X92083000Y-69166260D01*
X92083000Y-68873740D01*
X92025932Y-68586842D01*
X91913990Y-68316589D01*
X91751475Y-68073368D01*
X91544632Y-67866525D01*
X91301411Y-67704010D01*
X91031158Y-67592068D01*
X90744260Y-67535000D01*
X90451740Y-67535000D01*
X90164842Y-67592068D01*
X89894589Y-67704010D01*
X89651368Y-67866525D01*
X89444525Y-68073368D01*
X89282010Y-68316589D01*
X89170068Y-68586842D01*
X89113000Y-68873740D01*
X87083000Y-68873740D01*
X87025932Y-68586842D01*
X86913990Y-68316589D01*
X86751475Y-68073368D01*
X86544632Y-67866525D01*
X86301411Y-67704010D01*
X86031158Y-67592068D01*
X85744260Y-67535000D01*
X85451740Y-67535000D01*
X85164842Y-67592068D01*
X84894589Y-67704010D01*
X84651368Y-67866525D01*
X84444525Y-68073368D01*
X84282010Y-68316589D01*
X84170068Y-68586842D01*
X84113000Y-68873740D01*
X80907000Y-68873740D01*
X80849932Y-68586842D01*
X80737990Y-68316589D01*
X80575475Y-68073368D01*
X80368632Y-67866525D01*
X80125411Y-67704010D01*
X79855158Y-67592068D01*
X79568260Y-67535000D01*
X79275740Y-67535000D01*
X78988842Y-67592068D01*
X78718589Y-67704010D01*
X78475368Y-67866525D01*
X78268525Y-68073368D01*
X78106010Y-68316589D01*
X77994068Y-68586842D01*
X77937000Y-68873740D01*
X75907000Y-68873740D01*
X75849932Y-68586842D01*
X75737990Y-68316589D01*
X75575475Y-68073368D01*
X75368632Y-67866525D01*
X75125411Y-67704010D01*
X74855158Y-67592068D01*
X74568260Y-67535000D01*
X74275740Y-67535000D01*
X73988842Y-67592068D01*
X73718589Y-67704010D01*
X73475368Y-67866525D01*
X73268525Y-68073368D01*
X73106010Y-68316589D01*
X72994068Y-68586842D01*
X72937000Y-68873740D01*
X70912920Y-68873740D01*
X71030561Y-68756099D01*
X71246204Y-68433366D01*
X71394742Y-68074764D01*
X71470466Y-67694074D01*
X71470466Y-67305926D01*
X71394742Y-66925236D01*
X71246204Y-66566634D01*
X71030561Y-66243901D01*
X70756099Y-65969439D01*
X70433366Y-65753796D01*
X70206923Y-65660000D01*
X111793077Y-65660000D01*
X111566634Y-65753796D01*
X111243901Y-65969439D01*
X110969439Y-66243901D01*
X110753796Y-66566634D01*
X110605258Y-66925236D01*
X110529534Y-67305926D01*
X110529534Y-67694074D01*
X110605258Y-68074764D01*
X110753796Y-68433366D01*
X110969439Y-68756099D01*
X111243901Y-69030561D01*
X111566634Y-69246204D01*
X111925236Y-69394742D01*
X112305926Y-69470466D01*
X112694074Y-69470466D01*
X113074764Y-69394742D01*
X113433366Y-69246204D01*
X113756099Y-69030561D01*
X114030561Y-68756099D01*
X114246204Y-68433366D01*
X114340000Y-68206923D01*
X114340001Y-101793080D01*
X114246204Y-101566634D01*
X114030561Y-101243901D01*
X113756099Y-100969439D01*
X113433366Y-100753796D01*
X113074764Y-100605258D01*
X112694074Y-100529534D01*
X112305926Y-100529534D01*
X111925236Y-100605258D01*
X111566634Y-100753796D01*
X111243901Y-100969439D01*
X110969439Y-101243901D01*
X110753796Y-101566634D01*
X110605258Y-101925236D01*
X110529534Y-102305926D01*
X110529534Y-102694074D01*
X110605258Y-103074764D01*
X110753796Y-103433366D01*
X110969439Y-103756099D01*
X111243901Y-104030561D01*
X111566634Y-104246204D01*
X111793077Y-104340000D01*
X70206923Y-104340000D01*
X70433366Y-104246204D01*
X70756099Y-104030561D01*
X71030561Y-103756099D01*
X71246204Y-103433366D01*
X71394742Y-103074764D01*
X71470466Y-102694074D01*
X71470466Y-102305926D01*
X71394742Y-101925236D01*
X71246204Y-101566634D01*
X71030561Y-101243901D01*
X70756099Y-100969439D01*
X70433366Y-100753796D01*
X70074764Y-100605258D01*
X69694074Y-100529534D01*
X69305926Y-100529534D01*
X68925236Y-100605258D01*
X68566634Y-100753796D01*
X68243901Y-100969439D01*
X67969439Y-101243901D01*
X67753796Y-101566634D01*
X67605258Y-101925236D01*
X67529534Y-102305926D01*
X67529534Y-102694074D01*
X67605258Y-103074764D01*
X67753796Y-103433366D01*
X67969439Y-103756099D01*
X68243901Y-104030561D01*
X68566634Y-104246204D01*
X68793077Y-104340000D01*
X57532279Y-104340000D01*
X57143224Y-104301853D01*
X56800036Y-104198238D01*
X56483511Y-104029939D01*
X56205704Y-103803365D01*
X55977195Y-103527146D01*
X55806690Y-103211803D01*
X55700681Y-102869344D01*
X55660000Y-102482288D01*
X55660000Y-98278740D01*
X57375000Y-98278740D01*
X57375000Y-98571260D01*
X57432068Y-98858158D01*
X57544010Y-99128411D01*
X57706525Y-99371632D01*
X57913368Y-99578475D01*
X58156589Y-99740990D01*
X58426842Y-99852932D01*
X58713740Y-99910000D01*
X59006260Y-99910000D01*
X59293158Y-99852932D01*
X59563411Y-99740990D01*
X59806632Y-99578475D01*
X60013475Y-99371632D01*
X60175990Y-99128411D01*
X60287932Y-98858158D01*
X60345000Y-98571260D01*
X60345000Y-98278740D01*
X60287932Y-97991842D01*
X60175990Y-97721589D01*
X60013475Y-97478368D01*
X59806632Y-97271525D01*
X59563411Y-97109010D01*
X59293158Y-96997068D01*
X59006260Y-96940000D01*
X58713740Y-96940000D01*
X58426842Y-96997068D01*
X58156589Y-97109010D01*
X57913368Y-97271525D01*
X57706525Y-97478368D01*
X57544010Y-97721589D01*
X57432068Y-97991842D01*
X57375000Y-98278740D01*
X55660000Y-98278740D01*
X55660000Y-90778740D01*
X57375000Y-90778740D01*
X57375000Y-91071260D01*
X57432068Y-91358158D01*
X57544010Y-91628411D01*
X57706525Y-91871632D01*
X57913368Y-92078475D01*
X58156589Y-92240990D01*
X58426842Y-92352932D01*
X58713740Y-92410000D01*
X59006260Y-92410000D01*
X59293158Y-92352932D01*
X59563411Y-92240990D01*
X59806632Y-92078475D01*
X60013475Y-91871632D01*
X60175990Y-91628411D01*
X60287932Y-91358158D01*
X60345000Y-91071260D01*
X60345000Y-90925000D01*
X64297815Y-90925000D01*
X64326487Y-91216111D01*
X64411401Y-91496034D01*
X64549294Y-91754014D01*
X64734866Y-91980134D01*
X64960986Y-92165706D01*
X64978374Y-92175000D01*
X64960986Y-92184294D01*
X64734866Y-92369866D01*
X64549294Y-92595986D01*
X64411401Y-92853966D01*
X64326487Y-93133889D01*
X64297815Y-93425000D01*
X64326487Y-93716111D01*
X64411401Y-93996034D01*
X64549294Y-94254014D01*
X64734866Y-94480134D01*
X64960986Y-94665706D01*
X64978374Y-94675000D01*
X64960986Y-94684294D01*
X64734866Y-94869866D01*
X64549294Y-95095986D01*
X64411401Y-95353966D01*
X64326487Y-95633889D01*
X64297815Y-95925000D01*
X64326487Y-96216111D01*
X64411401Y-96496034D01*
X64549294Y-96754014D01*
X64734866Y-96980134D01*
X64798337Y-97032223D01*
X64696614Y-97086595D01*
X64562038Y-97197038D01*
X64451595Y-97331614D01*
X64369528Y-97485150D01*
X64318992Y-97651746D01*
X64301928Y-97825000D01*
X64301928Y-99025000D01*
X64318992Y-99198254D01*
X64369528Y-99364850D01*
X64451595Y-99518386D01*
X64562038Y-99652962D01*
X64696614Y-99763405D01*
X64850150Y-99845472D01*
X65016746Y-99896008D01*
X65190000Y-99913072D01*
X66890000Y-99913072D01*
X67063254Y-99896008D01*
X67229850Y-99845472D01*
X67383386Y-99763405D01*
X67517962Y-99652962D01*
X67628405Y-99518386D01*
X67710472Y-99364850D01*
X67761008Y-99198254D01*
X67778072Y-99025000D01*
X67778072Y-97825000D01*
X67761008Y-97651746D01*
X67710472Y-97485150D01*
X67628405Y-97331614D01*
X67556503Y-97244000D01*
X71205928Y-97244000D01*
X71205928Y-98844000D01*
X71218188Y-98968482D01*
X71254498Y-99088180D01*
X71313463Y-99198494D01*
X71392815Y-99295185D01*
X71489506Y-99374537D01*
X71599820Y-99433502D01*
X71719518Y-99469812D01*
X71844000Y-99482072D01*
X73444000Y-99482072D01*
X73568482Y-99469812D01*
X73688180Y-99433502D01*
X73798494Y-99374537D01*
X73895185Y-99295185D01*
X73974537Y-99198494D01*
X74033502Y-99088180D01*
X74069812Y-98968482D01*
X74070643Y-98960039D01*
X74269241Y-99158637D01*
X74504273Y-99315680D01*
X74765426Y-99423853D01*
X75042665Y-99479000D01*
X75325335Y-99479000D01*
X75602574Y-99423853D01*
X75863727Y-99315680D01*
X76098759Y-99158637D01*
X76298637Y-98958759D01*
X76454000Y-98726241D01*
X76609363Y-98958759D01*
X76809241Y-99158637D01*
X77044273Y-99315680D01*
X77305426Y-99423853D01*
X77582665Y-99479000D01*
X77865335Y-99479000D01*
X78142574Y-99423853D01*
X78403727Y-99315680D01*
X78638759Y-99158637D01*
X78838637Y-98958759D01*
X78994000Y-98726241D01*
X79149363Y-98958759D01*
X79349241Y-99158637D01*
X79584273Y-99315680D01*
X79845426Y-99423853D01*
X80122665Y-99479000D01*
X80405335Y-99479000D01*
X80682574Y-99423853D01*
X80943727Y-99315680D01*
X81178759Y-99158637D01*
X81378637Y-98958759D01*
X81534000Y-98726241D01*
X81689363Y-98958759D01*
X81889241Y-99158637D01*
X82124273Y-99315680D01*
X82385426Y-99423853D01*
X82662665Y-99479000D01*
X82945335Y-99479000D01*
X83222574Y-99423853D01*
X83483727Y-99315680D01*
X83718759Y-99158637D01*
X83918637Y-98958759D01*
X84074000Y-98726241D01*
X84229363Y-98958759D01*
X84429241Y-99158637D01*
X84664273Y-99315680D01*
X84925426Y-99423853D01*
X85202665Y-99479000D01*
X85485335Y-99479000D01*
X85762574Y-99423853D01*
X86023727Y-99315680D01*
X86258759Y-99158637D01*
X86458637Y-98958759D01*
X86614000Y-98726241D01*
X86769363Y-98958759D01*
X86969241Y-99158637D01*
X87204273Y-99315680D01*
X87465426Y-99423853D01*
X87742665Y-99479000D01*
X88025335Y-99479000D01*
X88302574Y-99423853D01*
X88563727Y-99315680D01*
X88798759Y-99158637D01*
X88998637Y-98958759D01*
X89154000Y-98726241D01*
X89309363Y-98958759D01*
X89509241Y-99158637D01*
X89744273Y-99315680D01*
X90005426Y-99423853D01*
X90282665Y-99479000D01*
X90565335Y-99479000D01*
X90842574Y-99423853D01*
X91103727Y-99315680D01*
X91338759Y-99158637D01*
X91538637Y-98958759D01*
X91694000Y-98726241D01*
X91849363Y-98958759D01*
X92049241Y-99158637D01*
X92284273Y-99315680D01*
X92545426Y-99423853D01*
X92822665Y-99479000D01*
X93105335Y-99479000D01*
X93382574Y-99423853D01*
X93643727Y-99315680D01*
X93878759Y-99158637D01*
X94078637Y-98958759D01*
X94234000Y-98726241D01*
X94389363Y-98958759D01*
X94589241Y-99158637D01*
X94824273Y-99315680D01*
X95085426Y-99423853D01*
X95362665Y-99479000D01*
X95645335Y-99479000D01*
X95922574Y-99423853D01*
X96183727Y-99315680D01*
X96418759Y-99158637D01*
X96618637Y-98958759D01*
X96774000Y-98726241D01*
X96929363Y-98958759D01*
X97129241Y-99158637D01*
X97364273Y-99315680D01*
X97625426Y-99423853D01*
X97902665Y-99479000D01*
X98185335Y-99479000D01*
X98462574Y-99423853D01*
X98723727Y-99315680D01*
X98958759Y-99158637D01*
X99158637Y-98958759D01*
X99314000Y-98726241D01*
X99469363Y-98958759D01*
X99669241Y-99158637D01*
X99904273Y-99315680D01*
X100165426Y-99423853D01*
X100442665Y-99479000D01*
X100725335Y-99479000D01*
X101002574Y-99423853D01*
X101263727Y-99315680D01*
X101498759Y-99158637D01*
X101698637Y-98958759D01*
X101854000Y-98726241D01*
X102009363Y-98958759D01*
X102209241Y-99158637D01*
X102444273Y-99315680D01*
X102705426Y-99423853D01*
X102982665Y-99479000D01*
X103265335Y-99479000D01*
X103542574Y-99423853D01*
X103803727Y-99315680D01*
X104038759Y-99158637D01*
X104238637Y-98958759D01*
X104394000Y-98726241D01*
X104549363Y-98958759D01*
X104749241Y-99158637D01*
X104984273Y-99315680D01*
X105245426Y-99423853D01*
X105522665Y-99479000D01*
X105805335Y-99479000D01*
X106082574Y-99423853D01*
X106343727Y-99315680D01*
X106578759Y-99158637D01*
X106778637Y-98958759D01*
X106934000Y-98726241D01*
X107089363Y-98958759D01*
X107289241Y-99158637D01*
X107524273Y-99315680D01*
X107785426Y-99423853D01*
X108062665Y-99479000D01*
X108345335Y-99479000D01*
X108622574Y-99423853D01*
X108883727Y-99315680D01*
X109118759Y-99158637D01*
X109318637Y-98958759D01*
X109475680Y-98723727D01*
X109583853Y-98462574D01*
X109639000Y-98185335D01*
X109639000Y-97902665D01*
X109583853Y-97625426D01*
X109475680Y-97364273D01*
X109318637Y-97129241D01*
X109118759Y-96929363D01*
X108883727Y-96772320D01*
X108622574Y-96664147D01*
X108345335Y-96609000D01*
X108062665Y-96609000D01*
X107785426Y-96664147D01*
X107524273Y-96772320D01*
X107289241Y-96929363D01*
X107089363Y-97129241D01*
X106934000Y-97361759D01*
X106778637Y-97129241D01*
X106578759Y-96929363D01*
X106343727Y-96772320D01*
X106082574Y-96664147D01*
X105805335Y-96609000D01*
X105522665Y-96609000D01*
X105245426Y-96664147D01*
X104984273Y-96772320D01*
X104749241Y-96929363D01*
X104549363Y-97129241D01*
X104394000Y-97361759D01*
X104238637Y-97129241D01*
X104038759Y-96929363D01*
X103803727Y-96772320D01*
X103542574Y-96664147D01*
X103265335Y-96609000D01*
X102982665Y-96609000D01*
X102705426Y-96664147D01*
X102444273Y-96772320D01*
X102209241Y-96929363D01*
X102009363Y-97129241D01*
X101854000Y-97361759D01*
X101698637Y-97129241D01*
X101498759Y-96929363D01*
X101263727Y-96772320D01*
X101002574Y-96664147D01*
X100725335Y-96609000D01*
X100442665Y-96609000D01*
X100165426Y-96664147D01*
X99904273Y-96772320D01*
X99669241Y-96929363D01*
X99469363Y-97129241D01*
X99314000Y-97361759D01*
X99158637Y-97129241D01*
X98958759Y-96929363D01*
X98723727Y-96772320D01*
X98462574Y-96664147D01*
X98185335Y-96609000D01*
X97902665Y-96609000D01*
X97625426Y-96664147D01*
X97364273Y-96772320D01*
X97129241Y-96929363D01*
X96929363Y-97129241D01*
X96774000Y-97361759D01*
X96618637Y-97129241D01*
X96418759Y-96929363D01*
X96183727Y-96772320D01*
X95922574Y-96664147D01*
X95645335Y-96609000D01*
X95362665Y-96609000D01*
X95085426Y-96664147D01*
X94824273Y-96772320D01*
X94589241Y-96929363D01*
X94389363Y-97129241D01*
X94234000Y-97361759D01*
X94078637Y-97129241D01*
X93878759Y-96929363D01*
X93643727Y-96772320D01*
X93382574Y-96664147D01*
X93105335Y-96609000D01*
X92822665Y-96609000D01*
X92545426Y-96664147D01*
X92284273Y-96772320D01*
X92049241Y-96929363D01*
X91849363Y-97129241D01*
X91694000Y-97361759D01*
X91538637Y-97129241D01*
X91338759Y-96929363D01*
X91103727Y-96772320D01*
X90842574Y-96664147D01*
X90565335Y-96609000D01*
X90282665Y-96609000D01*
X90005426Y-96664147D01*
X89744273Y-96772320D01*
X89509241Y-96929363D01*
X89309363Y-97129241D01*
X89154000Y-97361759D01*
X88998637Y-97129241D01*
X88798759Y-96929363D01*
X88563727Y-96772320D01*
X88302574Y-96664147D01*
X88025335Y-96609000D01*
X87742665Y-96609000D01*
X87465426Y-96664147D01*
X87204273Y-96772320D01*
X86969241Y-96929363D01*
X86769363Y-97129241D01*
X86614000Y-97361759D01*
X86458637Y-97129241D01*
X86258759Y-96929363D01*
X86023727Y-96772320D01*
X85762574Y-96664147D01*
X85485335Y-96609000D01*
X85202665Y-96609000D01*
X84925426Y-96664147D01*
X84664273Y-96772320D01*
X84429241Y-96929363D01*
X84229363Y-97129241D01*
X84074000Y-97361759D01*
X83918637Y-97129241D01*
X83718759Y-96929363D01*
X83483727Y-96772320D01*
X83222574Y-96664147D01*
X82945335Y-96609000D01*
X82662665Y-96609000D01*
X82385426Y-96664147D01*
X82124273Y-96772320D01*
X81889241Y-96929363D01*
X81689363Y-97129241D01*
X81534000Y-97361759D01*
X81378637Y-97129241D01*
X81178759Y-96929363D01*
X80943727Y-96772320D01*
X80682574Y-96664147D01*
X80405335Y-96609000D01*
X80122665Y-96609000D01*
X79845426Y-96664147D01*
X79584273Y-96772320D01*
X79349241Y-96929363D01*
X79149363Y-97129241D01*
X78994000Y-97361759D01*
X78838637Y-97129241D01*
X78638759Y-96929363D01*
X78403727Y-96772320D01*
X78142574Y-96664147D01*
X77865335Y-96609000D01*
X77582665Y-96609000D01*
X77305426Y-96664147D01*
X77044273Y-96772320D01*
X76809241Y-96929363D01*
X76609363Y-97129241D01*
X76454000Y-97361759D01*
X76298637Y-97129241D01*
X76098759Y-96929363D01*
X75863727Y-96772320D01*
X75602574Y-96664147D01*
X75325335Y-96609000D01*
X75042665Y-96609000D01*
X74765426Y-96664147D01*
X74504273Y-96772320D01*
X74269241Y-96929363D01*
X74070643Y-97127961D01*
X74069812Y-97119518D01*
X74033502Y-96999820D01*
X73974537Y-96889506D01*
X73895185Y-96792815D01*
X73798494Y-96713463D01*
X73688180Y-96654498D01*
X73568482Y-96618188D01*
X73444000Y-96605928D01*
X71844000Y-96605928D01*
X71719518Y-96618188D01*
X71599820Y-96654498D01*
X71489506Y-96713463D01*
X71392815Y-96792815D01*
X71313463Y-96889506D01*
X71254498Y-96999820D01*
X71218188Y-97119518D01*
X71205928Y-97244000D01*
X67556503Y-97244000D01*
X67517962Y-97197038D01*
X67383386Y-97086595D01*
X67281663Y-97032223D01*
X67345134Y-96980134D01*
X67530706Y-96754014D01*
X67668599Y-96496034D01*
X67753513Y-96216111D01*
X67782185Y-95925000D01*
X67753513Y-95633889D01*
X67668599Y-95353966D01*
X67530706Y-95095986D01*
X67345134Y-94869866D01*
X67119014Y-94684294D01*
X67101626Y-94675000D01*
X67119014Y-94665706D01*
X67345134Y-94480134D01*
X67530706Y-94254014D01*
X67668599Y-93996034D01*
X67753513Y-93716111D01*
X67782185Y-93425000D01*
X67753513Y-93133889D01*
X67668599Y-92853966D01*
X67530706Y-92595986D01*
X67345134Y-92369866D01*
X67119014Y-92184294D01*
X67101626Y-92175000D01*
X67119014Y-92165706D01*
X67345134Y-91980134D01*
X67530706Y-91754014D01*
X67668599Y-91496034D01*
X67753513Y-91216111D01*
X67782185Y-90925000D01*
X67753513Y-90633889D01*
X67668599Y-90353966D01*
X67530706Y-90095986D01*
X67345134Y-89869866D01*
X67119014Y-89684294D01*
X66861034Y-89546401D01*
X66581111Y-89461487D01*
X66362950Y-89440000D01*
X65717050Y-89440000D01*
X65498889Y-89461487D01*
X65218966Y-89546401D01*
X64960986Y-89684294D01*
X64734866Y-89869866D01*
X64549294Y-90095986D01*
X64411401Y-90353966D01*
X64326487Y-90633889D01*
X64297815Y-90925000D01*
X60345000Y-90925000D01*
X60345000Y-90778740D01*
X60287932Y-90491842D01*
X60175990Y-90221589D01*
X60013475Y-89978368D01*
X59806632Y-89771525D01*
X59563411Y-89609010D01*
X59293158Y-89497068D01*
X59006260Y-89440000D01*
X58713740Y-89440000D01*
X58426842Y-89497068D01*
X58156589Y-89609010D01*
X57913368Y-89771525D01*
X57706525Y-89978368D01*
X57544010Y-90221589D01*
X57432068Y-90491842D01*
X57375000Y-90778740D01*
X55660000Y-90778740D01*
X55660000Y-83205740D01*
X57375000Y-83205740D01*
X57375000Y-83498260D01*
X57432068Y-83785158D01*
X57544010Y-84055411D01*
X57706525Y-84298632D01*
X57913368Y-84505475D01*
X58057828Y-84602000D01*
X57913368Y-84698525D01*
X57706525Y-84905368D01*
X57544010Y-85148589D01*
X57432068Y-85418842D01*
X57375000Y-85705740D01*
X57375000Y-85998260D01*
X57432068Y-86285158D01*
X57544010Y-86555411D01*
X57706525Y-86798632D01*
X57913368Y-87005475D01*
X58156589Y-87167990D01*
X58426842Y-87279932D01*
X58713740Y-87337000D01*
X59006260Y-87337000D01*
X59293158Y-87279932D01*
X59563411Y-87167990D01*
X59806632Y-87005475D01*
X60013475Y-86798632D01*
X60078042Y-86702000D01*
X64301928Y-86702000D01*
X64314188Y-86826482D01*
X64350498Y-86946180D01*
X64409463Y-87056494D01*
X64488815Y-87153185D01*
X64585506Y-87232537D01*
X64695820Y-87291502D01*
X64815518Y-87327812D01*
X64940000Y-87340072D01*
X65754250Y-87337000D01*
X65913000Y-87178250D01*
X65913000Y-85979000D01*
X66167000Y-85979000D01*
X66167000Y-87178250D01*
X66325750Y-87337000D01*
X67140000Y-87340072D01*
X67264482Y-87327812D01*
X67384180Y-87291502D01*
X67494494Y-87232537D01*
X67591185Y-87153185D01*
X67670537Y-87056494D01*
X67729502Y-86946180D01*
X67765812Y-86826482D01*
X67778072Y-86702000D01*
X67775000Y-86137750D01*
X67616250Y-85979000D01*
X66167000Y-85979000D01*
X65913000Y-85979000D01*
X64463750Y-85979000D01*
X64305000Y-86137750D01*
X64301928Y-86702000D01*
X60078042Y-86702000D01*
X60175990Y-86555411D01*
X60287932Y-86285158D01*
X60345000Y-85998260D01*
X60345000Y-85705740D01*
X60287932Y-85418842D01*
X60175990Y-85148589D01*
X60013475Y-84905368D01*
X59806632Y-84698525D01*
X59662172Y-84602000D01*
X59806632Y-84505475D01*
X60013475Y-84298632D01*
X60175990Y-84055411D01*
X60287932Y-83785158D01*
X60345000Y-83498260D01*
X60345000Y-83352000D01*
X64297815Y-83352000D01*
X64326487Y-83643111D01*
X64411401Y-83923034D01*
X64549294Y-84181014D01*
X64730608Y-84401945D01*
X64695820Y-84412498D01*
X64585506Y-84471463D01*
X64488815Y-84550815D01*
X64409463Y-84647506D01*
X64350498Y-84757820D01*
X64314188Y-84877518D01*
X64301928Y-85002000D01*
X64305000Y-85566250D01*
X64463750Y-85725000D01*
X65913000Y-85725000D01*
X65913000Y-85705000D01*
X66167000Y-85705000D01*
X66167000Y-85725000D01*
X67616250Y-85725000D01*
X67775000Y-85566250D01*
X67778072Y-85002000D01*
X67765812Y-84877518D01*
X67729502Y-84757820D01*
X67670537Y-84647506D01*
X67591185Y-84550815D01*
X67494494Y-84471463D01*
X67384180Y-84412498D01*
X67349392Y-84401945D01*
X67530706Y-84181014D01*
X67668599Y-83923034D01*
X67753513Y-83643111D01*
X67782185Y-83352000D01*
X67753513Y-83060889D01*
X67668599Y-82780966D01*
X67530706Y-82522986D01*
X67345134Y-82296866D01*
X67119014Y-82111294D01*
X66861034Y-81973401D01*
X66581111Y-81888487D01*
X66362950Y-81867000D01*
X65717050Y-81867000D01*
X65498889Y-81888487D01*
X65218966Y-81973401D01*
X64960986Y-82111294D01*
X64734866Y-82296866D01*
X64549294Y-82522986D01*
X64411401Y-82780966D01*
X64326487Y-83060889D01*
X64297815Y-83352000D01*
X60345000Y-83352000D01*
X60345000Y-83205740D01*
X60287932Y-82918842D01*
X60175990Y-82648589D01*
X60013475Y-82405368D01*
X59806632Y-82198525D01*
X59563411Y-82036010D01*
X59293158Y-81924068D01*
X59006260Y-81867000D01*
X58713740Y-81867000D01*
X58426842Y-81924068D01*
X58156589Y-82036010D01*
X57913368Y-82198525D01*
X57706525Y-82405368D01*
X57544010Y-82648589D01*
X57432068Y-82918842D01*
X57375000Y-83205740D01*
X55660000Y-83205740D01*
X55660000Y-78720740D01*
X57375000Y-78720740D01*
X57375000Y-79013260D01*
X57432068Y-79300158D01*
X57544010Y-79570411D01*
X57706525Y-79813632D01*
X57913368Y-80020475D01*
X58156589Y-80182990D01*
X58426842Y-80294932D01*
X58713740Y-80352000D01*
X59006260Y-80352000D01*
X59293158Y-80294932D01*
X59563411Y-80182990D01*
X59806632Y-80020475D01*
X60013475Y-79813632D01*
X60175990Y-79570411D01*
X60287932Y-79300158D01*
X60345000Y-79013260D01*
X60345000Y-78720740D01*
X60287932Y-78433842D01*
X60175990Y-78163589D01*
X60013475Y-77920368D01*
X59806632Y-77713525D01*
X59563411Y-77551010D01*
X59293158Y-77439068D01*
X59006260Y-77382000D01*
X58713740Y-77382000D01*
X58426842Y-77439068D01*
X58156589Y-77551010D01*
X57913368Y-77713525D01*
X57706525Y-77920368D01*
X57544010Y-78163589D01*
X57432068Y-78433842D01*
X57375000Y-78720740D01*
X55660000Y-78720740D01*
X55660000Y-71220740D01*
X57375000Y-71220740D01*
X57375000Y-71513260D01*
X57432068Y-71800158D01*
X57544010Y-72070411D01*
X57706525Y-72313632D01*
X57913368Y-72520475D01*
X58156589Y-72682990D01*
X58426842Y-72794932D01*
X58713740Y-72852000D01*
X59006260Y-72852000D01*
X59293158Y-72794932D01*
X59563411Y-72682990D01*
X59806632Y-72520475D01*
X60013475Y-72313632D01*
X60175990Y-72070411D01*
X60287932Y-71800158D01*
X60345000Y-71513260D01*
X60345000Y-71367000D01*
X64297815Y-71367000D01*
X64326487Y-71658111D01*
X64411401Y-71938034D01*
X64549294Y-72196014D01*
X64734866Y-72422134D01*
X64960986Y-72607706D01*
X64978374Y-72617000D01*
X64960986Y-72626294D01*
X64734866Y-72811866D01*
X64549294Y-73037986D01*
X64411401Y-73295966D01*
X64326487Y-73575889D01*
X64297815Y-73867000D01*
X64326487Y-74158111D01*
X64411401Y-74438034D01*
X64549294Y-74696014D01*
X64734866Y-74922134D01*
X64960986Y-75107706D01*
X64978374Y-75117000D01*
X64960986Y-75126294D01*
X64734866Y-75311866D01*
X64549294Y-75537986D01*
X64411401Y-75795966D01*
X64326487Y-76075889D01*
X64297815Y-76367000D01*
X64326487Y-76658111D01*
X64411401Y-76938034D01*
X64549294Y-77196014D01*
X64734866Y-77422134D01*
X64798337Y-77474223D01*
X64696614Y-77528595D01*
X64562038Y-77639038D01*
X64451595Y-77773614D01*
X64369528Y-77927150D01*
X64318992Y-78093746D01*
X64301928Y-78267000D01*
X64301928Y-79467000D01*
X64318992Y-79640254D01*
X64369528Y-79806850D01*
X64451595Y-79960386D01*
X64562038Y-80094962D01*
X64696614Y-80205405D01*
X64850150Y-80287472D01*
X65016746Y-80338008D01*
X65190000Y-80355072D01*
X66530494Y-80355072D01*
X68008990Y-81833569D01*
X68008989Y-91598512D01*
X68008989Y-91598513D01*
X68008990Y-93488510D01*
X68004708Y-93531989D01*
X68021794Y-93705479D01*
X68072401Y-93872302D01*
X68154579Y-94026048D01*
X68237457Y-94127035D01*
X68237460Y-94127038D01*
X68265173Y-94160806D01*
X68298940Y-94188518D01*
X69574470Y-95464049D01*
X69602183Y-95497817D01*
X69635951Y-95525530D01*
X69635953Y-95525532D01*
X69707452Y-95584210D01*
X69736941Y-95608411D01*
X69890687Y-95690589D01*
X70057510Y-95741195D01*
X70187523Y-95754000D01*
X70187533Y-95754000D01*
X70230999Y-95758281D01*
X70274465Y-95754000D01*
X70417442Y-95754000D01*
X70441958Y-95790691D01*
X70521310Y-95887382D01*
X70590618Y-95956690D01*
X70687309Y-96036042D01*
X70768808Y-96090498D01*
X70879125Y-96149464D01*
X70969681Y-96186973D01*
X71089377Y-96223282D01*
X71185510Y-96242404D01*
X71309991Y-96254664D01*
X71334550Y-96254664D01*
X71359000Y-96257072D01*
X71859000Y-96257072D01*
X71983482Y-96244812D01*
X72103180Y-96208502D01*
X72213494Y-96149537D01*
X72310185Y-96070185D01*
X72389537Y-95973494D01*
X72448502Y-95863180D01*
X72484812Y-95743482D01*
X72497072Y-95619000D01*
X72497072Y-94119000D01*
X72484812Y-93994518D01*
X72448502Y-93874820D01*
X72389537Y-93764506D01*
X72335601Y-93698785D01*
X72394319Y-93680973D01*
X72484875Y-93643464D01*
X72595192Y-93584498D01*
X72676691Y-93530042D01*
X72749853Y-93470000D01*
X73345199Y-93470000D01*
X75890201Y-96015003D01*
X75913999Y-96044001D01*
X76029724Y-96138974D01*
X76161753Y-96209546D01*
X76305014Y-96253003D01*
X76416667Y-96264000D01*
X76416675Y-96264000D01*
X76454000Y-96267676D01*
X76491325Y-96264000D01*
X89497678Y-96264000D01*
X89535000Y-96267676D01*
X89572322Y-96264000D01*
X89572333Y-96264000D01*
X89683986Y-96253003D01*
X89827247Y-96209546D01*
X89959276Y-96138974D01*
X90075001Y-96044001D01*
X90098803Y-96014998D01*
X90935003Y-95178799D01*
X90964001Y-95155001D01*
X91058974Y-95039276D01*
X91129546Y-94907247D01*
X91173003Y-94763986D01*
X91184000Y-94652333D01*
X91184000Y-94652323D01*
X91187676Y-94615000D01*
X91184000Y-94577677D01*
X91184000Y-84022043D01*
X91338759Y-83918637D01*
X91538637Y-83718759D01*
X91694000Y-83486241D01*
X91849363Y-83718759D01*
X92049241Y-83918637D01*
X92284273Y-84075680D01*
X92545426Y-84183853D01*
X92822665Y-84239000D01*
X93105335Y-84239000D01*
X93382574Y-84183853D01*
X93643727Y-84075680D01*
X93878759Y-83918637D01*
X94078637Y-83718759D01*
X94234000Y-83486241D01*
X94389363Y-83718759D01*
X94589241Y-83918637D01*
X94824273Y-84075680D01*
X95085426Y-84183853D01*
X95362665Y-84239000D01*
X95645335Y-84239000D01*
X95922574Y-84183853D01*
X96183727Y-84075680D01*
X96418759Y-83918637D01*
X96618637Y-83718759D01*
X96774000Y-83486241D01*
X96929363Y-83718759D01*
X97129241Y-83918637D01*
X97364273Y-84075680D01*
X97625426Y-84183853D01*
X97902665Y-84239000D01*
X98185335Y-84239000D01*
X98462574Y-84183853D01*
X98723727Y-84075680D01*
X98958759Y-83918637D01*
X99158637Y-83718759D01*
X99314000Y-83486241D01*
X99469363Y-83718759D01*
X99669241Y-83918637D01*
X99904273Y-84075680D01*
X100165426Y-84183853D01*
X100442665Y-84239000D01*
X100725335Y-84239000D01*
X101002574Y-84183853D01*
X101263727Y-84075680D01*
X101498759Y-83918637D01*
X101698637Y-83718759D01*
X101854000Y-83486241D01*
X102009363Y-83718759D01*
X102209241Y-83918637D01*
X102444273Y-84075680D01*
X102705426Y-84183853D01*
X102982665Y-84239000D01*
X103265335Y-84239000D01*
X103542574Y-84183853D01*
X103803727Y-84075680D01*
X104038759Y-83918637D01*
X104238637Y-83718759D01*
X104394000Y-83486241D01*
X104549363Y-83718759D01*
X104749241Y-83918637D01*
X104984273Y-84075680D01*
X105245426Y-84183853D01*
X105522665Y-84239000D01*
X105805335Y-84239000D01*
X106082574Y-84183853D01*
X106343727Y-84075680D01*
X106578759Y-83918637D01*
X106778637Y-83718759D01*
X106934000Y-83486241D01*
X107089363Y-83718759D01*
X107289241Y-83918637D01*
X107524273Y-84075680D01*
X107785426Y-84183853D01*
X108062665Y-84239000D01*
X108345335Y-84239000D01*
X108622574Y-84183853D01*
X108883727Y-84075680D01*
X109118759Y-83918637D01*
X109318637Y-83718759D01*
X109475680Y-83483727D01*
X109583853Y-83222574D01*
X109639000Y-82945335D01*
X109639000Y-82662665D01*
X109583853Y-82385426D01*
X109475680Y-82124273D01*
X109318637Y-81889241D01*
X109118759Y-81689363D01*
X108883727Y-81532320D01*
X108622574Y-81424147D01*
X108345335Y-81369000D01*
X108062665Y-81369000D01*
X107785426Y-81424147D01*
X107524273Y-81532320D01*
X107289241Y-81689363D01*
X107089363Y-81889241D01*
X106934000Y-82121759D01*
X106778637Y-81889241D01*
X106578759Y-81689363D01*
X106343727Y-81532320D01*
X106082574Y-81424147D01*
X105805335Y-81369000D01*
X105522665Y-81369000D01*
X105245426Y-81424147D01*
X104984273Y-81532320D01*
X104749241Y-81689363D01*
X104549363Y-81889241D01*
X104394000Y-82121759D01*
X104238637Y-81889241D01*
X104038759Y-81689363D01*
X103803727Y-81532320D01*
X103542574Y-81424147D01*
X103265335Y-81369000D01*
X102982665Y-81369000D01*
X102705426Y-81424147D01*
X102444273Y-81532320D01*
X102209241Y-81689363D01*
X102009363Y-81889241D01*
X101854000Y-82121759D01*
X101698637Y-81889241D01*
X101498759Y-81689363D01*
X101263727Y-81532320D01*
X101002574Y-81424147D01*
X100725335Y-81369000D01*
X100442665Y-81369000D01*
X100260114Y-81405312D01*
X98226804Y-79372003D01*
X98203001Y-79342999D01*
X98087276Y-79248026D01*
X97955247Y-79177454D01*
X97811986Y-79133997D01*
X97700333Y-79123000D01*
X97700322Y-79123000D01*
X97663000Y-79119324D01*
X97625678Y-79123000D01*
X91881803Y-79123000D01*
X90693802Y-77935000D01*
X90725002Y-77935000D01*
X90725002Y-77770156D01*
X90954890Y-77891476D01*
X91065493Y-77870357D01*
X91333608Y-77751862D01*
X91573454Y-77583337D01*
X91775814Y-77371259D01*
X91932911Y-77123777D01*
X92038708Y-76850402D01*
X92089140Y-76561640D01*
X91988689Y-76414000D01*
X102397815Y-76414000D01*
X102426487Y-76705111D01*
X102511401Y-76985034D01*
X102649294Y-77243014D01*
X102834866Y-77469134D01*
X103060986Y-77654706D01*
X103318966Y-77792599D01*
X103598889Y-77877513D01*
X103817050Y-77899000D01*
X104462950Y-77899000D01*
X104681111Y-77877513D01*
X104961034Y-77792599D01*
X105219014Y-77654706D01*
X105445134Y-77469134D01*
X105630706Y-77243014D01*
X105768599Y-76985034D01*
X105853513Y-76705111D01*
X105882185Y-76414000D01*
X105853513Y-76122889D01*
X105768599Y-75842966D01*
X105630706Y-75584986D01*
X105445134Y-75358866D01*
X105381663Y-75306777D01*
X105483386Y-75252405D01*
X105617962Y-75141962D01*
X105728405Y-75007386D01*
X105810472Y-74853850D01*
X105861008Y-74687254D01*
X105878072Y-74514000D01*
X105878072Y-73767740D01*
X109835000Y-73767740D01*
X109835000Y-74060260D01*
X109892068Y-74347158D01*
X110004010Y-74617411D01*
X110166525Y-74860632D01*
X110373368Y-75067475D01*
X110517828Y-75164000D01*
X110373368Y-75260525D01*
X110166525Y-75467368D01*
X110004010Y-75710589D01*
X109892068Y-75980842D01*
X109835000Y-76267740D01*
X109835000Y-76560260D01*
X109892068Y-76847158D01*
X110004010Y-77117411D01*
X110166525Y-77360632D01*
X110373368Y-77567475D01*
X110616589Y-77729990D01*
X110886842Y-77841932D01*
X111173740Y-77899000D01*
X111466260Y-77899000D01*
X111753158Y-77841932D01*
X112023411Y-77729990D01*
X112266632Y-77567475D01*
X112473475Y-77360632D01*
X112635990Y-77117411D01*
X112747932Y-76847158D01*
X112805000Y-76560260D01*
X112805000Y-76267740D01*
X112747932Y-75980842D01*
X112635990Y-75710589D01*
X112473475Y-75467368D01*
X112266632Y-75260525D01*
X112122172Y-75164000D01*
X112266632Y-75067475D01*
X112473475Y-74860632D01*
X112635990Y-74617411D01*
X112747932Y-74347158D01*
X112805000Y-74060260D01*
X112805000Y-73767740D01*
X112747932Y-73480842D01*
X112635990Y-73210589D01*
X112473475Y-72967368D01*
X112266632Y-72760525D01*
X112023411Y-72598010D01*
X111753158Y-72486068D01*
X111466260Y-72429000D01*
X111173740Y-72429000D01*
X110886842Y-72486068D01*
X110616589Y-72598010D01*
X110373368Y-72760525D01*
X110166525Y-72967368D01*
X110004010Y-73210589D01*
X109892068Y-73480842D01*
X109835000Y-73767740D01*
X105878072Y-73767740D01*
X105878072Y-73314000D01*
X105861008Y-73140746D01*
X105810472Y-72974150D01*
X105728405Y-72820614D01*
X105617962Y-72686038D01*
X105483386Y-72575595D01*
X105329850Y-72493528D01*
X105163254Y-72442992D01*
X104990000Y-72425928D01*
X103290000Y-72425928D01*
X103116746Y-72442992D01*
X102950150Y-72493528D01*
X102796614Y-72575595D01*
X102662038Y-72686038D01*
X102551595Y-72820614D01*
X102469528Y-72974150D01*
X102418992Y-73140746D01*
X102401928Y-73314000D01*
X102401928Y-74514000D01*
X102418992Y-74687254D01*
X102469528Y-74853850D01*
X102551595Y-75007386D01*
X102662038Y-75141962D01*
X102796614Y-75252405D01*
X102898337Y-75306777D01*
X102834866Y-75358866D01*
X102649294Y-75584986D01*
X102511401Y-75842966D01*
X102426487Y-76122889D01*
X102397815Y-76414000D01*
X91988689Y-76414000D01*
X91929496Y-76327000D01*
X90725000Y-76327000D01*
X90725000Y-76347000D01*
X90471000Y-76347000D01*
X90471000Y-76327000D01*
X90451000Y-76327000D01*
X90451000Y-76073000D01*
X90471000Y-76073000D01*
X90471000Y-74629845D01*
X90725000Y-74629845D01*
X90725000Y-76073000D01*
X91929496Y-76073000D01*
X92089140Y-75838360D01*
X92038708Y-75549598D01*
X91932911Y-75276223D01*
X91775814Y-75028741D01*
X91573454Y-74816663D01*
X91333608Y-74648138D01*
X91065493Y-74529643D01*
X90954890Y-74508524D01*
X90725000Y-74629845D01*
X90471000Y-74629845D01*
X90241110Y-74508524D01*
X90130507Y-74529643D01*
X89862392Y-74648138D01*
X89622546Y-74816663D01*
X89420186Y-75028741D01*
X89349185Y-75140592D01*
X89338706Y-75120986D01*
X89153134Y-74894866D01*
X88927013Y-74709294D01*
X88669033Y-74571401D01*
X88389110Y-74486487D01*
X88098000Y-74457815D01*
X87806889Y-74486487D01*
X87526966Y-74571401D01*
X87268986Y-74709294D01*
X87042866Y-74894866D01*
X86990777Y-74958337D01*
X86936405Y-74856614D01*
X86825962Y-74722038D01*
X86691386Y-74611595D01*
X86537850Y-74529528D01*
X86371254Y-74478992D01*
X86198000Y-74461928D01*
X84998000Y-74461928D01*
X84824746Y-74478992D01*
X84658150Y-74529528D01*
X84504614Y-74611595D01*
X84370038Y-74722038D01*
X84259595Y-74856614D01*
X84177528Y-75010150D01*
X84126992Y-75176746D01*
X84109928Y-75350000D01*
X84109928Y-77050000D01*
X84126992Y-77223254D01*
X84177528Y-77389850D01*
X84259595Y-77543386D01*
X84370038Y-77677962D01*
X84504614Y-77788405D01*
X84658150Y-77870472D01*
X84824746Y-77921008D01*
X84998000Y-77938072D01*
X86198000Y-77938072D01*
X86371254Y-77921008D01*
X86537850Y-77870472D01*
X86691386Y-77788405D01*
X86825962Y-77677962D01*
X86936405Y-77543386D01*
X86990777Y-77441663D01*
X87042866Y-77505134D01*
X87268987Y-77690706D01*
X87526967Y-77828599D01*
X87806890Y-77913513D01*
X88098000Y-77942185D01*
X88389111Y-77913513D01*
X88491617Y-77882418D01*
X90621197Y-80012000D01*
X81808803Y-80012000D01*
X79587023Y-77790221D01*
X79778890Y-77891476D01*
X79889493Y-77870357D01*
X80157608Y-77751862D01*
X80397454Y-77583337D01*
X80599814Y-77371259D01*
X80756911Y-77123777D01*
X80862708Y-76850402D01*
X80913140Y-76561640D01*
X80753496Y-76327000D01*
X79549000Y-76327000D01*
X79549000Y-76347000D01*
X79295000Y-76347000D01*
X79295000Y-76327000D01*
X79275000Y-76327000D01*
X79275000Y-76073000D01*
X79295000Y-76073000D01*
X79295000Y-74629845D01*
X79549000Y-74629845D01*
X79549000Y-76073000D01*
X80753496Y-76073000D01*
X80913140Y-75838360D01*
X80862708Y-75549598D01*
X80756911Y-75276223D01*
X80599814Y-75028741D01*
X80397454Y-74816663D01*
X80157608Y-74648138D01*
X79889493Y-74529643D01*
X79778890Y-74508524D01*
X79549000Y-74629845D01*
X79295000Y-74629845D01*
X79065110Y-74508524D01*
X78954507Y-74529643D01*
X78686392Y-74648138D01*
X78446546Y-74816663D01*
X78244186Y-75028741D01*
X78173185Y-75140592D01*
X78162706Y-75120986D01*
X77977134Y-74894866D01*
X77751013Y-74709294D01*
X77493033Y-74571401D01*
X77213110Y-74486487D01*
X76922000Y-74457815D01*
X76630889Y-74486487D01*
X76350966Y-74571401D01*
X76092986Y-74709294D01*
X75866866Y-74894866D01*
X75814777Y-74958337D01*
X75760405Y-74856614D01*
X75649962Y-74722038D01*
X75515386Y-74611595D01*
X75361850Y-74529528D01*
X75195254Y-74478992D01*
X75022000Y-74461928D01*
X73822000Y-74461928D01*
X73648746Y-74478992D01*
X73529000Y-74515316D01*
X73529000Y-73010578D01*
X73963079Y-72576500D01*
X96045046Y-72576500D01*
X96093244Y-72608705D01*
X96281602Y-72686726D01*
X96481561Y-72726500D01*
X96685439Y-72726500D01*
X96885398Y-72686726D01*
X97073756Y-72608705D01*
X97243274Y-72495437D01*
X97387437Y-72351274D01*
X97500705Y-72181756D01*
X97578726Y-71993398D01*
X97618500Y-71793439D01*
X97618500Y-71589561D01*
X97578726Y-71389602D01*
X97500705Y-71201244D01*
X97387437Y-71031726D01*
X97243274Y-70887563D01*
X97073756Y-70774295D01*
X96885398Y-70696274D01*
X96685439Y-70656500D01*
X96481561Y-70656500D01*
X96281602Y-70696274D01*
X96093244Y-70774295D01*
X96045046Y-70806500D01*
X73639965Y-70806500D01*
X73596499Y-70802219D01*
X73553033Y-70806500D01*
X73553023Y-70806500D01*
X73423010Y-70819305D01*
X73256187Y-70869911D01*
X73102441Y-70952089D01*
X73102439Y-70952090D01*
X73102440Y-70952090D01*
X73001453Y-71034968D01*
X73001451Y-71034970D01*
X72967683Y-71062683D01*
X72939970Y-71096451D01*
X72048956Y-71987466D01*
X72015183Y-72015183D01*
X71904589Y-72149942D01*
X71822411Y-72303688D01*
X71771805Y-72470511D01*
X71759000Y-72600524D01*
X71759000Y-72600531D01*
X71754719Y-72644000D01*
X71759000Y-72687469D01*
X71759001Y-81669478D01*
X71729241Y-81689363D01*
X71529363Y-81889241D01*
X71372320Y-82124273D01*
X71264147Y-82385426D01*
X71245000Y-82481683D01*
X71245000Y-77634325D01*
X71248676Y-77597000D01*
X71245000Y-77559675D01*
X71245000Y-77559667D01*
X71234003Y-77448014D01*
X71190546Y-77304753D01*
X71119974Y-77172724D01*
X71025001Y-77056999D01*
X70996003Y-77033201D01*
X67776983Y-73814182D01*
X67753513Y-73575889D01*
X67668599Y-73295966D01*
X67530706Y-73037986D01*
X67345134Y-72811866D01*
X67119014Y-72626294D01*
X67101626Y-72617000D01*
X67119014Y-72607706D01*
X67345134Y-72422134D01*
X67530706Y-72196014D01*
X67668599Y-71938034D01*
X67753513Y-71658111D01*
X67782185Y-71367000D01*
X67753513Y-71075889D01*
X67668599Y-70795966D01*
X67530706Y-70537986D01*
X67345134Y-70311866D01*
X67119014Y-70126294D01*
X66861034Y-69988401D01*
X66581111Y-69903487D01*
X66362950Y-69882000D01*
X65717050Y-69882000D01*
X65498889Y-69903487D01*
X65218966Y-69988401D01*
X64960986Y-70126294D01*
X64734866Y-70311866D01*
X64549294Y-70537986D01*
X64411401Y-70795966D01*
X64326487Y-71075889D01*
X64297815Y-71367000D01*
X60345000Y-71367000D01*
X60345000Y-71220740D01*
X60287932Y-70933842D01*
X60175990Y-70663589D01*
X60013475Y-70420368D01*
X59806632Y-70213525D01*
X59563411Y-70051010D01*
X59293158Y-69939068D01*
X59006260Y-69882000D01*
X58713740Y-69882000D01*
X58426842Y-69939068D01*
X58156589Y-70051010D01*
X57913368Y-70213525D01*
X57706525Y-70420368D01*
X57544010Y-70663589D01*
X57432068Y-70933842D01*
X57375000Y-71220740D01*
X55660000Y-71220740D01*
X55660000Y-67532279D01*
X55698147Y-67143225D01*
X55801763Y-66800033D01*
X55970062Y-66483511D01*
X56196637Y-66205701D01*
X56472856Y-65977194D01*
X56788197Y-65806690D01*
X57130656Y-65700681D01*
X57517712Y-65660000D01*
X68793077Y-65660000D01*
X68566634Y-65753796D01*
G37*
%TD.AperFunction*%
D19*
X75866866Y-77505134D02*
X76092987Y-77690706D01*
X76350967Y-77828599D01*
X76630890Y-77913513D01*
X76922000Y-77942185D01*
X77213111Y-77913513D01*
X77479809Y-77832611D01*
X80930205Y-81283008D01*
X80953999Y-81312001D01*
X80982992Y-81335795D01*
X80982996Y-81335799D01*
X81053685Y-81393811D01*
X81069724Y-81406974D01*
X81201753Y-81477546D01*
X81345014Y-81521003D01*
X81456667Y-81532000D01*
X81456676Y-81532000D01*
X81493999Y-81535676D01*
X81531322Y-81532000D01*
X82125046Y-81532000D01*
X82124273Y-81532320D01*
X81889241Y-81689363D01*
X81689363Y-81889241D01*
X81532320Y-82124273D01*
X81527933Y-82134865D01*
X81416385Y-81948869D01*
X81227414Y-81740481D01*
X81001420Y-81572963D01*
X80747087Y-81452754D01*
X80613039Y-81412096D01*
X80391000Y-81534085D01*
X80391000Y-82677000D01*
X80411000Y-82677000D01*
X80411000Y-82931000D01*
X80391000Y-82931000D01*
X80391000Y-82951000D01*
X80137000Y-82951000D01*
X80137000Y-82931000D01*
X80117000Y-82931000D01*
X80117000Y-82677000D01*
X80137000Y-82677000D01*
X80137000Y-81534085D01*
X79914961Y-81412096D01*
X79780913Y-81452754D01*
X79526580Y-81572963D01*
X79300586Y-81740481D01*
X79111615Y-81948869D01*
X79000067Y-82134865D01*
X78995680Y-82124273D01*
X78838637Y-81889241D01*
X78638759Y-81689363D01*
X78403727Y-81532320D01*
X78142574Y-81424147D01*
X77865335Y-81369000D01*
X77582665Y-81369000D01*
X77305426Y-81424147D01*
X77044273Y-81532320D01*
X76809241Y-81689363D01*
X76609363Y-81889241D01*
X76454000Y-82121759D01*
X76298637Y-81889241D01*
X76098759Y-81689363D01*
X75863727Y-81532320D01*
X75602574Y-81424147D01*
X75325335Y-81369000D01*
X75042665Y-81369000D01*
X74765426Y-81424147D01*
X74504273Y-81532320D01*
X74269241Y-81689363D01*
X74069363Y-81889241D01*
X73914000Y-82121759D01*
X73758637Y-81889241D01*
X73558759Y-81689363D01*
X73529000Y-81669479D01*
X73529000Y-77884684D01*
X73648746Y-77921008D01*
X73822000Y-77938072D01*
X75022000Y-77938072D01*
X75195254Y-77921008D01*
X75361850Y-77870472D01*
X75515386Y-77788405D01*
X75649962Y-77677962D01*
X75760405Y-77543386D01*
X75814777Y-77441663D01*
X75866866Y-77505134D01*
%TA.AperFunction,Conductor*%
D20*
G36*
X75866866Y-77505134D02*
G01*
X76092987Y-77690706D01*
X76350967Y-77828599D01*
X76630890Y-77913513D01*
X76922000Y-77942185D01*
X77213111Y-77913513D01*
X77479809Y-77832611D01*
X80930205Y-81283008D01*
X80953999Y-81312001D01*
X80982992Y-81335795D01*
X80982996Y-81335799D01*
X81053685Y-81393811D01*
X81069724Y-81406974D01*
X81201753Y-81477546D01*
X81345014Y-81521003D01*
X81456667Y-81532000D01*
X81456676Y-81532000D01*
X81493999Y-81535676D01*
X81531322Y-81532000D01*
X82125046Y-81532000D01*
X82124273Y-81532320D01*
X81889241Y-81689363D01*
X81689363Y-81889241D01*
X81532320Y-82124273D01*
X81527933Y-82134865D01*
X81416385Y-81948869D01*
X81227414Y-81740481D01*
X81001420Y-81572963D01*
X80747087Y-81452754D01*
X80613039Y-81412096D01*
X80391000Y-81534085D01*
X80391000Y-82677000D01*
X80411000Y-82677000D01*
X80411000Y-82931000D01*
X80391000Y-82931000D01*
X80391000Y-82951000D01*
X80137000Y-82951000D01*
X80137000Y-82931000D01*
X80117000Y-82931000D01*
X80117000Y-82677000D01*
X80137000Y-82677000D01*
X80137000Y-81534085D01*
X79914961Y-81412096D01*
X79780913Y-81452754D01*
X79526580Y-81572963D01*
X79300586Y-81740481D01*
X79111615Y-81948869D01*
X79000067Y-82134865D01*
X78995680Y-82124273D01*
X78838637Y-81889241D01*
X78638759Y-81689363D01*
X78403727Y-81532320D01*
X78142574Y-81424147D01*
X77865335Y-81369000D01*
X77582665Y-81369000D01*
X77305426Y-81424147D01*
X77044273Y-81532320D01*
X76809241Y-81689363D01*
X76609363Y-81889241D01*
X76454000Y-82121759D01*
X76298637Y-81889241D01*
X76098759Y-81689363D01*
X75863727Y-81532320D01*
X75602574Y-81424147D01*
X75325335Y-81369000D01*
X75042665Y-81369000D01*
X74765426Y-81424147D01*
X74504273Y-81532320D01*
X74269241Y-81689363D01*
X74069363Y-81889241D01*
X73914000Y-82121759D01*
X73758637Y-81889241D01*
X73558759Y-81689363D01*
X73529000Y-81669479D01*
X73529000Y-77884684D01*
X73648746Y-77921008D01*
X73822000Y-77938072D01*
X75022000Y-77938072D01*
X75195254Y-77921008D01*
X75361850Y-77870472D01*
X75515386Y-77788405D01*
X75649962Y-77677962D01*
X75760405Y-77543386D01*
X75814777Y-77441663D01*
X75866866Y-77505134D01*
G37*
%TD.AperFunction*%
%TD*%
M02*
