%FSLAX45Y45*%
G04 Gerber Fmt 4.5, Leading zero omitted, Abs format (unit mm)*
G04 Created by KiCad (PCBNEW (5.1.8)-1) date 2021-05-07 13:21:57*
%MOMM*%
%LPD*%
G01*
G04 APERTURE LIST*
%TA.AperFunction,Profile*%
%ADD10C,0.050000*%
%TD*%
%ADD11C,0.200000*%
%ADD12C,0.300000*%
G04 APERTURE END LIST*
D10*
X5500000Y-6750000D02*
G75*
G02*
X5750000Y-6500000I250000J0D01*
G01*
X5750000Y-10500000D02*
G75*
G02*
X5500000Y-10250000I0J250000D01*
G01*
X11500000Y-10750000D02*
X11500000Y-10750000D01*
X11250000Y-6500000D02*
G75*
G02*
X11500000Y-6750000I0J-250000D01*
G01*
X11500000Y-10250000D02*
G75*
G02*
X11250000Y-10500000I-250000J0D01*
G01*
X7080000Y-6750000D02*
G75*
G03*
X7080000Y-6750000I-130000J0D01*
G01*
X7080000Y-10250000D02*
G75*
G03*
X7080000Y-10250000I-130000J0D01*
G01*
X11380000Y-6750000D02*
G75*
G03*
X11380000Y-6750000I-130000J0D01*
G01*
X11380000Y-10250000D02*
G75*
G03*
X11380000Y-10250000I-130000J0D01*
G01*
X5750000Y-10500000D02*
X11250000Y-10500000D01*
X11500000Y-6750000D02*
X11500000Y-10250000D01*
X5750000Y-6500000D02*
X11250000Y-6500000D01*
X5500000Y-6750000D02*
X5500000Y-10250000D01*
D11*
X7320600Y-8984300D02*
X7360600Y-9024300D01*
X7360600Y-8984300D02*
X7320600Y-9024300D01*
X7358700Y-8781100D02*
X7398700Y-8821100D01*
X7398700Y-8781100D02*
X7358700Y-8821100D01*
X7650800Y-8514400D02*
X7690800Y-8554400D01*
X7690800Y-8514400D02*
X7650800Y-8554400D01*
X7650800Y-8768400D02*
X7690800Y-8808400D01*
X7690800Y-8768400D02*
X7650800Y-8808400D01*
X7650800Y-9022400D02*
X7690800Y-9062400D01*
X7690800Y-9022400D02*
X7650800Y-9062400D01*
X7752400Y-8616000D02*
X7792400Y-8656000D01*
X7792400Y-8616000D02*
X7752400Y-8656000D01*
X7752400Y-8920800D02*
X7792400Y-8960800D01*
X7792400Y-8920800D02*
X7752400Y-8960800D01*
X7854000Y-8514400D02*
X7894000Y-8554400D01*
X7894000Y-8514400D02*
X7854000Y-8554400D01*
X7854000Y-9022400D02*
X7894000Y-9062400D01*
X7894000Y-9022400D02*
X7854000Y-9062400D01*
X7955600Y-8616000D02*
X7995600Y-8656000D01*
X7995600Y-8616000D02*
X7955600Y-8656000D01*
X7955600Y-8920800D02*
X7995600Y-8960800D01*
X7995600Y-8920800D02*
X7955600Y-8960800D01*
X8057200Y-8514400D02*
X8097200Y-8554400D01*
X8097200Y-8514400D02*
X8057200Y-8554400D01*
X8057200Y-8768400D02*
X8097200Y-8808400D01*
X8097200Y-8768400D02*
X8057200Y-8808400D01*
X8057200Y-9022400D02*
X8097200Y-9062400D01*
X8097200Y-9022400D02*
X8057200Y-9062400D01*
X9638350Y-7149150D02*
X9678350Y-7189150D01*
X9678350Y-7149150D02*
X9638350Y-7189150D01*
X7841300Y-8768400D02*
X7881300Y-8808400D01*
X7881300Y-8768400D02*
X7841300Y-8808400D01*
X7314400Y-8280400D02*
G75*
G03*
X7314400Y-8280400I-50000J0D01*
G01*
X7314400Y-9804400D02*
G75*
G03*
X7314400Y-9804400I-50000J0D01*
G01*
X7568400Y-8280400D02*
G75*
G03*
X7568400Y-8280400I-50000J0D01*
G01*
X7568400Y-9804400D02*
G75*
G03*
X7568400Y-9804400I-50000J0D01*
G01*
X7822400Y-8280400D02*
G75*
G03*
X7822400Y-8280400I-50000J0D01*
G01*
X7822400Y-9804400D02*
G75*
G03*
X7822400Y-9804400I-50000J0D01*
G01*
X8076400Y-8280400D02*
G75*
G03*
X8076400Y-8280400I-50000J0D01*
G01*
X8076400Y-9804400D02*
G75*
G03*
X8076400Y-9804400I-50000J0D01*
G01*
X8330400Y-8280400D02*
G75*
G03*
X8330400Y-8280400I-50000J0D01*
G01*
X8330400Y-9804400D02*
G75*
G03*
X8330400Y-9804400I-50000J0D01*
G01*
X8584400Y-8280400D02*
G75*
G03*
X8584400Y-8280400I-50000J0D01*
G01*
X8584400Y-9804400D02*
G75*
G03*
X8584400Y-9804400I-50000J0D01*
G01*
X8838400Y-8280400D02*
G75*
G03*
X8838400Y-8280400I-50000J0D01*
G01*
X8838400Y-9804400D02*
G75*
G03*
X8838400Y-9804400I-50000J0D01*
G01*
X9092400Y-8280400D02*
G75*
G03*
X9092400Y-8280400I-50000J0D01*
G01*
X9092400Y-9804400D02*
G75*
G03*
X9092400Y-9804400I-50000J0D01*
G01*
X9346400Y-8280400D02*
G75*
G03*
X9346400Y-8280400I-50000J0D01*
G01*
X9346400Y-9804400D02*
G75*
G03*
X9346400Y-9804400I-50000J0D01*
G01*
X9600400Y-8280400D02*
G75*
G03*
X9600400Y-8280400I-50000J0D01*
G01*
X9600400Y-9804400D02*
G75*
G03*
X9600400Y-9804400I-50000J0D01*
G01*
X9854400Y-8280400D02*
G75*
G03*
X9854400Y-8280400I-50000J0D01*
G01*
X9854400Y-9804400D02*
G75*
G03*
X9854400Y-9804400I-50000J0D01*
G01*
X10108400Y-8280400D02*
G75*
G03*
X10108400Y-8280400I-50000J0D01*
G01*
X10108400Y-9804400D02*
G75*
G03*
X10108400Y-9804400I-50000J0D01*
G01*
X10362400Y-8280400D02*
G75*
G03*
X10362400Y-8280400I-50000J0D01*
G01*
X10362400Y-9804400D02*
G75*
G03*
X10362400Y-9804400I-50000J0D01*
G01*
X10616400Y-8280400D02*
G75*
G03*
X10616400Y-8280400I-50000J0D01*
G01*
X10616400Y-9804400D02*
G75*
G03*
X10616400Y-9804400I-50000J0D01*
G01*
X10870400Y-8280400D02*
G75*
G03*
X10870400Y-8280400I-50000J0D01*
G01*
X10870400Y-9804400D02*
G75*
G03*
X10870400Y-9804400I-50000J0D01*
G01*
X6604000Y-8275200D02*
X6604000Y-8395200D01*
X6544000Y-8335200D02*
X6664000Y-8335200D01*
X6604000Y-8525200D02*
X6604000Y-8645200D01*
X6544000Y-8585200D02*
X6664000Y-8585200D01*
X10414000Y-7331400D02*
X10414000Y-7451400D01*
X10354000Y-7391400D02*
X10474000Y-7391400D01*
X10414000Y-7581400D02*
X10414000Y-7701400D01*
X10354000Y-7641400D02*
X10474000Y-7641400D01*
X7442200Y-7560000D02*
X7442200Y-7680000D01*
X7382200Y-7620000D02*
X7502200Y-7620000D01*
X7692200Y-7560000D02*
X7692200Y-7680000D01*
X7632200Y-7620000D02*
X7752200Y-7620000D01*
X7942200Y-7560000D02*
X7942200Y-7680000D01*
X7882200Y-7620000D02*
X8002200Y-7620000D01*
X8559800Y-7560000D02*
X8559800Y-7680000D01*
X8499800Y-7620000D02*
X8619800Y-7620000D01*
X8809800Y-7560000D02*
X8809800Y-7680000D01*
X8749800Y-7620000D02*
X8869800Y-7620000D01*
X9059800Y-7560000D02*
X9059800Y-7680000D01*
X8999800Y-7620000D02*
X9119800Y-7620000D01*
X6604000Y-9032500D02*
X6604000Y-9152500D01*
X6544000Y-9092500D02*
X6664000Y-9092500D01*
X6604000Y-9282500D02*
X6604000Y-9402500D01*
X6544000Y-9342500D02*
X6664000Y-9342500D01*
X6604000Y-9532500D02*
X6604000Y-9652500D01*
X6544000Y-9592500D02*
X6664000Y-9592500D01*
X6604000Y-9782500D02*
X6604000Y-9902500D01*
X6544000Y-9842500D02*
X6664000Y-9842500D01*
X6604000Y-7076700D02*
X6604000Y-7196700D01*
X6544000Y-7136700D02*
X6664000Y-7136700D01*
X6604000Y-7326700D02*
X6604000Y-7446700D01*
X6544000Y-7386700D02*
X6664000Y-7386700D01*
X6604000Y-7576700D02*
X6604000Y-7696700D01*
X6544000Y-7636700D02*
X6664000Y-7636700D01*
X6604000Y-7826700D02*
X6604000Y-7946700D01*
X6544000Y-7886700D02*
X6664000Y-7886700D01*
D12*
X5783928Y-11218214D02*
X5783928Y-10918214D01*
X5855357Y-10918214D01*
X5898214Y-10932500D01*
X5926786Y-10961072D01*
X5941071Y-10989643D01*
X5955357Y-11046786D01*
X5955357Y-11089643D01*
X5941071Y-11146786D01*
X5926786Y-11175357D01*
X5898214Y-11203929D01*
X5855357Y-11218214D01*
X5783928Y-11218214D01*
X6083928Y-11218214D02*
X6083928Y-11018214D01*
X6083928Y-11075357D02*
X6098214Y-11046786D01*
X6112500Y-11032500D01*
X6141071Y-11018214D01*
X6169643Y-11018214D01*
X6269643Y-11218214D02*
X6269643Y-11018214D01*
X6269643Y-10918214D02*
X6255357Y-10932500D01*
X6269643Y-10946786D01*
X6283928Y-10932500D01*
X6269643Y-10918214D01*
X6269643Y-10946786D01*
X6455357Y-11218214D02*
X6426786Y-11203929D01*
X6412500Y-11175357D01*
X6412500Y-10918214D01*
X6612500Y-11218214D02*
X6583928Y-11203929D01*
X6569643Y-11175357D01*
X6569643Y-10918214D01*
X6955357Y-11218214D02*
X6955357Y-10918214D01*
X7055357Y-11132500D01*
X7155357Y-10918214D01*
X7155357Y-11218214D01*
X7426786Y-11218214D02*
X7426786Y-11061072D01*
X7412500Y-11032500D01*
X7383928Y-11018214D01*
X7326786Y-11018214D01*
X7298214Y-11032500D01*
X7426786Y-11203929D02*
X7398214Y-11218214D01*
X7326786Y-11218214D01*
X7298214Y-11203929D01*
X7283928Y-11175357D01*
X7283928Y-11146786D01*
X7298214Y-11118214D01*
X7326786Y-11103929D01*
X7398214Y-11103929D01*
X7426786Y-11089643D01*
X7569643Y-11018214D02*
X7569643Y-11318214D01*
X7569643Y-11032500D02*
X7598214Y-11018214D01*
X7655357Y-11018214D01*
X7683928Y-11032500D01*
X7698214Y-11046786D01*
X7712500Y-11075357D01*
X7712500Y-11161072D01*
X7698214Y-11189643D01*
X7683928Y-11203929D01*
X7655357Y-11218214D01*
X7598214Y-11218214D01*
X7569643Y-11203929D01*
X7841071Y-11189643D02*
X7855357Y-11203929D01*
X7841071Y-11218214D01*
X7826786Y-11203929D01*
X7841071Y-11189643D01*
X7841071Y-11218214D01*
X7841071Y-11032500D02*
X7855357Y-11046786D01*
X7841071Y-11061072D01*
X7826786Y-11046786D01*
X7841071Y-11032500D01*
X7841071Y-11061072D01*
X5457500Y-11692500D02*
X5497500Y-11732500D01*
X5497500Y-11692500D02*
X5457500Y-11732500D01*
X5841071Y-11548214D02*
X5869643Y-11548214D01*
X5898214Y-11562500D01*
X5912500Y-11576786D01*
X5926786Y-11605357D01*
X5941071Y-11662500D01*
X5941071Y-11733929D01*
X5926786Y-11791071D01*
X5912500Y-11819643D01*
X5898214Y-11833929D01*
X5869643Y-11848214D01*
X5841071Y-11848214D01*
X5812500Y-11833929D01*
X5798214Y-11819643D01*
X5783928Y-11791071D01*
X5769643Y-11733929D01*
X5769643Y-11662500D01*
X5783928Y-11605357D01*
X5798214Y-11576786D01*
X5812500Y-11562500D01*
X5841071Y-11548214D01*
X6069643Y-11819643D02*
X6083928Y-11833929D01*
X6069643Y-11848214D01*
X6055357Y-11833929D01*
X6069643Y-11819643D01*
X6069643Y-11848214D01*
X6341071Y-11648214D02*
X6341071Y-11848214D01*
X6269643Y-11533929D02*
X6198214Y-11748214D01*
X6383928Y-11748214D01*
X6555357Y-11548214D02*
X6583928Y-11548214D01*
X6612500Y-11562500D01*
X6626786Y-11576786D01*
X6641071Y-11605357D01*
X6655357Y-11662500D01*
X6655357Y-11733929D01*
X6641071Y-11791071D01*
X6626786Y-11819643D01*
X6612500Y-11833929D01*
X6583928Y-11848214D01*
X6555357Y-11848214D01*
X6526786Y-11833929D01*
X6512500Y-11819643D01*
X6498214Y-11791071D01*
X6483928Y-11733929D01*
X6483928Y-11662500D01*
X6498214Y-11605357D01*
X6512500Y-11576786D01*
X6526786Y-11562500D01*
X6555357Y-11548214D01*
X6783928Y-11848214D02*
X6783928Y-11648214D01*
X6783928Y-11676786D02*
X6798214Y-11662500D01*
X6826786Y-11648214D01*
X6869643Y-11648214D01*
X6898214Y-11662500D01*
X6912500Y-11691071D01*
X6912500Y-11848214D01*
X6912500Y-11691071D02*
X6926786Y-11662500D01*
X6955357Y-11648214D01*
X6998214Y-11648214D01*
X7026786Y-11662500D01*
X7041071Y-11691071D01*
X7041071Y-11848214D01*
X7183928Y-11848214D02*
X7183928Y-11648214D01*
X7183928Y-11676786D02*
X7198214Y-11662500D01*
X7226786Y-11648214D01*
X7269643Y-11648214D01*
X7298214Y-11662500D01*
X7312500Y-11691071D01*
X7312500Y-11848214D01*
X7312500Y-11691071D02*
X7326786Y-11662500D01*
X7355357Y-11648214D01*
X7398214Y-11648214D01*
X7426786Y-11662500D01*
X7441071Y-11691071D01*
X7441071Y-11848214D01*
X8026786Y-11533929D02*
X7769643Y-11919643D01*
X8412500Y-11548214D02*
X8441071Y-11548214D01*
X8469643Y-11562500D01*
X8483928Y-11576786D01*
X8498214Y-11605357D01*
X8512500Y-11662500D01*
X8512500Y-11733929D01*
X8498214Y-11791071D01*
X8483928Y-11819643D01*
X8469643Y-11833929D01*
X8441071Y-11848214D01*
X8412500Y-11848214D01*
X8383928Y-11833929D01*
X8369643Y-11819643D01*
X8355357Y-11791071D01*
X8341071Y-11733929D01*
X8341071Y-11662500D01*
X8355357Y-11605357D01*
X8369643Y-11576786D01*
X8383928Y-11562500D01*
X8412500Y-11548214D01*
X8641071Y-11819643D02*
X8655357Y-11833929D01*
X8641071Y-11848214D01*
X8626786Y-11833929D01*
X8641071Y-11819643D01*
X8641071Y-11848214D01*
X8841071Y-11548214D02*
X8869643Y-11548214D01*
X8898214Y-11562500D01*
X8912500Y-11576786D01*
X8926786Y-11605357D01*
X8941071Y-11662500D01*
X8941071Y-11733929D01*
X8926786Y-11791071D01*
X8912500Y-11819643D01*
X8898214Y-11833929D01*
X8869643Y-11848214D01*
X8841071Y-11848214D01*
X8812500Y-11833929D01*
X8798214Y-11819643D01*
X8783928Y-11791071D01*
X8769643Y-11733929D01*
X8769643Y-11662500D01*
X8783928Y-11605357D01*
X8798214Y-11576786D01*
X8812500Y-11562500D01*
X8841071Y-11548214D01*
X9226786Y-11848214D02*
X9055357Y-11848214D01*
X9141071Y-11848214D02*
X9141071Y-11548214D01*
X9112500Y-11591071D01*
X9083928Y-11619643D01*
X9055357Y-11633929D01*
X9483928Y-11548214D02*
X9426786Y-11548214D01*
X9398214Y-11562500D01*
X9383928Y-11576786D01*
X9355357Y-11619643D01*
X9341071Y-11676786D01*
X9341071Y-11791071D01*
X9355357Y-11819643D01*
X9369643Y-11833929D01*
X9398214Y-11848214D01*
X9455357Y-11848214D01*
X9483928Y-11833929D01*
X9498214Y-11819643D01*
X9512500Y-11791071D01*
X9512500Y-11719643D01*
X9498214Y-11691071D01*
X9483928Y-11676786D01*
X9455357Y-11662500D01*
X9398214Y-11662500D01*
X9369643Y-11676786D01*
X9355357Y-11691071D01*
X9341071Y-11719643D01*
X9626786Y-11548214D02*
X9626786Y-11605357D01*
X9741071Y-11548214D02*
X9741071Y-11605357D01*
X10183928Y-11962500D02*
X10169643Y-11948214D01*
X10141071Y-11905357D01*
X10126786Y-11876786D01*
X10112500Y-11833929D01*
X10098214Y-11762500D01*
X10098214Y-11705357D01*
X10112500Y-11633929D01*
X10126786Y-11591071D01*
X10141071Y-11562500D01*
X10169643Y-11519643D01*
X10183928Y-11505357D01*
X10455357Y-11848214D02*
X10283928Y-11848214D01*
X10369643Y-11848214D02*
X10369643Y-11548214D01*
X10341071Y-11591071D01*
X10312500Y-11619643D01*
X10283928Y-11633929D01*
X10712500Y-11548214D02*
X10655357Y-11548214D01*
X10626786Y-11562500D01*
X10612500Y-11576786D01*
X10583928Y-11619643D01*
X10569643Y-11676786D01*
X10569643Y-11791071D01*
X10583928Y-11819643D01*
X10598214Y-11833929D01*
X10626786Y-11848214D01*
X10683928Y-11848214D01*
X10712500Y-11833929D01*
X10726786Y-11819643D01*
X10741071Y-11791071D01*
X10741071Y-11719643D01*
X10726786Y-11691071D01*
X10712500Y-11676786D01*
X10683928Y-11662500D01*
X10626786Y-11662500D01*
X10598214Y-11676786D01*
X10583928Y-11691071D01*
X10569643Y-11719643D01*
X11098214Y-11848214D02*
X11098214Y-11548214D01*
X11226786Y-11848214D02*
X11226786Y-11691071D01*
X11212500Y-11662500D01*
X11183928Y-11648214D01*
X11141071Y-11648214D01*
X11112500Y-11662500D01*
X11098214Y-11676786D01*
X11412500Y-11848214D02*
X11383928Y-11833929D01*
X11369643Y-11819643D01*
X11355357Y-11791071D01*
X11355357Y-11705357D01*
X11369643Y-11676786D01*
X11383928Y-11662500D01*
X11412500Y-11648214D01*
X11455357Y-11648214D01*
X11483928Y-11662500D01*
X11498214Y-11676786D01*
X11512500Y-11705357D01*
X11512500Y-11791071D01*
X11498214Y-11819643D01*
X11483928Y-11833929D01*
X11455357Y-11848214D01*
X11412500Y-11848214D01*
X11683928Y-11848214D02*
X11655357Y-11833929D01*
X11641071Y-11805357D01*
X11641071Y-11548214D01*
X11912500Y-11833929D02*
X11883928Y-11848214D01*
X11826786Y-11848214D01*
X11798214Y-11833929D01*
X11783928Y-11805357D01*
X11783928Y-11691071D01*
X11798214Y-11662500D01*
X11826786Y-11648214D01*
X11883928Y-11648214D01*
X11912500Y-11662500D01*
X11926786Y-11691071D01*
X11926786Y-11719643D01*
X11783928Y-11748214D01*
X12041071Y-11833929D02*
X12069643Y-11848214D01*
X12126786Y-11848214D01*
X12155357Y-11833929D01*
X12169643Y-11805357D01*
X12169643Y-11791071D01*
X12155357Y-11762500D01*
X12126786Y-11748214D01*
X12083928Y-11748214D01*
X12055357Y-11733929D01*
X12041071Y-11705357D01*
X12041071Y-11691071D01*
X12055357Y-11662500D01*
X12083928Y-11648214D01*
X12126786Y-11648214D01*
X12155357Y-11662500D01*
X12269643Y-11962500D02*
X12283928Y-11948214D01*
X12312500Y-11905357D01*
X12326786Y-11876786D01*
X12341071Y-11833929D01*
X12355357Y-11762500D01*
X12355357Y-11705357D01*
X12341071Y-11633929D01*
X12326786Y-11591071D01*
X12312500Y-11562500D01*
X12283928Y-11519643D01*
X12269643Y-11505357D01*
X5497500Y-12108500D02*
G75*
G03*
X5497500Y-12108500I-50000J0D01*
G01*
X5941071Y-12244214D02*
X5769643Y-12244214D01*
X5855357Y-12244214D02*
X5855357Y-11944214D01*
X5826786Y-11987071D01*
X5798214Y-12015643D01*
X5769643Y-12029929D01*
X6069643Y-12215643D02*
X6083928Y-12229929D01*
X6069643Y-12244214D01*
X6055357Y-12229929D01*
X6069643Y-12215643D01*
X6069643Y-12244214D01*
X6269643Y-11944214D02*
X6298214Y-11944214D01*
X6326786Y-11958500D01*
X6341071Y-11972786D01*
X6355357Y-12001357D01*
X6369643Y-12058500D01*
X6369643Y-12129929D01*
X6355357Y-12187071D01*
X6341071Y-12215643D01*
X6326786Y-12229929D01*
X6298214Y-12244214D01*
X6269643Y-12244214D01*
X6241071Y-12229929D01*
X6226786Y-12215643D01*
X6212500Y-12187071D01*
X6198214Y-12129929D01*
X6198214Y-12058500D01*
X6212500Y-12001357D01*
X6226786Y-11972786D01*
X6241071Y-11958500D01*
X6269643Y-11944214D01*
X6555357Y-11944214D02*
X6583928Y-11944214D01*
X6612500Y-11958500D01*
X6626786Y-11972786D01*
X6641071Y-12001357D01*
X6655357Y-12058500D01*
X6655357Y-12129929D01*
X6641071Y-12187071D01*
X6626786Y-12215643D01*
X6612500Y-12229929D01*
X6583928Y-12244214D01*
X6555357Y-12244214D01*
X6526786Y-12229929D01*
X6512500Y-12215643D01*
X6498214Y-12187071D01*
X6483928Y-12129929D01*
X6483928Y-12058500D01*
X6498214Y-12001357D01*
X6512500Y-11972786D01*
X6526786Y-11958500D01*
X6555357Y-11944214D01*
X6783928Y-12244214D02*
X6783928Y-12044214D01*
X6783928Y-12072786D02*
X6798214Y-12058500D01*
X6826786Y-12044214D01*
X6869643Y-12044214D01*
X6898214Y-12058500D01*
X6912500Y-12087071D01*
X6912500Y-12244214D01*
X6912500Y-12087071D02*
X6926786Y-12058500D01*
X6955357Y-12044214D01*
X6998214Y-12044214D01*
X7026786Y-12058500D01*
X7041071Y-12087071D01*
X7041071Y-12244214D01*
X7183928Y-12244214D02*
X7183928Y-12044214D01*
X7183928Y-12072786D02*
X7198214Y-12058500D01*
X7226786Y-12044214D01*
X7269643Y-12044214D01*
X7298214Y-12058500D01*
X7312500Y-12087071D01*
X7312500Y-12244214D01*
X7312500Y-12087071D02*
X7326786Y-12058500D01*
X7355357Y-12044214D01*
X7398214Y-12044214D01*
X7426786Y-12058500D01*
X7441071Y-12087071D01*
X7441071Y-12244214D01*
X8026786Y-11929929D02*
X7769643Y-12315643D01*
X8412500Y-11944214D02*
X8441071Y-11944214D01*
X8469643Y-11958500D01*
X8483928Y-11972786D01*
X8498214Y-12001357D01*
X8512500Y-12058500D01*
X8512500Y-12129929D01*
X8498214Y-12187071D01*
X8483928Y-12215643D01*
X8469643Y-12229929D01*
X8441071Y-12244214D01*
X8412500Y-12244214D01*
X8383928Y-12229929D01*
X8369643Y-12215643D01*
X8355357Y-12187071D01*
X8341071Y-12129929D01*
X8341071Y-12058500D01*
X8355357Y-12001357D01*
X8369643Y-11972786D01*
X8383928Y-11958500D01*
X8412500Y-11944214D01*
X8641071Y-12215643D02*
X8655357Y-12229929D01*
X8641071Y-12244214D01*
X8626786Y-12229929D01*
X8641071Y-12215643D01*
X8641071Y-12244214D01*
X8841071Y-11944214D02*
X8869643Y-11944214D01*
X8898214Y-11958500D01*
X8912500Y-11972786D01*
X8926786Y-12001357D01*
X8941071Y-12058500D01*
X8941071Y-12129929D01*
X8926786Y-12187071D01*
X8912500Y-12215643D01*
X8898214Y-12229929D01*
X8869643Y-12244214D01*
X8841071Y-12244214D01*
X8812500Y-12229929D01*
X8798214Y-12215643D01*
X8783928Y-12187071D01*
X8769643Y-12129929D01*
X8769643Y-12058500D01*
X8783928Y-12001357D01*
X8798214Y-11972786D01*
X8812500Y-11958500D01*
X8841071Y-11944214D01*
X9041071Y-11944214D02*
X9226786Y-11944214D01*
X9126786Y-12058500D01*
X9169643Y-12058500D01*
X9198214Y-12072786D01*
X9212500Y-12087071D01*
X9226786Y-12115643D01*
X9226786Y-12187071D01*
X9212500Y-12215643D01*
X9198214Y-12229929D01*
X9169643Y-12244214D01*
X9083928Y-12244214D01*
X9055357Y-12229929D01*
X9041071Y-12215643D01*
X9369643Y-12244214D02*
X9426786Y-12244214D01*
X9455357Y-12229929D01*
X9469643Y-12215643D01*
X9498214Y-12172786D01*
X9512500Y-12115643D01*
X9512500Y-12001357D01*
X9498214Y-11972786D01*
X9483928Y-11958500D01*
X9455357Y-11944214D01*
X9398214Y-11944214D01*
X9369643Y-11958500D01*
X9355357Y-11972786D01*
X9341071Y-12001357D01*
X9341071Y-12072786D01*
X9355357Y-12101357D01*
X9369643Y-12115643D01*
X9398214Y-12129929D01*
X9455357Y-12129929D01*
X9483928Y-12115643D01*
X9498214Y-12101357D01*
X9512500Y-12072786D01*
X9626786Y-11944214D02*
X9626786Y-12001357D01*
X9741071Y-11944214D02*
X9741071Y-12001357D01*
X10183928Y-12358500D02*
X10169643Y-12344214D01*
X10141071Y-12301357D01*
X10126786Y-12272786D01*
X10112500Y-12229929D01*
X10098214Y-12158500D01*
X10098214Y-12101357D01*
X10112500Y-12029929D01*
X10126786Y-11987071D01*
X10141071Y-11958500D01*
X10169643Y-11915643D01*
X10183928Y-11901357D01*
X10269643Y-11944214D02*
X10455357Y-11944214D01*
X10355357Y-12058500D01*
X10398214Y-12058500D01*
X10426786Y-12072786D01*
X10441071Y-12087071D01*
X10455357Y-12115643D01*
X10455357Y-12187071D01*
X10441071Y-12215643D01*
X10426786Y-12229929D01*
X10398214Y-12244214D01*
X10312500Y-12244214D01*
X10283928Y-12229929D01*
X10269643Y-12215643D01*
X10641071Y-11944214D02*
X10669643Y-11944214D01*
X10698214Y-11958500D01*
X10712500Y-11972786D01*
X10726786Y-12001357D01*
X10741071Y-12058500D01*
X10741071Y-12129929D01*
X10726786Y-12187071D01*
X10712500Y-12215643D01*
X10698214Y-12229929D01*
X10669643Y-12244214D01*
X10641071Y-12244214D01*
X10612500Y-12229929D01*
X10598214Y-12215643D01*
X10583928Y-12187071D01*
X10569643Y-12129929D01*
X10569643Y-12058500D01*
X10583928Y-12001357D01*
X10598214Y-11972786D01*
X10612500Y-11958500D01*
X10641071Y-11944214D01*
X11098214Y-12244214D02*
X11098214Y-11944214D01*
X11226786Y-12244214D02*
X11226786Y-12087071D01*
X11212500Y-12058500D01*
X11183928Y-12044214D01*
X11141071Y-12044214D01*
X11112500Y-12058500D01*
X11098214Y-12072786D01*
X11412500Y-12244214D02*
X11383928Y-12229929D01*
X11369643Y-12215643D01*
X11355357Y-12187071D01*
X11355357Y-12101357D01*
X11369643Y-12072786D01*
X11383928Y-12058500D01*
X11412500Y-12044214D01*
X11455357Y-12044214D01*
X11483928Y-12058500D01*
X11498214Y-12072786D01*
X11512500Y-12101357D01*
X11512500Y-12187071D01*
X11498214Y-12215643D01*
X11483928Y-12229929D01*
X11455357Y-12244214D01*
X11412500Y-12244214D01*
X11683928Y-12244214D02*
X11655357Y-12229929D01*
X11641071Y-12201357D01*
X11641071Y-11944214D01*
X11912500Y-12229929D02*
X11883928Y-12244214D01*
X11826786Y-12244214D01*
X11798214Y-12229929D01*
X11783928Y-12201357D01*
X11783928Y-12087071D01*
X11798214Y-12058500D01*
X11826786Y-12044214D01*
X11883928Y-12044214D01*
X11912500Y-12058500D01*
X11926786Y-12087071D01*
X11926786Y-12115643D01*
X11783928Y-12144214D01*
X12041071Y-12229929D02*
X12069643Y-12244214D01*
X12126786Y-12244214D01*
X12155357Y-12229929D01*
X12169643Y-12201357D01*
X12169643Y-12187071D01*
X12155357Y-12158500D01*
X12126786Y-12144214D01*
X12083928Y-12144214D01*
X12055357Y-12129929D01*
X12041071Y-12101357D01*
X12041071Y-12087071D01*
X12055357Y-12058500D01*
X12083928Y-12044214D01*
X12126786Y-12044214D01*
X12155357Y-12058500D01*
X12269643Y-12358500D02*
X12283928Y-12344214D01*
X12312500Y-12301357D01*
X12326786Y-12272786D01*
X12341071Y-12229929D01*
X12355357Y-12158500D01*
X12355357Y-12101357D01*
X12341071Y-12029929D01*
X12326786Y-11987071D01*
X12312500Y-11958500D01*
X12283928Y-11915643D01*
X12269643Y-11901357D01*
X5437500Y-12444500D02*
X5437500Y-12564500D01*
X5377500Y-12504500D02*
X5497500Y-12504500D01*
X5941071Y-12640214D02*
X5769643Y-12640214D01*
X5855357Y-12640214D02*
X5855357Y-12340214D01*
X5826786Y-12383071D01*
X5798214Y-12411643D01*
X5769643Y-12425929D01*
X6069643Y-12611643D02*
X6083928Y-12625929D01*
X6069643Y-12640214D01*
X6055357Y-12625929D01*
X6069643Y-12611643D01*
X6069643Y-12640214D01*
X6198214Y-12368786D02*
X6212500Y-12354500D01*
X6241071Y-12340214D01*
X6312500Y-12340214D01*
X6341071Y-12354500D01*
X6355357Y-12368786D01*
X6369643Y-12397357D01*
X6369643Y-12425929D01*
X6355357Y-12468786D01*
X6183928Y-12640214D01*
X6369643Y-12640214D01*
X6555357Y-12340214D02*
X6583928Y-12340214D01*
X6612500Y-12354500D01*
X6626786Y-12368786D01*
X6641071Y-12397357D01*
X6655357Y-12454500D01*
X6655357Y-12525929D01*
X6641071Y-12583071D01*
X6626786Y-12611643D01*
X6612500Y-12625929D01*
X6583928Y-12640214D01*
X6555357Y-12640214D01*
X6526786Y-12625929D01*
X6512500Y-12611643D01*
X6498214Y-12583071D01*
X6483928Y-12525929D01*
X6483928Y-12454500D01*
X6498214Y-12397357D01*
X6512500Y-12368786D01*
X6526786Y-12354500D01*
X6555357Y-12340214D01*
X6783928Y-12640214D02*
X6783928Y-12440214D01*
X6783928Y-12468786D02*
X6798214Y-12454500D01*
X6826786Y-12440214D01*
X6869643Y-12440214D01*
X6898214Y-12454500D01*
X6912500Y-12483071D01*
X6912500Y-12640214D01*
X6912500Y-12483071D02*
X6926786Y-12454500D01*
X6955357Y-12440214D01*
X6998214Y-12440214D01*
X7026786Y-12454500D01*
X7041071Y-12483071D01*
X7041071Y-12640214D01*
X7183928Y-12640214D02*
X7183928Y-12440214D01*
X7183928Y-12468786D02*
X7198214Y-12454500D01*
X7226786Y-12440214D01*
X7269643Y-12440214D01*
X7298214Y-12454500D01*
X7312500Y-12483071D01*
X7312500Y-12640214D01*
X7312500Y-12483071D02*
X7326786Y-12454500D01*
X7355357Y-12440214D01*
X7398214Y-12440214D01*
X7426786Y-12454500D01*
X7441071Y-12483071D01*
X7441071Y-12640214D01*
X8026786Y-12325929D02*
X7769643Y-12711643D01*
X8412500Y-12340214D02*
X8441071Y-12340214D01*
X8469643Y-12354500D01*
X8483928Y-12368786D01*
X8498214Y-12397357D01*
X8512500Y-12454500D01*
X8512500Y-12525929D01*
X8498214Y-12583071D01*
X8483928Y-12611643D01*
X8469643Y-12625929D01*
X8441071Y-12640214D01*
X8412500Y-12640214D01*
X8383928Y-12625929D01*
X8369643Y-12611643D01*
X8355357Y-12583071D01*
X8341071Y-12525929D01*
X8341071Y-12454500D01*
X8355357Y-12397357D01*
X8369643Y-12368786D01*
X8383928Y-12354500D01*
X8412500Y-12340214D01*
X8641071Y-12611643D02*
X8655357Y-12625929D01*
X8641071Y-12640214D01*
X8626786Y-12625929D01*
X8641071Y-12611643D01*
X8641071Y-12640214D01*
X8841071Y-12340214D02*
X8869643Y-12340214D01*
X8898214Y-12354500D01*
X8912500Y-12368786D01*
X8926786Y-12397357D01*
X8941071Y-12454500D01*
X8941071Y-12525929D01*
X8926786Y-12583071D01*
X8912500Y-12611643D01*
X8898214Y-12625929D01*
X8869643Y-12640214D01*
X8841071Y-12640214D01*
X8812500Y-12625929D01*
X8798214Y-12611643D01*
X8783928Y-12583071D01*
X8769643Y-12525929D01*
X8769643Y-12454500D01*
X8783928Y-12397357D01*
X8798214Y-12368786D01*
X8812500Y-12354500D01*
X8841071Y-12340214D01*
X9198214Y-12440214D02*
X9198214Y-12640214D01*
X9126786Y-12325929D02*
X9055357Y-12540214D01*
X9241071Y-12540214D01*
X9326786Y-12340214D02*
X9526786Y-12340214D01*
X9398214Y-12640214D01*
X9626786Y-12340214D02*
X9626786Y-12397357D01*
X9741071Y-12340214D02*
X9741071Y-12397357D01*
X10183928Y-12754500D02*
X10169643Y-12740214D01*
X10141071Y-12697357D01*
X10126786Y-12668786D01*
X10112500Y-12625929D01*
X10098214Y-12554500D01*
X10098214Y-12497357D01*
X10112500Y-12425929D01*
X10126786Y-12383071D01*
X10141071Y-12354500D01*
X10169643Y-12311643D01*
X10183928Y-12297357D01*
X10455357Y-12640214D02*
X10283928Y-12640214D01*
X10369643Y-12640214D02*
X10369643Y-12340214D01*
X10341071Y-12383071D01*
X10312500Y-12411643D01*
X10283928Y-12425929D01*
X10626786Y-12468786D02*
X10598214Y-12454500D01*
X10583928Y-12440214D01*
X10569643Y-12411643D01*
X10569643Y-12397357D01*
X10583928Y-12368786D01*
X10598214Y-12354500D01*
X10626786Y-12340214D01*
X10683928Y-12340214D01*
X10712500Y-12354500D01*
X10726786Y-12368786D01*
X10741071Y-12397357D01*
X10741071Y-12411643D01*
X10726786Y-12440214D01*
X10712500Y-12454500D01*
X10683928Y-12468786D01*
X10626786Y-12468786D01*
X10598214Y-12483071D01*
X10583928Y-12497357D01*
X10569643Y-12525929D01*
X10569643Y-12583071D01*
X10583928Y-12611643D01*
X10598214Y-12625929D01*
X10626786Y-12640214D01*
X10683928Y-12640214D01*
X10712500Y-12625929D01*
X10726786Y-12611643D01*
X10741071Y-12583071D01*
X10741071Y-12525929D01*
X10726786Y-12497357D01*
X10712500Y-12483071D01*
X10683928Y-12468786D01*
X11098214Y-12640214D02*
X11098214Y-12340214D01*
X11226786Y-12640214D02*
X11226786Y-12483071D01*
X11212500Y-12454500D01*
X11183928Y-12440214D01*
X11141071Y-12440214D01*
X11112500Y-12454500D01*
X11098214Y-12468786D01*
X11412500Y-12640214D02*
X11383928Y-12625929D01*
X11369643Y-12611643D01*
X11355357Y-12583071D01*
X11355357Y-12497357D01*
X11369643Y-12468786D01*
X11383928Y-12454500D01*
X11412500Y-12440214D01*
X11455357Y-12440214D01*
X11483928Y-12454500D01*
X11498214Y-12468786D01*
X11512500Y-12497357D01*
X11512500Y-12583071D01*
X11498214Y-12611643D01*
X11483928Y-12625929D01*
X11455357Y-12640214D01*
X11412500Y-12640214D01*
X11683928Y-12640214D02*
X11655357Y-12625929D01*
X11641071Y-12597357D01*
X11641071Y-12340214D01*
X11912500Y-12625929D02*
X11883928Y-12640214D01*
X11826786Y-12640214D01*
X11798214Y-12625929D01*
X11783928Y-12597357D01*
X11783928Y-12483071D01*
X11798214Y-12454500D01*
X11826786Y-12440214D01*
X11883928Y-12440214D01*
X11912500Y-12454500D01*
X11926786Y-12483071D01*
X11926786Y-12511643D01*
X11783928Y-12540214D01*
X12041071Y-12625929D02*
X12069643Y-12640214D01*
X12126786Y-12640214D01*
X12155357Y-12625929D01*
X12169643Y-12597357D01*
X12169643Y-12583071D01*
X12155357Y-12554500D01*
X12126786Y-12540214D01*
X12083928Y-12540214D01*
X12055357Y-12525929D01*
X12041071Y-12497357D01*
X12041071Y-12483071D01*
X12055357Y-12454500D01*
X12083928Y-12440214D01*
X12126786Y-12440214D01*
X12155357Y-12454500D01*
X12269643Y-12754500D02*
X12283928Y-12740214D01*
X12312500Y-12697357D01*
X12326786Y-12668786D01*
X12341071Y-12625929D01*
X12355357Y-12554500D01*
X12355357Y-12497357D01*
X12341071Y-12425929D01*
X12326786Y-12383071D01*
X12312500Y-12354500D01*
X12283928Y-12311643D01*
X12269643Y-12297357D01*
M02*
